<?xml version="1.0" standalone="no"?>
<!DOCTYPE svg PUBLIC "-//W3C//DTD SVG 1.1//EN" "http://www.w3.org/Graphics/SVG/1.1/DTD/svg11.dtd" >
<svg>
<metadata>
Created by FontForge 20110222 at Mon Mar  7 08:04:18 2011
 By www-data
MARQUEE computer font v1.0 (c)2003 Harold Lohner  HLohner@aol.com  www.haroldsfonts.com
</metadata>
<defs>
<font id="Marquee" horiz-adv-x="650" >
  <font-face 
    font-family="Marquee"
    font-weight="400"
    font-stretch="normal"
    units-per-em="1000"
    panose-1="0 0 4 0 0 0 0 0 0 0"
    ascent="800"
    descent="-200"
    x-height="702"
    cap-height="702"
    bbox="-69 -250 2018 924"
    underline-thickness="50"
    underline-position="-75"
    unicode-range="U+0020-203A"
  />
    <missing-glyph />
    <glyph glyph-name="space" unicode=" " horiz-adv-x="278" 
 />
    <glyph glyph-name="exclam" unicode="!" horiz-adv-x="259" 
d="M200 528q0 -83 -31 -309q-12 -87 -45 -87t-45 87q-31 226 -31 309q0 58 14 109q20 74 62 74t62 -74q14 -51 14 -109zM205 47q0 -33 -23.5 -56.5t-56.5 -23.5t-56.5 23.5t-23.5 56.5t23.5 56.5t56.5 23.5t56.5 -23.5t23.5 -56.5zM164 634q0 16 -11.5 27.5t-27.5 11.5
t-28 -11.5t-12 -27.5t12 -27.5t28 -11.5t27.5 11.5t11.5 27.5zM169 541q0 18 -13 31t-31 13t-31 -13t-13 -31t13 -31.5t31 -13.5t31 13.5t13 31.5zM167 444q0 17 -12.5 29.5t-29.5 12.5t-29.5 -12.5t-12.5 -29.5t12.5 -29.5t29.5 -12.5t29.5 12.5t12.5 29.5zM162 355
q0 15 -11 26t-26 11t-26 -11t-11 -26t11 -26t26 -11t26 11t11 26zM153 279q0 29 -28 29q-29 0 -29 -29q0 -28 29 -28q28 0 28 28zM147 219q0 22 -22 22t-22 -22q0 -23 22 -23t22 23zM169 47q0 18 -13 31.5t-31 13.5t-31 -13.5t-13 -31.5t13 -31t31 -13t31 13t13 31z" />
    <glyph glyph-name="quotedbl" unicode="&#x22;" horiz-adv-x="354" 
d="M157 598q0 -25 -11 -80l-16 -82h-78l-16 82q-11 55 -11 80v144h132v-144zM136 675q0 18 -13 31t-31 13t-31.5 -13t-13.5 -31t13.5 -31t31.5 -13t31 13t13 31zM131 581q0 16 -11.5 28t-27.5 12t-28 -12t-12 -28t12 -27.5t28 -11.5t27.5 11.5t11.5 27.5zM123 501
q0 13 -9.5 22t-21.5 9q-13 0 -22 -9t-9 -22t9 -22t22 -9q12 0 21.5 9t9.5 22zM327 598q0 -25 -11 -80l-16 -82h-78l-16 82q-11 55 -11 80v144h132v-144zM306 675q0 18 -13 31t-31 13t-31.5 -13t-13.5 -31t13.5 -31t31.5 -13t31 13t13 31zM301 581q0 16 -11.5 28t-27.5 12
t-28 -12t-12 -28t12 -27.5t28 -11.5t27.5 11.5t11.5 27.5zM293 501q0 13 -9.5 22t-21.5 9q-13 0 -22 -9t-9 -22t9 -22t22 -9q12 0 21.5 9t9.5 22z" />
    <glyph glyph-name="numbersign" unicode="#" horiz-adv-x="825" 
d="M607 801l-7 -8q-43 35 -90 40q-55 39 -140 52l2 11q84 -13 142 -53q49 -5 93 -42zM652 754l-6 -9q-136 91 -330 129l2 10q194 -37 334 -130zM695 700l-7 -8q-84 60 -188 104q-118 51 -206 57v11q181 -11 401 -164zM721 659l-7 -8q-97 71 -221 122q-138 58 -244 61v11
q112 -3 248 -60q117 -50 224 -126zM745 593l-5 -10q-20 10 -83 62l-22 3q-59 57 -210 99q-136 39 -234 39v11q100 0 236 -39q150 -43 213 -100h4q-54 60 -192 105q-101 33 -219 51l1 11q286 -44 403 -146q8 -8 25 -23q37 -1 72 -29l-7 -9q-13 11 -39 24l-11 1q21 -19 68 -50
zM744 546l-5 -10q-31 15 -83 52q-56 38 -84 53q-133 70 -304 99l2 10q172 -28 307 -100q28 -14 84 -53q52 -36 83 -51zM764 552l-7 -9q-112 95 -266 157q-166 67 -301 62l-1 11l26 1q133 2 291 -66q142 -61 258 -156zM769 455l-8 -7q-40 51 -91 95h-1l-2 3
q-169 146 -329 149l-1 -2l-4 2v0q-16 14 -58 11l-1 11h22q-14 5 -26 3l-2 10l9 1q25 0 59 -25q165 0 336 -151l4 1q32 0 74 -43l-7 -8q-35 36 -59 40q51 -47 85 -90zM775 409l-9 -6q-79 117 -211 198q-143 87 -274 82v11h16q134 2 271 -85q123 -78 207 -200zM775 290l-10 -3
l-9 25l10 4zM770 388l-8 -6q-139 181 -252 229q135 -75 253 -254l-9 -6q-56 88 -132 160q-90 87 -171 114v0q-78 33 -163 35v11q91 -3 171 -37q125 -2 311 -246zM755 225l-10 -3l-8 28l10 3zM252 727q-9 -8 -19 -8q-8 0 -19 5l-1 -1l-3 2l-36 -9l-3 11l38 8q4 6 11 10
l-49 -7l-2 11l52 7l2 -9q8 5 21 9l3 -11q-18 -5 -26 -12q8 -3 14 -3q4 0 10 5zM760 330l-9 -6q-84 128 -158 189q-84 71 -218 113q-44 13 -79 13q-79 0 -204 -80l-6 9q127 82 210 82q37 0 83 -14q137 -44 221 -114q74 -61 160 -192zM259 712l-1 -10q-16 2 -32 2
q-41 0 -74 -16l-5 10q35 16 81 16q17 0 31 -2zM273 692l-2 -10q-11 2 -25 2q-42 0 -107 -23l-3 10q65 24 113 24q12 0 24 -3zM756 287l-11 -3q-19 65 -46 82q40 -69 46 -111l-11 -2q-7 45 -50 117v0l-4 8v0q-97 175 -312 227q-57 14 -78 14q-79 0 -155 -64l-11 -11l-7 8l6 6
q-18 -2 -36 -33l-9 5q22 39 47 39q4 0 9 -2q76 62 156 62q24 0 80 -14q26 -5 77 -19q156 -59 244 -215q37 -2 65 -94zM284 666l-40 -8q-5 -13 -32 -19q-34 -7 -42 -12l-6 9q8 5 39 13q27 7 30 11q-7 4 -18 4q-30 0 -83 -32l-5 9q53 33 88 33q16 0 26 -6l41 9zM165 622
q-16 -1 -40 -21l-7 8q27 23 47 23v-10zM706 81q-15 -33 -29 -44l-6 8q-21 -29 -58 -50l-6 10q62 33 72 85l10 -3q-4 -21 -17 -40q11 8 24 39zM635 86q-28 -41 -57 -41q-33 0 -62 47q-46 80 -140 240l9 5q46 -81 140 -240q26 -41 51 -41q24 0 51 36zM680 32q-21 -32 -44 -41
l-4 11q20 7 40 36zM746 203l-11 -1q-5 34 -24 59q-30 136 -154 236.5t-263 100.5q-60 0 -121 -49q-12 -20 -32 -36l12 5q25 30 56 39q27 28 81 28q141 0 259 -91t155 -227q34 -46 37 -116l-11 -1q-2 42 -17 79q9 -43 9 -80q0 -29 -10 -47l-9 4q8 17 8 43q0 172 -125 298.5
t-296 126.5q-49 0 -74 -25q35 19 77 19q82 0 165 -46h4q32 0 97 -53q62 -52 102.5 -142t40.5 -173q0 -24 -4 -50l-11 1q4 24 4 54q0 99 -58 199q-59 104 -146 146q76 -53 129.5 -139.5t65.5 -178.5q1 -2 1 -3q2 -18 2 -38q0 -45 -31 -91t-72 -63q-30 -32 -62 -32
q-50 0 -94 64q-29 42 -67 133q-39 95 -53 116q7 -67 75 -198q63 -122 140 -122q45 0 96 45l7 -8q-22 -20 -42 -31q36 15 77 37l5 -9q-110 -61 -170 -61q-10 0 -17 1q-9 -2 -18 -2q-51 0 -113 79q-49 63 -74 127v5q1 15 -8 29q9 -64 41 -116q48 -76 66 -95q40 -40 104 -40
q38 0 91 21q82 33 89 35l3 -10q-10 -3 -83 -34q-53 -23 -82 -23h-18q-50 0 -86 24q-30 20 -61 66q-69 106 -77 184q-1 1 0 4q-24 70 -24 122q0 38 9 63l10 -3q-8 -24 -8 -52q0 -57 23 -128q24 -19 22 -50q24 -61 70 -121q58 -76 106 -76q8 0 18 3q19 -6 55 3h-9
q-86 -5 -158 135q-54 107 -72 218l2 1q-4 16 -4 30q0 50 22 63q31 11 62 21q-13 5 -25 5q-16 0 -30 -11l-7 8q18 15 39 15q13 0 33 -10q60 -29 102 -90q23 -33 66 -122q23 -46 50 -116q2 6 2 13t-2 16l-4 4l2 2q-9 19 -26 59q-46 115 -86 167q-66 89 -156 89q-75 0 -76 -74
h-10q0 85 83 85q96 0 165 -89q40 -52 90 -173q11 -21 28 -66l8 -7l4 12q-52 144 -96 209q-73 106 -182 124l2 11q113 -19 188 -128q46 -67 99 -215q-1 -25 -14 -25q-3 0 -7 3v-3q2 -38 -30 -38q-28 0 -69 74q-36 69 -71 137q-41 74 -69 74h-2q-3 -12 -3 -24t50 -103
q32 -55 64 -111q43 -79 86 -79q23 0 48.5 28.5t25.5 52.5l-2 9q-6 58 -48 143.5t-83 128.5q-65 68 -150 93q-6 -7 -45 -10q-42 -3 -68 -20q-40 -26 -61 -90l-10 4q35 107 145 118q11 0 30 5v-2v-1l4 5q-7 -1 -12 -1t-14 1.5t-13 1.5q-81 0 -123 -70q-36 -58 -36 -143
q0 -87 44 -215q50 -147 110 -174q5 -3 11 -3q8 0 18 4q12 -22 65 -19l1 -11l-13 -1q-30 0 -50 11l1 -4q-13 -4 -24 -4q-24 0 -47 11l5 10q20 -10 42 -10q10 0 17 2l-2 2q-7 -2 -13 -2q-8 0 -18 5q-69 41 -116 179q-41 120 -41 219q0 154 94 204q-53 -21 -81.5 -66.5
t-28.5 -104.5q0 -122 34 -228q40 -124 119 -192l-7 -8q-134 114 -156 403l-1 -38q-6 -223 125 -339l-7 -8q-75 68 -105 160q-24 75 -24 192q0 148 53 219q-38 -38 -58 -123q-17 -70 -17 -139q0 -28 4 -60l-11 -1q-4 33 -4 61q0 61 15 129q17 78 46 120l-12 -18v-3h-3
q-49 -79 -52 -184h-11q2 99 46 175q-31 -27 -46 -119l-11 1q11 65 31 103l-8 3q13 38 34 52l6 -9q-17 -11 -27 -38q13 20 32 25q39 60 94 93q-26 -8 -49 -34l1 -1l-5 -4v0q-15 -13 -30 -35l-9 6l12 16l-16 -19l-9 6l16 20l-13 -7v0q-39 -29 -42 -88l-11 1q4 62 45 94l-1 1
l2 1q3 28 62 53l1 3l2 -1q59 50 129 50q143 0 268 -101.5t156 -241.5q20 -27 25 -63zM120 541l-29 -38v0l-19 -31l-9 5l19 34l1 -1l28 37zM466 -53l-4 -10q-41 16 -65.5 46t-48.5 60q-3 1 -1 2q-104 128 -100 286v16h11v-17q-3 -140 90 -269q-6 37 -48 128q-36 77 -36 137
q0 100 77 111l1 -11q-67 -9 -67 -98q0 -55 44 -156q42 -97 40 -124q21 -28 43.5 -57t63.5 -44zM489 -113q-33 -6 -56 -6q-51 0 -73 12q-38 21 -84 94q-40 65 -54 117q-32 109 -32 209q0 31 14 75q17 50 40 62l4 -10q-13 -7 -25 -39l-4 2l3 -3q-21 -24 -21 -88q0 -97 31 -205
q14 -49 53 -113q44 -73 80 -92q20 -10 66 -10q22 0 56 6zM416 -92l-1 -11q-23 0 -56 26q-66 52 -109 170q-40 107 -40 202q0 71 23 118q30 60 94 58h17l-1 -11h-12q-110 3 -110 -161q0 -101 52 -230q62 -154 143 -161zM630 -106l-57 -22l-4 10l57 22zM662 -63
q-108 -71 -247 -80v11q132 6 241 78zM563 -130q-12 -9 -53 -25l-4 10q18 7 51 24zM331 -95l-7 -8q-76 65 -118 190q-35 108 -35 225q0 28 2 54l11 -1q-4 -35 -4 -70q0 -109 37 -211q40 -115 114 -179zM503 -153q-21 -9 -90 -17l-2 11q23 2 46.5 5t41.5 11zM500 -175
q-42 -18 -112 -19v11q69 1 108 18zM173 -20l-8 -7q-76 89 -73 275l1 24l11 -1l-1 -25q-3 -177 70 -266zM409 -171l-67 -6l-1 11l67 5zM365 -145q-19 -5 -38 -5q-16 0 -34 4l2 11q18 -4 36 -4q13 0 31 5zM226 -82l-7 -9q-34 25 -46 48l9 5q11 -21 44 -44zM480 455
q-15 20 -36 24q10 -12 36 -24zM654 147q0 20 -11 46q-10 21 -20 43q-58 143 -132 205l-1 -2q-48 18 -60 42q-17 13 -57 27l-11 -10q118 -34 192 -143q52 -77 98 -226q2 8 2 18zM667 213q-29 135 -131 236q-110 108 -242 108q-74 0 -138 -70q60 61 143 61q189 0 324 -231
q14 -35 44 -104zM674 147q0 18 -2 34q-17 22 -33 64q-22 59 -26 67q-9 18 -39 59q-60 82 -116 120q-69 46 -159 46q-9 0 -21 -1q34 0 82.5 -13t74.5 -32l2 1v-1q34 -2 58 -39q46 -31 82 -96q4 -7 55 -116l22 -44q11 -25 11 -48q0 -25 -11 -43q-5 -40 -51 -72q-6 -29 -45 -29
q-52 0 -125 116q8 -28 45 -69l-9 -7q-52 59 -46 93q-86 144 -86 195q0 30 18 30q7 0 14 -4l7 2q33 0 76 -74q36 -69 71 -138q39 -73 63 -73q-21 14 -60 96q-49 103 -71 136q-46 70 -91 70q-39 0 -39 -40q0 -18 11 -42v0q54 -134 75 -175q62 -123 112 -134l-2 -10
q-82 17 -203 335v1q-4 13 -4 25q0 51 50 51q49 0 98 -72q25 -37 74 -139q39 -82 57 -94q0 10 -26 66q-49 109 -71 144q-49 81 -110 110q-9 -8 -34.5 -12t-34.5 -13q-17 -14 -17 -50q0 -17 7 -40q23 -23 57 -111q41 -103 63 -139q42 -68 92 -68q21 0 41 16l-7 -1
q-43 -3 -76 47l9 6q28 -42 68 -42q10 0 21 4l4 5l3 -2q38 17 65 59.5t27 84.5zM362 511q-44 14 -84 14q-100 0 -136 -115q23 49 70 77t101 27h6v-5q13 -4 26 -4q11 0 17 6zM152 539q-28 -16 -36 -29q22 12 36 29zM586 24q-8 -2 -15 -2q-56 0 -107 105q-2 4 -60 103
q-44 76 -44 95q0 11 3 24l-7 1q-8 0 -8 -14q0 -56 79 -185q82 -136 132 -136q19 0 27 9zM457 510h-1l-2 1zM454 511l-4 2v0zM435 139v-1l-1 1h1z" />
    <glyph glyph-name="dollar" unicode="$" horiz-adv-x="543" 
d="M512 181q0 -77 -51.5 -133t-129.5 -69v-112h-122v110q-89 10 -188 68v177q92 -83 188 -110v175q-75 22 -126 67q-61 54 -61 123q0 80 55 134q50 50 132 66v79h122v-78q99 -17 178 -81v-166q-84 84 -178 115v-157q79 -24 127 -74q54 -57 54 -134zM487 555q0 18 -13 31.5
t-31 13.5t-31 -13.5t-13 -31.5t13 -31t31 -13t31 13t13 31zM303 694q0 13 -10 23t-23 10t-23 -10t-10 -23t10 -23t23 -10t23 10t10 23zM401 604q0 18 -13 31.5t-31 13.5t-31 -13.5t-13 -31.5t13 -31t31 -13t31 13t13 31zM302 618q0 14 -9.5 23.5t-23.5 9.5q-13 0 -23 -9.5
t-10 -23.5q0 -13 10 -23t23 -10q14 0 23.5 10t9.5 23zM302 542q0 14 -9.5 23.5t-23.5 9.5q-13 0 -23 -9.5t-10 -23.5q0 -13 10 -23t23 -10q14 0 23.5 10t9.5 23zM225 602q0 18 -13.5 31t-31.5 13t-31 -13t-13 -31t13 -31t31 -13t31.5 13t13.5 31zM302 466q0 14 -9.5 23.5
t-23.5 9.5q-13 0 -23 -9.5t-10 -23.5q0 -13 10 -23t23 -10q14 0 23.5 10t9.5 23zM209 430v117q-49 -17 -49 -57q0 -36 49 -60zM477 228q0 18 -13 31t-31 13t-31 -13t-13 -31t13 -31t31 -13t31 13t13 31zM407 297q0 18 -13 31t-31 13t-31 -13t-13 -31t13 -31t31 -13t31 13
t13 31zM302 391q0 13 -9.5 22.5t-23.5 9.5q-13 0 -23 -9.5t-10 -22.5q0 -14 10 -23.5t23 -9.5q14 0 23.5 9.5t9.5 23.5zM141 535q0 18 -13 31t-31 13t-31.5 -13t-13.5 -31q0 -19 13.5 -32t31.5 -13t31 13t13 32zM302 315q0 13 -9.5 23t-23.5 10q-13 0 -23 -10t-10 -23
q0 -14 10 -23.5t23 -9.5q14 0 23.5 9.5t9.5 23.5zM477 126q0 18 -13 31t-31 13t-31 -13t-13 -31t13 -31.5t31 -13.5t31 13.5t13 31.5zM228 364q0 18 -13 31.5t-31 13.5t-31 -13.5t-13 -31.5t13 -31t31 -13t31 13t13 31zM149 432q0 18 -13 31t-31 13t-31 -13t-13 -31t13 -31
t31 -13t31 13t13 31zM376 173q0 37 -45 62v-121q45 18 45 59zM302 239q0 13 -9.5 23t-23.5 10q-13 0 -23 -10t-10 -23q0 -14 10 -23.5t23 -9.5q14 0 23.5 9.5t9.5 23.5zM302 163q0 13 -9.5 23t-23.5 10q-13 0 -23 -10t-10 -23t10 -23t23 -10q14 0 23.5 10t9.5 23zM402 55
q0 18 -13.5 31t-31.5 13t-31 -13t-13 -31t13 -31t31 -13t31.5 13t13.5 31zM302 87q0 13 -9.5 23t-23.5 10q-13 0 -23 -10t-10 -23t10 -23t23 -10q14 0 23.5 10t9.5 23zM302 11q0 14 -9.5 23.5t-23.5 9.5q-13 0 -23 -9.5t-10 -23.5q0 -13 10 -23t23 -10q14 0 23.5 10t9.5 23z
M231 50q0 18 -13 31.5t-31 13.5t-31 -13.5t-13 -31.5t13 -31t31 -13t31 13t13 31zM302 -65q0 14 -9.5 23.5t-22.5 9.5q-14 0 -23.5 -9.5t-9.5 -23.5q0 -13 9.5 -23t23.5 -10q13 0 22.5 10t9.5 23zM138 86q0 18 -13 31t-31 13t-31 -13t-13 -31t13 -31t31 -13t31 13t13 31z
" />
    <glyph glyph-name="percent" unicode="%" horiz-adv-x="680" 
d="M348 537q0 -71 -50 -121t-121 -50t-120.5 50t-49.5 121q0 70 49.5 120t120.5 50t121 -50t50 -120zM285 624q0 13 -10 23.5t-24 10.5t-24 -10.5t-10 -23.5q0 -14 10 -24t24 -10t24 10t10 24zM323 554q0 14 -10.5 24t-23.5 10q-14 0 -24 -10t-10 -24q0 -13 10 -23.5
t24 -10.5t24 10.5t10 23.5zM212 653q0 13 -10 23.5t-24 10.5t-24 -10.5t-10 -23.5q0 -14 10 -24t24 -10t24 10t10 24zM311 477q0 14 -10 24t-24 10t-24 -10t-10 -24t10 -24t24 -10t24 10t10 24zM138 626q0 14 -10 24t-24 10t-24 -10t-10 -24t10 -24t24 -10t24 10t10 24z
M235 537q0 24 -17 40.5t-41 16.5t-40.5 -16.5t-16.5 -40.5q0 -25 16.5 -42t40.5 -17t41 17.5t17 41.5zM249 427q0 14 -10 24t-24 10t-24 -10t-10 -24t10 -24t24 -10t24 10t10 24zM99 558q0 14 -10 24t-24 10t-24 -10t-10 -24t10 -24t24 -10t24 10t10 24zM170 427
q0 14 -10 24t-24 10t-24 -10t-10 -24t10 -24t24 -10t24 10t10 24zM113 481q0 13 -10.5 23.5t-23.5 10.5q-14 0 -24 -10.5t-10 -23.5q0 -14 10 -24t24 -10q13 0 23.5 10t10.5 24zM673 141q0 -71 -50 -121t-121 -50t-120.5 50t-49.5 121q0 70 49.5 120t120.5 50t121 -50
t50 -120zM610 228q0 13 -10 23.5t-24 10.5t-24 -10.5t-10 -23.5q0 -14 10 -24t24 -10t24 10t10 24zM648 158q0 14 -10.5 24t-23.5 10q-14 0 -24 -10t-10 -24q0 -13 10 -23.5t24 -10.5t24 10.5t10 23.5zM537 257q0 13 -10 23.5t-24 10.5t-24 -10.5t-10 -23.5q0 -14 10 -24
t24 -10t24 10t10 24zM636 81q0 14 -10 24t-24 10t-24 -10t-10 -24t10 -24t24 -10t24 10t10 24zM463 230q0 14 -10 24t-24 10t-24 -10t-10 -24t10 -24t24 -10t24 10t10 24zM560 141q0 24 -17 40.5t-41 16.5t-40.5 -16.5t-16.5 -40.5q0 -25 16.5 -42t40.5 -17t41 17.5t17 41.5
zM574 31q0 14 -10 24t-24 10t-24 -10t-10 -24t10 -24t24 -10t24 10t10 24zM424 162q0 14 -10 24t-24 10t-24 -10t-10 -24t10 -24t24 -10t24 10t10 24zM495 31q0 14 -10 24t-24 10t-24 -10t-10 -24t10 -24t24 -10t24 10t10 24zM438 85q0 13 -10.5 23.5t-23.5 10.5
q-14 0 -24 -10.5t-10 -23.5q0 -14 10 -24t24 -10q13 0 23.5 10t10.5 24zM626 660l-455 -709l-112 72l455 709zM573 636q0 18 -13 31.5t-31 13.5q-19 0 -32 -13.5t-13 -31.5t13 -31.5t31 -13.5q19 0 32 13.5t13 31.5zM520 552q0 18 -13.5 31.5t-31.5 13.5t-31.5 -13.5
t-13.5 -31.5t13.5 -31.5t31.5 -13.5t31.5 13.5t13.5 31.5zM466 468q0 18 -13 31.5t-31 13.5q-19 0 -32 -13t-13 -32q0 -18 13 -31.5t31 -13.5q19 0 32 13.5t13 31.5zM413 384q0 18 -13 31.5t-32 13.5q-18 0 -31.5 -13t-13.5 -32q0 -18 13.5 -31t31.5 -13t31.5 13t13.5 31z
M359 300q0 19 -13 32t-31 13q-19 0 -32 -13t-13 -31q0 -19 13 -32t32 -13q18 0 31 13t13 31zM306 216q0 19 -13 32t-32 13q-18 0 -31 -13t-13 -31q0 -19 13 -32t31 -13t31.5 13t13.5 31zM252 132q0 19 -13 32t-31 13t-31.5 -13t-13.5 -31q0 -19 13 -32t32 -13q18 0 31 13
t13 31zM199 49q0 18 -13 31t-32 13q-18 0 -31 -13t-13 -31t13 -31.5t31 -13.5t31.5 13t13.5 32z" />
    <glyph glyph-name="ampersand" unicode="&#x26;" horiz-adv-x="663" 
d="M702 -20h-182l-72 85q-113 -94 -220 -94q-79 0 -137.5 52t-58.5 130q0 111 155 206q-69 79 -69 153q0 83 59 132q54 45 139 45q76 0 127 -46t51 -122q0 -103 -108 -183l70 -79q29 32 59 100h142q-42 -117 -113 -199zM451 597q0 18 -14 30t-32 12t-30.5 -14t-12.5 -32
t14 -30t32 -12t30.5 14t12.5 32zM359 634q0 18 -14 30.5t-32 12.5t-30.5 -14t-12.5 -32t14 -30.5t32 -12.5t30.5 14t12.5 32zM466 498q0 18 -14 30t-32 12t-30 -14t-12 -32t14 -30t32 -12t30 14t12 32zM598 286q0 18 -13 31t-31 13t-31.5 -13t-13.5 -31t13.5 -31t31.5 -13
t31 13t13 31zM266 605q0 17 -14 29.5t-32 12.5t-30.5 -14t-12.5 -32t14 -30t32 -12t30.5 13.5t12.5 32.5zM361 516q0 50 -50 50q-22 0 -38.5 -12t-16.5 -33q0 -42 45 -89q60 39 60 84zM413 414q0 18 -14 30t-32 12t-30 -13.5t-12 -32.5q0 -17 14 -29.5t32 -12.5t30 14t12 32
zM541 208q0 13 -8.5 22.5t-20.5 9.5q-13 0 -22.5 -8.5t-9.5 -20.5q0 -13 8.5 -22.5t20.5 -9.5q13 0 22.5 8.5t9.5 20.5zM232 513q0 18 -14 30t-32 12t-30 -14t-12 -32t14 -30t32 -12t30 14t12 32zM271 422q0 18 -14 30t-32 12t-30 -13.5t-12 -31.5t14 -30.5t32 -12.5t30 14
t12 32zM337 350q0 18 -13.5 30.5t-32.5 12.5q-17 0 -29.5 -14t-12.5 -32t14 -30.5t32 -12.5t30 14t12 32zM404 278q0 18 -14 30.5t-32 12.5t-30.5 -14t-12.5 -32t14 -30.5t32 -12.5t30.5 14t12.5 32zM470 206q0 18 -14 30.5t-32 12.5t-30.5 -14t-12.5 -32t14 -30.5t32 -12.5
t30.5 14t12.5 32zM535 125q0 18 -13 31t-31 13t-31.5 -13t-13.5 -31t13.5 -31t31.5 -13t31 13t13 31zM599 51q0 18 -13.5 31t-31.5 13t-31 -13t-13 -31t13 -31.5t31 -13.5t31.5 13.5t13.5 31.5zM437 118q0 13 -9 22t-22 9q-12 0 -21.5 -9t-9.5 -22q0 -12 9.5 -21t21.5 -9
q13 0 22 9t9 21zM255 298q0 18 -14 31t-32 13t-30.5 -14.5t-12.5 -33.5q0 -17 14 -29.5t32 -12.5t30.5 14t12.5 32zM361 162l-91 101q-98 -59 -98 -110q0 -22 23 -38q20 -14 43 -14q56 0 123 61zM383 65q0 18 -13 31t-31 13t-31 -13t-13 -31t13 -31t31 -13t31 13t13 31z
M178 237q0 18 -13 31t-31 13t-31.5 -13t-13.5 -31t13.5 -31t31.5 -13t31 13t13 31zM289 36q0 18 -13 31t-32 13q-18 0 -31 -13t-13 -31t13 -31t31 -13q19 0 32 13t13 31zM146 143q0 18 -13.5 31.5t-31.5 13.5t-31 -13.5t-13 -31.5t13 -31t31 -13t31.5 13t13.5 31zM193 57
q0 18 -13 31t-31 13q-19 0 -32 -13t-13 -31t13 -31t32 -13q18 0 31 13t13 31z" />
    <glyph glyph-name="quotesingle" unicode="'" horiz-adv-x="245" 
d="M182 598q0 -25 -11 -80l-16 -82h-78l-16 82q-11 55 -11 80v144h132v-144zM161 675q0 18 -13 31t-31 13t-31.5 -13t-13.5 -31t13.5 -31t31.5 -13t31 13t13 31zM156 581q0 16 -11.5 28t-27.5 12t-28 -12t-12 -28t12 -27.5t28 -11.5t27.5 11.5t11.5 27.5zM148 501
q0 13 -9.5 22t-21.5 9q-13 0 -22 -9t-9 -22t9 -22t22 -9q12 0 21.5 9t9.5 22z" />
    <glyph glyph-name="parenleft" unicode="(" horiz-adv-x="347" 
d="M343 821q-169 -225 -169 -482t169 -482h-101q-98 96 -153 221q-58 129 -58 261t58 261q55 125 153 221h101zM278 758q0 12 -9 21.5t-22 9.5q-12 0 -21.5 -9.5t-9.5 -21.5q0 -13 9.5 -22t21.5 -9q13 0 22 9t9 22zM234 697q0 14 -10 24.5t-25 10.5q-14 0 -24 -10.5
t-10 -24.5t10 -24.5t24 -10.5q15 0 25 10.5t10 24.5zM201 624q0 16 -11.5 27.5t-27.5 11.5t-27.5 -11.5t-11.5 -27.5t11.5 -27.5t27.5 -11.5t27.5 11.5t11.5 27.5zM175 534q0 19 -13 32t-32 13q-18 0 -31 -13t-13 -32q0 -18 13 -31t31 -13q19 0 32 13t13 31zM156 437
q0 18 -13.5 31t-31.5 13t-31 -13t-13 -31t13 -31t31 -13t31.5 13t13.5 31zM146 338q0 18 -13.5 31.5t-31.5 13.5t-31 -13.5t-13 -31.5t13 -31t31 -13t31.5 13t13.5 31zM156 240q0 18 -13.5 31t-31.5 13t-31 -13t-13 -31t13 -31t31 -13t31.5 13t13.5 31zM175 142q0 18 -13 31
t-32 13q-18 0 -31 -13t-13 -31t13 -31t31 -13q19 0 32 13t13 31zM201 53q0 16 -11.5 27.5t-27.5 11.5t-27.5 -11.5t-11.5 -27.5t11.5 -28t27.5 -12t27.5 12t11.5 28zM234 -21q0 15 -10 25t-25 10q-14 0 -24 -10t-10 -25q0 -14 10 -24t24 -10q15 0 25 10t10 24zM278 -81
q0 13 -9 22t-22 9q-12 0 -21.5 -9t-9.5 -22t9.5 -22t21.5 -9q13 0 22 9t9 22z" />
    <glyph glyph-name="parenright" unicode=")" horiz-adv-x="347" 
d="M-8 -144q169 225 169 482t-169 482h102q97 -97 153 -221q57 -129 57 -261q0 -133 -57 -262q-56 -124 -153 -220h-102zM57 -81q0 -13 9 -22t22 -9t22 9t9 22t-9 22t-22 9t-22 -9t-9 -22zM101 -21q0 -14 10.5 -24t24.5 -10t24.5 10t10.5 24q0 15 -10.5 25t-24.5 10
t-24.5 -10t-10.5 -25zM134 53q0 -16 11.5 -28t27.5 -12t28 12t12 28t-12 27.5t-28 11.5t-27.5 -11.5t-11.5 -27.5zM161 142q0 -18 13 -31t31 -13t31 13t13 31t-13 31t-31 13t-31 -13t-13 -31zM180 240q0 -18 13 -31t31 -13t31 13t13 31t-13 31t-31 13t-31 -13t-13 -31z
M190 338q0 -18 13 -31t31 -13t31 13t13 31t-13 31.5t-31 13.5t-31 -13.5t-13 -31.5zM180 437q0 -18 13 -31t31 -13t31 13t13 31t-13 31t-31 13t-31 -13t-13 -31zM161 534q0 -18 13 -31t31 -13t31 13t13 31q0 19 -13 32t-31 13t-31 -13t-13 -32zM134 624q0 -16 11.5 -27.5
t27.5 -11.5t28 11.5t12 27.5t-12 27.5t-28 11.5t-27.5 -11.5t-11.5 -27.5zM101 697q0 -14 10.5 -24.5t24.5 -10.5t24.5 10.5t10.5 24.5t-10.5 24.5t-24.5 10.5t-24.5 -10.5t-10.5 -24.5zM57 758q0 -13 9 -22t22 -9t22 9t9 22q0 12 -9 21.5t-22 9.5t-22 -9.5t-9 -21.5z" />
    <glyph glyph-name="asterisk" unicode="*" horiz-adv-x="521" 
d="M480 591q0 -58 -100 -89q98 -31 98 -91q0 -29 -20.5 -50t-48.5 -21q-39 0 -94 52q8 -33 8 -58q0 -36 -19 -59.5t-54 -23.5q-71 0 -71 85q0 26 8 56q-55 -50 -95 -50q-28 0 -48.5 22t-20.5 50q0 58 101 89q-99 30 -99 90q0 28 20.5 49.5t49.5 21.5q39 0 93 -50
q-7 30 -7 57q0 35 18.5 58.5t53.5 23.5t53 -24.5t18 -61.5q0 -25 -7 -54q54 50 95 50q28 0 48 -22t20 -50zM446 592q0 18 -13 31t-31 13t-31 -13t-13 -31t13 -31t31 -13t31 13t13 31zM296 679q0 18 -13 31t-31 13t-31 -18t-13 -36q0 -34 44 -34q18 0 31 13t13 31zM360 547
q0 15 -10.5 25t-24.5 10t-24.5 -10t-10.5 -25q0 -14 10.5 -24.5t24.5 -10.5t24.5 10.5t10.5 24.5zM287 590q0 14 -10.5 24.5t-24.5 10.5t-24.5 -10.5t-10.5 -24.5t10.5 -24.5t24.5 -10.5t24.5 10.5t10.5 24.5zM446 420q0 18 -13 31t-31 13t-31 -13t-13 -31t13 -31.5
t31 -13.5t31 13.5t13 31.5zM359 464q0 14 -10 24.5t-24 10.5q-15 0 -25 -10.5t-10 -24.5t10 -24.5t25 -10.5q14 0 24 10.5t10 24.5zM292 506q0 16 -11.5 27.5t-27.5 11.5t-27.5 -11.5t-11.5 -27.5t11.5 -27.5t27.5 -11.5t27.5 11.5t11.5 27.5zM216 548q0 14 -10.5 24
t-24.5 10t-24.5 -10t-10.5 -24q0 -15 10.5 -25t24.5 -10t24.5 10t10.5 25zM148 592q0 18 -13 31t-31 13t-31 -13t-13 -31t13 -31t31 -13t31 13t13 31zM289 422q0 14 -10.5 24.5t-24.5 10.5t-24.5 -10.5t-10.5 -24.5t10.5 -24.5t24.5 -10.5t24.5 10.5t10.5 24.5zM216 464
q0 15 -10.5 25t-24.5 10t-24.5 -10t-10.5 -25q0 -14 10.5 -24t24.5 -10t24.5 10t10.5 24zM298 333q0 18 -13 31t-31 13t-31 -13t-13 -31t13 -31t31 -13t31 13t13 31zM148 420q0 18 -13 31t-31 13t-31 -13t-13 -31t13 -31t31 -13t31 13t13 31z" />
    <glyph glyph-name="plus" unicode="+" horiz-adv-x="584" 
d="M553 287h-195v-195h-132v195h-195v132h195v195h132v-195h195v-132zM534 354q0 18 -13 31t-31 13t-31 -13t-13 -31t13 -31t31 -13t31 13t13 31zM337 551q0 18 -13 31t-31 13t-31 -13t-13 -31t13 -31t31 -13t31 13t13 31zM436 354q0 18 -13.5 31t-31.5 13t-31 -13t-13 -31
t13 -31t31 -13t31.5 13t13.5 31zM337 452q0 18 -13 31.5t-31 13.5t-31 -13.5t-13 -31.5t13 -31t31 -13t31 13t13 31zM337 354q0 18 -13 31t-31 13t-31 -13t-13 -31t13 -31t31 -13t31 13t13 31zM239 354q0 18 -13.5 31t-31.5 13t-31 -13t-13 -31t13 -31t31 -13t31.5 13
t13.5 31zM337 255q0 18 -13 31.5t-31 13.5t-31 -13.5t-13 -31.5t13 -31t31 -13t31 13t13 31zM140 354q0 18 -13 31t-31 13t-31 -13t-13 -31t13 -31t31 -13t31 13t13 31zM337 157q0 18 -13 31t-31 13t-31 -13t-13 -31t13 -31t31 -13t31 13t13 31z" />
    <glyph glyph-name="comma" unicode="," horiz-adv-x="271" 
d="M216 36q0 -65 -48 -111q-41 -40 -109 -60v67q40 26 39 63v7q-52 12 -52 74q0 33 23 55t56 22q45 0 70 -37q21 -33 21 -80zM174 73q0 20 -14.5 34.5t-33.5 14.5q-20 0 -34.5 -14.5t-14.5 -34.5q0 -19 14.5 -33.5t33.5 -14.5q20 0 34.5 14.5t14.5 33.5zM179 -16
q0 12 -9 21.5t-22 9.5q-12 0 -21.5 -9.5t-9.5 -21.5q0 -13 9.5 -22t21.5 -9q13 0 22 9t9 22zM137 -72q0 24 -24 24t-24 -24t24 -24t24 24z" />
    <glyph glyph-name="hyphen" unicode="-" horiz-adv-x="323" 
d="M281 275h-243v133h243v-133zM252 341q0 18 -13 31t-31 13t-31.5 -13t-13.5 -31t13.5 -31.5t31.5 -13.5t31 13.5t13 31.5zM153 341q0 18 -13 31t-31 13t-31 -13t-13 -31t13 -31.5t31 -13.5t31 13.5t13 31.5z" />
    <glyph glyph-name="hyphen" unicode="&#x2010;" horiz-adv-x="323" 
d="M281 275h-243v133h243v-133zM252 341q0 18 -13 31t-31 13t-31.5 -13t-13.5 -31t13.5 -31.5t31.5 -13.5t31 13.5t13 31.5zM153 341q0 18 -13 31t-31 13t-31 -13t-13 -31t13 -31.5t31 -13.5t31 13.5t13 31.5z" />
    <glyph glyph-name="period" unicode="." horiz-adv-x="259" 
d="M205 47q0 -33 -23.5 -56.5t-56.5 -23.5t-56.5 23.5t-23.5 56.5t23.5 56.5t56.5 23.5t56.5 -23.5t23.5 -56.5zM169 47q0 18 -13 31.5t-31 13.5t-31 -13.5t-13 -31.5t13 -31t31 -13t31 13t13 31z" />
    <glyph glyph-name="slash" unicode="/" horiz-adv-x="281" 
d="M320 730l-227 -811l-128 37l227 811zM278 674q0 18 -13 31.5t-31 13.5t-31.5 -13t-13.5 -31t13 -31.5t31 -13.5t31.5 13t13.5 31zM251 579q0 19 -13 32t-31 13t-31 -13t-13 -31t13 -31.5t31 -13.5t31 13t13 31zM225 485q0 18 -13 31t-31 13t-31 -13t-13 -31t13 -31.5
t31 -13.5t31 13.5t13 31.5zM199 390q0 18 -13 31t-31 13t-31.5 -13t-13.5 -31t13 -31t31 -13t31.5 13t13.5 31zM172 295q0 18 -13 31t-31 13t-31 -13t-13 -31t13 -31t31 -13t31 13t13 31zM146 200q0 18 -13 31t-31 13t-31 -13t-13 -31t13 -31t31 -13t31 13t13 31zM120 105
q0 18 -13 31t-31 13t-31.5 -13t-13.5 -31t13 -31t31 -13q19 0 32 13t13 31zM93 10q0 18 -13 31t-31 13t-31 -13t-13 -31t13 -31t31 -13t31 13t13 31z" />
    <glyph glyph-name="zero" unicode="0" horiz-adv-x="624" 
d="M575 341q0 -147 -62 -248q-73 -122 -211 -122t-211 122q-62 101 -62 248t61 249q74 121 212 121t212 -121q61 -102 61 -249zM438 609q0 18 -13 31.5t-31 13.5t-31 -13t-13 -31t13 -31.5t31 -13.5t31 13t13 31zM505 536q0 18 -13 31.5t-31 13.5t-31.5 -13t-13.5 -31
t13 -31.5t31 -13.5t31.5 13t13.5 31zM347 646q0 18 -13 31t-31 13t-31 -13t-13 -31t13 -31t31 -13t31 13t13 31zM535 441q0 18 -13.5 31.5t-31.5 13.5t-31 -13t-13 -31t13 -31.5t31 -13.5t31.5 13t13.5 31zM546 343q0 18 -13.5 31t-31.5 13t-31 -13t-13 -31t13.5 -31
t31.5 -13t31 13t13 31zM257 610q0 18 -13.5 31t-31.5 13t-31 -13t-13 -31t13.5 -31t31.5 -13t31 13t13 31zM534 245q0 18 -13 31t-31 13t-31 -13t-13 -31t13 -31t31 -13t31 13t13 31zM190 537q0 18 -13 31t-31 13t-31 -13t-13 -31t13 -31t31 -13t31 13t13 31zM422 341
q0 237 -120 237t-120 -237t120 -237t120 237zM504 150q0 18 -13 31t-31 13t-31 -13t-13 -31t13 -31t31 -13t31 13t13 31zM160 442q0 18 -13 31t-31 13t-31 -13t-13 -31t13 -31t31 -13t31 13t13 31zM438 77q0 18 -13.5 31t-31.5 13t-31 -13t-13 -31t13.5 -31t31.5 -13t31 13
t13 31zM148 343q0 18 -13 31t-31 13t-31 -13t-13 -31t13 -31t31 -13t31 13t13 31zM160 244q0 18 -13 31.5t-31 13.5t-31.5 -13t-13.5 -31t13.5 -31.5t31.5 -13.5t31 13t13 31zM347 40q0 18 -13 31t-31 13t-31 -13t-13 -31t13 -31t31 -13t31 13t13 31zM190 149q0 18 -13 31.5
t-31 13.5t-31.5 -13t-13.5 -31t13 -31.5t31 -13.5t31.5 13t13.5 31zM256 76q0 18 -13 31.5t-31 13.5t-31 -13t-13 -31t13 -31.5t31 -13.5t31 13t13 31z" />
    <glyph glyph-name="one" unicode="1" horiz-adv-x="251" 
d="M186 -20h-138v722h138v-722zM162 641q0 18 -13 31.5t-31 13.5t-31.5 -13.5t-13.5 -31.5t13.5 -31t31.5 -13t31 13t13 31zM162 543q0 18 -13 31t-31 13t-31.5 -13t-13.5 -31t13.5 -31t31.5 -13t31 13t13 31zM162 444q0 18 -13 31.5t-31 13.5t-31.5 -13.5t-13.5 -31.5
t13.5 -31t31.5 -13t31 13t13 31zM162 346q0 18 -13 31t-31 13t-31.5 -13t-13.5 -31t13.5 -31t31.5 -13t31 13t13 31zM162 247q0 18 -13 31.5t-31 13.5t-31.5 -13.5t-13.5 -31.5t13.5 -31t31.5 -13t31 13t13 31zM162 149q0 18 -13 31t-31 13t-31.5 -13t-13.5 -31t13.5 -31
t31.5 -13t31 13t13 31zM162 50q0 18 -13 31.5t-31 13.5t-31.5 -13.5t-13.5 -31.5t13.5 -31t31.5 -13t31 13t13 31z" />
    <glyph glyph-name="two" unicode="2" horiz-adv-x="522" 
d="M486 -20h-492v34q94 108 188 217q127 157 127 236q0 45 -31 76.5t-76 31.5q-48 0 -99 -46q-29 -25 -75 -84v191q93 75 181 75q102 0 170 -66t68 -167q0 -89 -68 -197q-37 -59 -131 -168h238v-133zM345 626q0 18 -13 31.5t-31 13.5t-31 -13.5t-13 -31.5t13 -31t31 -13
t31 13t13 31zM410 555q0 18 -13 31t-31 13t-31.5 -13t-13.5 -31t13.5 -31t31.5 -13t31 13t13 31zM248 646q0 18 -13.5 31t-31.5 13t-31 -13t-13 -31t13 -31.5t31 -13.5t31.5 13.5t13.5 31.5zM417 457q0 18 -13 31t-31 13t-31 -13t-13 -31t13 -31t31 -13t31 13t13 31z
M155 609q0 18 -13 31t-31 13t-31 -13t-13 -31t13 -31t31 -13t31 13t13 31zM391 361q0 18 -13 31t-31 13t-31 -13t-13 -31t13 -31t31 -13t31 13t13 31zM342 277q0 18 -13.5 31t-31.5 13t-31 -13t-13 -31t13 -31t31 -13t31.5 13t13.5 31zM440 46q0 18 -13 31t-31 13t-31 -13
t-13 -31t13 -31t31 -13t31 13t13 31zM280 199q0 18 -13 31t-31 13t-31.5 -13t-13.5 -31t13.5 -31t31.5 -13t31 13t13 31zM342 46q0 18 -13 31t-31 13t-31.5 -13t-13.5 -31t13.5 -31t31.5 -13t31 13t13 31zM206 126q0 16 -11.5 27.5t-27.5 11.5t-27.5 -11.5t-11.5 -27.5
t11.5 -28t27.5 -12t27.5 12t11.5 28zM242 41q0 16 -12 27.5t-28 11.5t-27.5 -11.5t-11.5 -27.5t11.5 -28t27.5 -12t28 12t12 28zM154 46q0 18 -13 31t-31 13t-31 -13t-13 -31t13 -31t31 -13t31 13t13 31z" />
    <glyph glyph-name="three" unicode="3" horiz-adv-x="485" 
d="M436 198q0 -101 -66.5 -164t-168.5 -63q-79 0 -170 47v156q103 -70 177 -70q41 0 65.5 24t24.5 65q0 58 -33 79q-27 17 -88 14v131q58 0 79 11q31 17 31 68q0 41 -29 63q-27 19 -69 19q-75 0 -146 -25v136q47 22 161 22q95 0 156 -51q65 -54 65 -147q0 -96 -66 -150
q77 -49 77 -165zM348 617q0 18 -13.5 31t-31.5 13t-31 -13t-13 -31t13 -31t31 -13t31.5 13t13.5 31zM398 533q0 18 -13 31t-31 13t-31 -13t-13 -31t13 -31.5t31 -13.5t31 13.5t13 31.5zM253 647q0 18 -13 31t-31 13t-31 -13t-13 -31t13 -31t31 -13t31 13t13 31zM379 444
q0 14 -10.5 24.5t-24.5 10.5t-24.5 -10.5t-10.5 -24.5t10.5 -24.5t24.5 -10.5t24.5 10.5t10.5 24.5zM155 638q0 18 -13 31t-31 13t-31 -13t-13 -31t13 -31t31 -13t31 13t13 31zM324 389q0 24 -24 24q-25 0 -25 -24t25 -24q24 0 24 24zM355 313q0 16 -11.5 28t-27.5 12
t-27.5 -12t-11.5 -28t11.5 -27.5t27.5 -11.5t27.5 11.5t11.5 27.5zM407 233q0 18 -13 31t-31 13t-31 -13t-13 -31t13 -31.5t31 -13.5t31 13.5t13 31.5zM272 349q0 14 -10.5 24.5t-24.5 10.5t-24.5 -10.5t-10.5 -24.5t10.5 -24.5t24.5 -10.5t24.5 10.5t10.5 24.5zM399 134
q0 18 -13.5 31t-31.5 13t-31 -13t-13 -31t13 -31t31 -13t31.5 13t13.5 31zM331 61q0 18 -13.5 31t-31.5 13t-31 -13t-13 -31t13 -31.5t31 -13.5t31.5 13.5t13.5 31.5zM235 42q0 18 -13.5 31t-31.5 13t-31 -13t-13 -31q0 -19 13 -32t31 -13t31.5 13t13.5 32zM141 68
q0 18 -13.5 31t-31.5 13t-31 -13t-13 -31t13 -31.5t31 -13.5t31.5 13.5t13.5 31.5z" />
    <glyph glyph-name="four" unicode="4" horiz-adv-x="595" 
d="M548 184h-98v-204h-138v204h-289v92l325 435h102v-399h98v-128zM426 642q0 18 -13 31t-31 13t-31.5 -13t-13.5 -31t13.5 -31t31.5 -13t31 13t13 31zM427 540q0 16 -11.5 28t-27.5 12t-28 -12t-12 -28t12 -27.5t28 -11.5t27.5 11.5t11.5 27.5zM343 571q0 14 -9.5 23.5
t-23.5 9.5q-13 0 -22.5 -9.5t-9.5 -23.5q0 -13 9.5 -22.5t22.5 -9.5q14 0 23.5 9.5t9.5 22.5zM426 445q0 18 -13 31t-31 13t-31.5 -13t-13.5 -31t13.5 -31t31.5 -13t31 13t13 31zM304 490q0 17 -12.5 28t-29.5 11t-29.5 -12.5t-12.5 -29.5t12.5 -29.5t29.5 -12.5t29.5 14
t12.5 31zM524 248q0 18 -13 31t-31 13t-31 -13t-13 -31t13 -31t31 -13t31 13t13 31zM426 347q0 18 -13 31t-31 13t-31.5 -13t-13.5 -31t13.5 -31.5t31.5 -13.5t31 13.5t13 31.5zM312 312v142l-108 -142h108zM426 248q0 18 -13 31t-31 13t-31.5 -13t-13.5 -31t13.5 -31
t31.5 -13t31 13t13 31zM241 405q0 18 -12.5 30t-29.5 12t-29.5 -12t-12.5 -30q0 -17 12.5 -29t29.5 -12t29.5 12t12.5 29zM327 248q0 18 -13 31t-31 13t-31 -13t-13 -31t13 -31t31 -13t31 13t13 31zM426 150q0 18 -13 31t-31 13t-31.5 -13t-13.5 -31t13.5 -31.5t31.5 -13.5
t31 13.5t13 31.5zM173 330q0 15 -11 26t-26 11t-26 -11t-11 -26q0 -16 11 -27t26 -11t26 11t11 27zM426 51q0 18 -13 31t-31 13t-31.5 -13t-13.5 -31t13.5 -31t31.5 -13t31 13t13 31zM229 248q0 18 -13 31t-31 13t-31.5 -13t-13.5 -31t13.5 -31t31.5 -13t31 13t13 31z
M130 248q0 18 -13 31t-31 13t-31 -13t-13 -31t13 -31t31 -13t31 13t13 31z" />
    <glyph glyph-name="five" unicode="5" horiz-adv-x="470" 
d="M453 209q0 -105 -69 -171.5t-174 -66.5q-67 0 -185 60v151q115 -78 169 -78q46 0 83.5 29t37.5 74q0 90 -142 90q-11 0 -47 -11l-50 -14v430h338v-128h-209v-150q21 1 38 1q97 0 153.5 -59t56.5 -157zM382 641q0 18 -13.5 31.5t-31.5 13.5t-31 -13.5t-13 -31.5t13 -31
t31 -13t31.5 13t13.5 31zM283 641q0 18 -13 31.5t-31 13.5t-31 -13.5t-13 -31.5t13 -31t31 -13t31 13t13 31zM185 641q0 18 -13.5 31.5t-31.5 13.5t-31 -13.5t-13 -31.5t13 -31t31 -13t31.5 13t13.5 31zM185 543q0 18 -13.5 31t-31.5 13t-31 -13t-13 -31t13 -31t31 -13
t31.5 13t13.5 31zM380 322q0 18 -13 31t-31 13t-31 -13t-13 -31t13 -31t31 -13t31 13t13 31zM425 229q0 18 -13 31t-31 13t-31.5 -13t-13.5 -31t13.5 -31t31.5 -13t31 13t13 31zM284 355q0 18 -13 31t-31 13t-31.5 -13t-13.5 -31t13.5 -31.5t31.5 -13.5t31 13.5t13 31.5z
M185 444q0 18 -13.5 31.5t-31.5 13.5t-31 -13.5t-13 -31.5t13 -31t31 -13t31.5 13t13.5 31zM407 129q0 18 -13 31t-31 13t-31 -13t-13 -31t13 -31t31 -13t31 13t13 31zM185 346q0 18 -13.5 31t-31.5 13t-31 -13t-13 -31t13 -31t31 -13t31.5 13t13.5 31zM333 62q0 18 -13 31
t-31 13t-31 -13t-13 -31t13 -31t31 -13t31 13t13 31zM235 43q0 18 -13 31t-31 13t-31 -13t-13 -31t13 -31.5t31 -13.5t31 13.5t13 31.5zM139 69q0 18 -13 31t-31 13t-31 -13t-13 -31q0 -19 13 -32t31 -13t31 13.5t13 31.5z" />
    <glyph glyph-name="six" unicode="6" horiz-adv-x="526" 
d="M492 195q0 -91 -65 -157.5t-156 -66.5q-111 0 -177 77q-63 73 -63 185q0 286 318 500l85 -108q-165 -95 -225 -223q36 12 72 12q92 0 151.5 -63.5t59.5 -155.5zM379 638q0 18 -13 31t-31 13t-31.5 -13t-13.5 -31t13.5 -31t31.5 -13t31 13t13 31zM300 585q0 18 -13.5 31
t-31.5 13t-31 -13t-13 -31t13 -31t31 -13t31.5 13t13.5 31zM235 512q0 18 -13 31t-31 13t-31 -13t-13 -31t13 -31.5t31 -13.5t31 13.5t13 31.5zM393 332q0 18 -13 31t-31 13t-31 -13t-13 -31t13 -31.5t31 -13.5t31 13.5t13 31.5zM458 258q0 18 -13.5 31t-31.5 13t-31 -13
t-13 -31t13 -31t32 -13q18 0 31 13t13 31zM296 354q0 14 -10 24.5t-25 10.5q-14 0 -24.5 -10.5t-10.5 -24.5t10.5 -24.5t24.5 -10.5q15 0 25 10.5t10 24.5zM467 160q0 18 -13 31t-32 13q-18 0 -31 -13t-13 -31t13.5 -31t31.5 -13t31 13t13 31zM187 423q0 18 -13 31.5
t-31 13.5t-31 -13t-13 -31t13 -31.5t31 -13.5t31 13t13 31zM221 328q0 12 -9.5 21.5t-21.5 9.5q-13 0 -22 -9.5t-9 -21.5q0 -13 9 -22t22 -9q12 0 21.5 9t9.5 22zM354 196q0 38 -27 61.5t-66 23.5q-44 0 -90 -28q-4 -19 -4 -36q0 -45 27 -79t71 -34q41 0 65 25.5t24 66.5z
M414 77q0 18 -13 31t-31 13t-31 -13t-13 -31t13 -31t31 -13t31 13t13 31zM149 332q0 18 -13 31t-31 13t-31 -13t-13 -31t13 -31t31 -13t31 13t13 31zM142 234q0 18 -13 31t-31 13t-31.5 -13t-13.5 -31t13.5 -31.5t31.5 -13.5t31 13.5t13 31.5zM322 39q0 18 -13 31.5
t-31 13.5t-31.5 -13t-13.5 -32q0 -18 13.5 -31t31.5 -13t31 13t13 31zM161 135q0 18 -13.5 31t-31.5 13t-31 -13t-13 -31t13 -31t31 -13t31.5 13t13.5 31zM225 62q0 18 -13 31t-31 13t-31 -13t-13 -31t13 -31t31 -13t31 13t13 31z" />
    <glyph glyph-name="seven" unicode="7" horiz-adv-x="567" 
d="M574 702l-410 -739l-124 55l310 551h-341v133h565zM509 647q0 19 -13 32t-31 13t-31 -13t-13 -31t13 -31.5t31 -13.5t31 13t13 31zM410 651q0 16 -12 27.5t-28 11.5t-27.5 -11.5t-11.5 -27.5t11.5 -28t27.5 -12t28 12t12 28zM463 562q0 16 -12 28t-28 12t-27.5 -12
t-11.5 -28t11.5 -27.5t27.5 -11.5t28 11.5t12 27.5zM321 644q0 18 -13.5 31t-31.5 13t-31 -13t-13 -31t13 -31t31 -13t31.5 13t13.5 31zM418 482q0 18 -13 31.5t-31 13.5t-31 -13t-13 -31t13 -31.5t31 -13.5t31 13t13 31zM222 644q0 18 -13 31t-31 13t-31.5 -13t-13.5 -31
t13.5 -31t31.5 -13t31 13t13 31zM371 396q0 18 -13.5 31.5t-31.5 13.5t-31 -13.5t-13 -31.5t13 -31t31 -13t31.5 13t13.5 31zM123 644q0 18 -13 31t-31 13t-31 -13t-13 -31t13 -31t31 -13t31 13t13 31zM323 310q0 18 -13 31t-31 13t-31.5 -13t-13.5 -31t13.5 -31t31.5 -13
t31 13t13 31zM275 224q0 18 -13 31t-31 13t-31 -13t-13 -31t13 -31t31 -13t31 13t13 31zM227 138q0 18 -13 31t-31 13t-31 -13t-13 -31t13 -31t31 -13t31 13t13 31zM180 52q0 18 -13.5 31t-31.5 13t-31 -13t-13 -31t13 -31t31 -13t31.5 13t13.5 31z" />
    <glyph glyph-name="eight" unicode="8" horiz-adv-x="563" 
d="M510 188q0 -94 -72 -155q-68 -58 -164 -58q-97 0 -166 58q-74 61 -74 156q0 103 83 165q-67 60 -67 145q0 95 67 155.5t162 60.5q94 0 157.5 -62t63.5 -156q0 -85 -69 -143q79 -57 79 -166zM412 618q0 18 -13.5 31t-31.5 13t-31 -13t-13 -31t13 -31t31 -13t31.5 13
t13.5 31zM471 539q0 18 -13 31t-31 13t-31.5 -13t-13.5 -31t13.5 -31t31.5 -13t31 13t13 31zM318 650q0 18 -13 31t-31 13t-31 -13.5t-13 -31.5t13 -31t31 -13t31 13.5t13 31.5zM461 440q0 18 -13.5 31.5t-31.5 13.5t-31 -13.5t-13 -31.5t13 -31t31 -13t31.5 13t13.5 31z
M225 618q0 18 -13 31t-31 13t-31 -13t-13 -31t13 -31t31 -13t31 13t13 31zM362 499q0 36 -24 59.5t-61 23.5q-39 0 -64 -21t-25 -60q0 -34 26.5 -59t60.5 -25q35 0 61 24t26 58zM380 386q0 12 -9 21t-21 9q-13 0 -22 -9t-9 -21q0 -13 9 -22t22 -9q12 0 21 9t9 22zM425 312
q0 16 -11.5 27.5t-27.5 11.5t-27.5 -11.5t-11.5 -27.5t11.5 -27.5t27.5 -11.5t27.5 11.5t11.5 27.5zM486 233q0 18 -13.5 31t-31.5 13t-31 -13t-13 -31t13 -31t31 -13t31.5 13t13.5 31zM166 539q0 18 -13 31t-31 13t-31.5 -13t-13.5 -31t13.5 -31t31.5 -13t31 13t13 31z
M313 342q0 16 -11.5 28t-27.5 12t-27.5 -12t-11.5 -28t11.5 -27.5t27.5 -11.5t27.5 11.5t11.5 27.5zM229 386q0 12 -9 21t-21 9q-13 0 -22 -9t-9 -21q0 -13 9 -22t22 -9q12 0 21 9t9 22zM176 440q0 18 -13 31t-31 13t-31 -13t-13 -31t13 -31t31 -13t31 13t13 31zM482 135
q0 18 -13.5 31t-31.5 13t-31 -13t-13 -31t13 -31.5t31 -13.5t31.5 13.5t13.5 31.5zM202 312q0 16 -11.5 27.5t-27.5 11.5t-28 -11.5t-12 -27.5t12 -27.5t28 -11.5t27.5 11.5t11.5 27.5zM372 196q0 41 -28 64.5t-70 23.5q-43 0 -71 -22q-31 -24 -31 -66q0 -41 29 -64.5
t71 -23.5q43 0 71.5 23t28.5 65zM415 62q0 18 -13 31.5t-31 13.5t-31.5 -13t-13.5 -31t13.5 -31.5t31.5 -13.5t31 13t13 31zM151 233q0 18 -13 31t-31 13t-31 -13t-13 -31t13 -31t31 -13t31 13t13 31zM318 43q0 18 -13 31t-31 13t-31 -13t-13 -32q0 -18 13 -31t31 -13
t31 13.5t13 31.5zM155 135q0 18 -13 31t-31 13t-31 -13.5t-13 -31.5t13 -31t31 -13t31 13.5t13 31.5zM222 62q0 18 -13 31.5t-31 13.5t-31 -13.5t-13 -31.5t13 -31t31 -13t31 13t13 31z" />
    <glyph glyph-name="nine" unicode="9" horiz-adv-x="542" 
d="M489 455q0 -286 -318 -500l-85 108q165 95 225 223q-36 -12 -72 -12q-92 0 -151.5 63.5t-59.5 155.5q0 91 65 157.5t156 66.5q111 0 177 -77q63 -73 63 -185zM383 626q0 18 -13 31t-31 13t-31 -13t-13 -31t13 -31t31 -13t31 13t13 31zM448 553q0 18 -13 31t-31 13
t-31.5 -13t-13.5 -31t13.5 -31t31.5 -13t31 13t13 31zM287 648q0 18 -13.5 31.5t-31.5 13.5t-31 -13t-13 -31t13 -31.5t31 -13.5t31.5 13t13.5 31zM467 454q0 18 -13.5 31.5t-31.5 13.5t-31 -13.5t-13 -31.5t13 -31t31 -13t31.5 13t13.5 31zM459 356q0 18 -13 31t-31 13
t-31 -13t-13 -31t13 -31t31 -13t31 13t13 31zM194 611q0 18 -13 31t-31 13t-31 -13t-13 -31t13 -31t31 -13t31 13t13 31zM353 471q0 45 -27 79t-71 34q-41 0 -65 -25.5t-24 -66.5q0 -38 27 -61.5t66 -23.5q44 0 90 28q4 19 4 36zM361 360q0 13 -9 22t-22 9q-12 0 -21.5 -9
t-9.5 -22q0 -12 9.5 -21.5t21.5 -9.5q13 0 22 9.5t9 21.5zM421 264q0 18 -13 31.5t-31 13.5t-31 -13t-13 -31t13 -31.5t31 -13.5t31 13t13 31zM142 528q0 18 -13.5 31t-31.5 13t-31 -13t-13 -31t13 -31t32 -13q18 0 31 13t13 31zM294 334q0 14 -10.5 24.5t-24.5 10.5
q-15 0 -25 -10.5t-10 -24.5t10 -24.5t25 -10.5q14 0 24.5 10.5t10.5 24.5zM151 430q0 18 -13 31t-32 13q-18 0 -31 -13t-13 -31t13.5 -31t31.5 -13t31 13t13 31zM215 356q0 18 -13 31.5t-31 13.5t-31 -13.5t-13 -31.5t13 -31t31 -13t31 13t13 31zM373 176q0 18 -13 31
t-31 13t-31 -13t-13 -31t13 -31t31 -13t31 13t13 31zM309 103q0 18 -13 31t-31 13t-31.5 -13t-13.5 -31t13.5 -31t31.5 -13t31 13t13 31zM230 50q0 18 -13.5 31t-31.5 13t-31 -13t-13 -31t13 -31t31 -13t31.5 13t13.5 31z" />
    <glyph glyph-name="colon" unicode=":" horiz-adv-x="257" 
d="M206 52q0 -33 -23.5 -56.5t-56.5 -23.5t-56.5 23.5t-23.5 56.5t23.5 56.5t56.5 23.5t56.5 -23.5t23.5 -56.5zM170 52q0 18 -13 31.5t-31 13.5t-31 -13.5t-13 -31.5t13 -31t31 -13t31 13t13 31zM206 400q0 -33 -23.5 -56.5t-56.5 -23.5t-56.5 23.5t-23.5 56.5t23.5 56.5
t56.5 23.5t56.5 -23.5t23.5 -56.5zM170 400q0 18 -13 31.5t-31 13.5t-31 -13.5t-13 -31.5t13 -31t31 -13t31 13t13 31z" />
    <glyph glyph-name="semicolon" unicode=";" horiz-adv-x="271" 
d="M216 36q0 -65 -48 -111q-41 -40 -109 -60v67q40 26 39 63v7q-52 12 -52 74q0 33 23 55t56 22q45 0 70 -37q21 -33 21 -80zM174 73q0 20 -14.5 34.5t-33.5 14.5q-20 0 -34.5 -14.5t-14.5 -34.5q0 -19 14.5 -33.5t33.5 -14.5q20 0 34.5 14.5t14.5 33.5zM179 -16
q0 12 -9 21.5t-22 9.5q-12 0 -21.5 -9.5t-9.5 -21.5q0 -13 9.5 -22t21.5 -9q13 0 22 9t9 22zM137 -72q0 24 -24 24t-24 -24t24 -24t24 24zM206 400q0 -33 -23.5 -56.5t-56.5 -23.5t-56.5 23.5t-23.5 56.5t23.5 56.5t56.5 23.5t56.5 -23.5t23.5 -56.5zM170 400q0 18 -13 31.5
t-31 13.5t-31 -13.5t-13 -31.5t13 -31t31 -13t31 13t13 31z" />
    <glyph glyph-name="less" unicode="&#x3c;" horiz-adv-x="469" 
d="M487 -116h-148l-305 461l305 467h148l-306 -467zM414 744q0 18 -12.5 30.5t-30.5 12.5q-17 0 -30 -12.5t-13 -30.5t13 -30.5t30 -12.5q18 0 30.5 12.5t12.5 30.5zM362 664q0 18 -13 30.5t-30 12.5q-18 0 -31 -12.5t-13 -30.5q0 -17 13 -30t31 -13q17 0 30 13t13 30z
M309 584q0 18 -12.5 31t-30.5 13t-30.5 -13t-12.5 -31q0 -17 12.5 -30t30.5 -13t30.5 13t12.5 30zM257 504q0 18 -13 31t-31 13q-17 0 -30 -13t-13 -31q0 -17 13 -30t30 -13q18 0 31 13t13 30zM204 425q0 17 -13 30t-30 13q-18 0 -30.5 -13t-12.5 -30q0 -18 12.5 -31
t30.5 -13q17 0 30 13t13 31zM152 345q0 17 -13 30t-31 13q-17 0 -30 -13t-13 -30q0 -18 13 -30.5t30 -12.5q18 0 31 12.5t13 30.5zM204 265q0 18 -13 30.5t-30 12.5q-18 0 -30.5 -12.5t-12.5 -30.5t12.5 -30.5t30.5 -12.5q17 0 30 12.5t13 30.5zM257 185q0 18 -13 30.5
t-31 12.5q-17 0 -30 -12.5t-13 -30.5t13 -30.5t30 -12.5q18 0 31 12.5t13 30.5zM309 105q0 18 -12.5 31t-30.5 13t-30.5 -13t-12.5 -31q0 -17 12.5 -30t30.5 -13t30.5 13t12.5 30zM362 25q0 18 -13 31t-30 13q-18 0 -31 -13t-13 -31q0 -17 13 -30t31 -13q17 0 30 13t13 30z
M414 -54q0 17 -12.5 30t-30.5 13q-17 0 -30 -13t-13 -30q0 -18 13 -31t30 -13q18 0 30.5 13t12.5 31z" />
    <glyph glyph-name="equal" unicode="=" horiz-adv-x="610" 
d="M579 400h-534v133h534v-133zM579 178h-534v133h534v-133zM555 468q0 18 -13 31t-31 13t-31.5 -13t-13.5 -31t13.5 -31.5t31.5 -13.5t31 13.5t13 31.5zM456 468q0 18 -13 31t-31 13t-31 -13t-13 -31t13 -31.5t31 -13.5t31 13.5t13 31.5zM358 468q0 18 -13 31t-31 13
t-31.5 -13t-13.5 -31t13.5 -31.5t31.5 -13.5t31 13.5t13 31.5zM555 246q0 18 -13 31t-31 13t-31.5 -13t-13.5 -31t13.5 -31t31.5 -13t31 13t13 31zM259 468q0 18 -13 31t-31 13t-31 -13t-13 -31t13 -31.5t31 -13.5t31 13.5t13 31.5zM456 246q0 18 -13 31t-31 13t-31 -13
t-13 -31t13 -31t31 -13t31 13t13 31zM161 468q0 18 -13 31t-31 13t-31.5 -13t-13.5 -31t13.5 -31.5t31.5 -13.5t31 13.5t13 31.5zM358 246q0 18 -13 31t-31 13t-31.5 -13t-13.5 -31t13.5 -31t31.5 -13t31 13t13 31zM259 246q0 18 -13 31t-31 13t-31 -13t-13 -31t13 -31
t31 -13t31 13t13 31zM161 246q0 18 -13 31t-31 13t-31.5 -13t-13.5 -31t13.5 -31t31.5 -13t31 13t13 31z" />
    <glyph glyph-name="greater" unicode="&#x3e;" horiz-adv-x="469" 
d="M-8 -116h148l305 461l-305 467h-148l306 -467zM65 744q0 18 13 30.5t30 12.5q18 0 31 -12.5t13 -30.5t-13 -30.5t-31 -12.5q-17 0 -30 12.5t-13 30.5zM118 664q0 18 12.5 30.5t30.5 12.5q17 0 30 -12.5t13 -30.5q0 -17 -13 -30t-30 -13q-18 0 -30.5 13t-12.5 30zM170 584
q0 18 13 31t30 13q18 0 31 -13t13 -31q0 -17 -13 -30t-31 -13q-17 0 -30 13t-13 30zM223 504q0 18 12.5 31t30.5 13t30.5 -13t12.5 -31q0 -17 -12.5 -30t-30.5 -13t-30.5 13t-12.5 30zM275 425q0 17 13 30t31 13q17 0 30 -13t13 -30q0 -18 -13 -31t-30 -13q-18 0 -31 13
t-13 31zM328 345q0 17 12.5 30t30.5 13t30.5 -13t12.5 -30q0 -18 -12.5 -30.5t-30.5 -12.5q-17 0 -30 12.5t-13 30.5zM275 265q0 18 13 30.5t31 12.5q17 0 30 -12.5t13 -30.5t-13 -30.5t-30 -12.5q-18 0 -31 12.5t-13 30.5zM223 185q0 18 12.5 30.5t30.5 12.5t30.5 -12.5
t12.5 -30.5t-12.5 -30.5t-30.5 -12.5t-30.5 12.5t-12.5 30.5zM170 105q0 18 13 31t30 13q18 0 31 -13t13 -31q0 -17 -13 -30t-31 -13q-17 0 -30 13t-13 30zM118 25q0 18 12.5 31t30.5 13q17 0 30 -13t13 -31q0 -17 -13 -30t-30 -13q-18 0 -30.5 13t-12.5 30zM65 -54
q0 17 13 30t30 13q18 0 31 -13t13 -30q0 -18 -13 -31t-31 -13q-17 0 -30 13t-13 31z" />
    <glyph glyph-name="question" unicode="?" horiz-adv-x="331" 
d="M362 547q0 -76 -51 -148l-92 -122q-48 -79 -45 -174q-91 59 -91 144q0 55 36 116q2 3 68 94q36 51 36 82q0 44 -52 44q-31 0 -76 -12q-38 -10 -75 -21v139q95 28 151 28q77 0 132 -46q59 -49 59 -124zM224 47q0 -33 -23.5 -56.5t-56.5 -23.5t-56.5 23.5t-23.5 56.5
t23.5 56.5t56.5 23.5t56.5 -23.5t23.5 -56.5zM319 603q0 18 -13 31t-31 13t-31 -13t-13 -31t13 -31t31 -13t31 13t13 31zM232 648q0 18 -13.5 31t-30.5 13q-18 0 -31.5 -13t-13.5 -31t13.5 -31.5t30.5 -13.5q18 0 31.5 13.5t13.5 31.5zM336 508q0 17 -13 30.5t-31 13.5
t-31 -13.5t-13 -30.5q0 -18 13 -31.5t31 -13.5t31 13.5t13 31.5zM133 637q0 18 -13.5 31t-31.5 13q-17 0 -30.5 -13t-13.5 -31t13 -31t31 -13t31.5 13t13.5 31zM292 420q0 18 -13 31t-31 13t-31 -13t-13 -31t13 -31t31 -13t31 13t13 31zM232 345q0 16 -11.5 27.5t-27.5 11.5
t-27.5 -11.5t-11.5 -27.5t11.5 -28t27.5 -12t27.5 12t11.5 28zM181 275q0 14 -10.5 24.5t-23.5 10.5q-14 0 -24.5 -10.5t-10.5 -24.5t10.5 -24t24.5 -10q13 0 23.5 10t10.5 24zM161 205q0 26 -26 26q-27 0 -27 -26t26 -26q27 0 27 26zM187 47q0 18 -13 31.5t-31 13.5
t-31 -13.5t-13 -31.5t13 -31t31 -13t31 13t13 31z" />
    <glyph glyph-name="at" unicode="@" horiz-adv-x="939" 
d="M938 64q-79 -131 -183 -192t-254 -61q-210 0 -336 103q-135 112 -135 318q0 207 129.5 341t335.5 134q170 0 281 -98q116 -102 116 -270q0 -126 -77 -231q-84 -114 -206 -114q-73 0 -103 47q-55 -46 -117 -46q-89 0 -143 72q-48 65 -48 157q0 111 73 206q78 102 185 102
q68 0 117 -44l7 31h114q-75 64 -203 64q-148 0 -241.5 -97.5t-93.5 -246.5q0 -155 98 -233q89 -70 248 -70q196 0 286 128h150zM802 528q0 16 -11.5 27.5t-26.5 11.5q-16 0 -27.5 -11.5t-11.5 -26.5q0 -16 11.5 -27.5t26.5 -11.5q16 0 27.5 11.5t11.5 26.5zM737 585
q0 16 -11 27.5t-27 11.5q-15 0 -26.5 -11.5t-11.5 -26.5q0 -16 11 -27.5t27 -11.5t27 11.5t11 26.5zM843 452q0 15 -11 26.5t-27 11.5t-27 -11t-11 -27t11 -27t27 -11q15 0 26.5 11t11.5 27zM659 620q0 16 -11 27.5t-27 11.5t-27.5 -11.5t-11.5 -26.5q0 -16 11.5 -27.5
t27.5 -11.5q15 0 26.5 11.5t11.5 26.5zM866 369q0 16 -11 27t-27 11t-27 -11t-11 -27q0 -15 11 -26.5t27 -11.5q15 0 26.5 11t11.5 27zM573 637q0 16 -11 27.5t-27 11.5t-27 -11.5t-11 -26.5q0 -16 11 -27.5t27 -11.5q15 0 26.5 11.5t11.5 26.5zM862 283q0 16 -11.5 27
t-27.5 11q-15 0 -26.5 -11t-11.5 -27q0 -15 11.5 -26.5t26.5 -11.5q16 0 27.5 11t11.5 27zM486 637q0 16 -11.5 27.5t-26.5 11.5q-16 0 -27.5 -11.5t-11.5 -26.5q0 -16 11.5 -27.5t26.5 -11.5q16 0 27.5 11.5t11.5 26.5zM667 443q0 15 -11.5 26.5t-26.5 11.5
q-16 0 -27.5 -11.5t-11.5 -26.5q0 -16 11.5 -27.5t26.5 -11.5q16 0 27.5 11.5t11.5 27.5zM766 340q0 104 -50 159q-23 -95 -47 -190q-32 -136 -32 -179l1 -4q14 1 42 22q86 63 86 192zM829 202q0 15 -11 26.5t-27 11.5q-15 0 -26.5 -11t-11.5 -27t11 -27.5t27 -11.5t27 11.5
t11 27.5zM398 625q0 16 -11 27.5t-27 11.5t-27 -11.5t-11 -27.5q0 -15 11 -26.5t27 -11.5q15 0 26.5 11t11.5 27zM585 415q0 27 -27 27q-26 0 -26 -26q0 -27 26 -27q27 0 27 26zM645 360q0 15 -11 26.5t-27 11.5t-27 -11t-11 -27t11 -27t27 -11q15 0 26.5 11t11.5 27z
M531 453q0 27 -26 27q-27 0 -27 -27q0 -26 26 -26q27 0 27 26zM468 462q0 30 -30 30t-30 -30t30 -30t30 30zM782 128q0 16 -11.5 27t-26.5 11q-16 0 -27.5 -11t-11.5 -27q0 -15 11.5 -26.5t26.5 -11.5q16 0 27.5 11t11.5 27zM318 590q0 15 -11 26.5t-27 11.5
q-15 0 -26.5 -11t-11.5 -27t11 -27t27 -11t27 11t11 27zM624 277q0 15 -11.5 26.5t-26.5 11.5q-16 0 -27.5 -11t-11.5 -27t11.5 -27t26.5 -11q16 0 27.5 11t11.5 27zM851 -1q0 16 -11 27.5t-27 11.5t-27.5 -11.5t-11.5 -26.5q0 -16 11.5 -27.5t27.5 -11.5q15 0 26.5 11.5
t11.5 26.5zM404 431q0 14 -10 24t-23 10q-14 0 -24.5 -10t-10.5 -24t10 -24t24 -10t24 10t10 24zM602 194q0 16 -11 27t-27 11q-15 0 -26.5 -11t-11.5 -27q0 -15 11 -26.5t27 -11.5t27 11t11 27zM710 79q0 16 -11.5 27t-26.5 11q-16 0 -27.5 -11t-11.5 -27q0 -15 11.5 -26.5
t26.5 -11.5q16 0 27.5 11t11.5 27zM251 535q0 15 -11.5 26.5t-26.5 11.5q-16 0 -27.5 -11t-11.5 -27t11.5 -27.5t26.5 -11.5q16 0 27.5 11.5t11.5 27.5zM533 310q0 98 -71 98q-54 0 -91 -71q-31 -60 -31 -119q0 -38 14 -65q18 -33 53 -33q53 0 93 71q33 61 33 119zM787 -59
q0 16 -11.5 27.5t-26.5 11.5q-16 0 -27.5 -11.5t-11.5 -27.5q0 -15 11.5 -26.5t26.5 -11.5q16 0 27.5 11t11.5 27zM352 369q0 16 -11 27.5t-27 11.5q-15 0 -26.5 -11.5t-11.5 -26.5q0 -16 11 -27.5t27 -11.5t27 11.5t11 26.5zM621 74q0 16 -11.5 27.5t-26.5 11.5
q-16 0 -27.5 -11.5t-11.5 -26.5q0 -16 11.5 -27.5t26.5 -11.5q16 0 27.5 11.5t11.5 26.5zM551 124q0 14 -10 24t-24 10t-24 -9.5t-10 -23.5t10 -24t24 -10t24 9.5t10 23.5zM194 469q0 15 -11 26.5t-27 11.5t-27 -11t-11 -27t11 -27.5t27 -11.5q15 0 26.5 11.5t11.5 27.5z
M708 -97q0 15 -11 26.5t-27 11.5q-15 0 -26.5 -11t-11.5 -27t11 -27t27 -11t27 11t11 27zM314 292q0 16 -11 27.5t-27 11.5t-27.5 -11.5t-11.5 -26.5q0 -16 11.5 -27.5t27.5 -11.5q15 0 26.5 11.5t11.5 26.5zM486 79q0 16 -11.5 27.5t-26.5 11.5q-16 0 -27.5 -11.5
t-11.5 -26.5q0 -16 11.5 -27.5t26.5 -11.5q16 0 27.5 11.5t11.5 26.5zM159 390q0 16 -11.5 27.5t-26.5 11.5q-16 0 -27.5 -11.5t-11.5 -26.5q0 -16 11.5 -27.5t26.5 -11.5q16 0 27.5 11.5t11.5 26.5zM306 207q0 15 -11 26.5t-27 11.5q-15 0 -26.5 -11t-11.5 -27t11 -27.5
t27 -11.5t27 11.5t11 27.5zM624 -119q0 16 -11 27.5t-27 11.5t-27.5 -11.5t-11.5 -26.5q0 -16 11.5 -27.5t27.5 -11.5q15 0 26.5 11.5t11.5 26.5zM398 68q0 16 -11 27.5t-27 11.5q-15 0 -26.5 -11.5t-11.5 -26.5q0 -16 11 -27.5t27 -11.5t27 11.5t11 26.5zM331 122
q0 16 -11.5 27.5t-26.5 11.5q-16 0 -27.5 -11.5t-11.5 -26.5q0 -16 11.5 -27.5t26.5 -11.5q16 0 27.5 11.5t11.5 26.5zM137 306q0 16 -11 27t-27 11q-15 0 -26.5 -11t-11.5 -27q0 -15 11 -26.5t27 -11.5t27 11t11 27zM537 -127q0 15 -11 26.5t-27 11.5q-15 0 -26.5 -11
t-11.5 -27q0 -15 11 -26.5t27 -11.5q15 0 26.5 11t11.5 27zM131 219q0 16 -11 27.5t-27 11.5t-27 -11.5t-11 -27.5q0 -15 11 -26.5t27 -11.5q15 0 26.5 11t11.5 27zM451 -123q0 16 -11 27.5t-27 11.5q-15 0 -26.5 -11.5t-11.5 -26.5q0 -16 11 -27.5t27 -11.5t27 11.5
t11 26.5zM142 133q0 16 -11.5 27.5t-26.5 11.5q-16 0 -27.5 -11.5t-11.5 -27.5q0 -15 11.5 -26.5t26.5 -11.5q16 0 27.5 11t11.5 27zM369 -106q0 15 -11.5 26.5t-26.5 11.5q-16 0 -27.5 -11t-11.5 -27t11.5 -27t26.5 -11q16 0 27.5 11t11.5 27zM174 53q0 16 -11 27.5
t-27 11.5t-27.5 -11.5t-11.5 -26.5q0 -16 11.5 -27.5t27.5 -11.5q15 0 26.5 11.5t11.5 26.5zM290 -68q0 16 -11.5 27.5t-26.5 11.5q-16 0 -27.5 -11.5t-11.5 -27.5q0 -15 11.5 -26.5t26.5 -11.5q16 0 27.5 11t11.5 27zM225 -17q0 15 -11.5 26.5t-26.5 11.5q-16 0 -27.5 -11
t-11.5 -27t11.5 -27t26.5 -11q16 0 27.5 11t11.5 27z" />
    <glyph glyph-name="A" unicode="A" horiz-adv-x="728" 
d="M723 -20h-144l-77 171h-291l-73 -171h-143l310 726h95zM401 643q0 18 -13 31t-31 13t-31.5 -13t-13.5 -31t13.5 -31t31.5 -13t31 13t13 31zM441 560q0 17 -11.5 29t-27.5 12q-17 0 -29 -11.5t-12 -28.5q0 -16 11.5 -28t28.5 -12q16 0 28 11.5t12 27.5zM479 476
q0 17 -12.5 29.5t-29.5 12.5t-30 -12t-13 -29t12.5 -30t29.5 -13t30 12t13 30zM352 561q0 17 -12 28.5t-28 11.5t-27.5 -12t-11.5 -29q0 -16 12 -27.5t28 -11.5t27.5 12t11.5 28zM516 389q0 17 -12.5 29.5t-29.5 12.5t-30 -12t-13 -29q0 -18 12.5 -30.5t29.5 -12.5t30 12
t13 30zM553 301q0 18 -12.5 30.5t-29.5 12.5t-30 -12t-13 -29t12 -30t29 -13q18 0 31 12t13 29zM590 214q0 17 -12.5 30t-29.5 13t-30 -12t-13 -29q0 -18 12 -30.5t30 -12.5q17 0 30 12t13 29zM319 477q0 17 -12.5 29t-30.5 12q-17 0 -29 -12.5t-12 -29.5q0 -18 12.5 -30
t30.5 -12q17 0 29 12.5t12 30.5zM444 279l-92 206l-86 -206h178zM625 128q0 17 -12 30t-30 13q-17 0 -29.5 -12.5t-12.5 -29.5t12 -30t29 -13t30 12.5t13 29.5zM496 216q0 18 -13 31t-30 13q-18 0 -31 -13t-13 -31q0 -17 13 -30t31 -13q17 0 30 13t13 30zM663 41
q0 17 -12 30t-29 13t-30 -12t-13 -30q0 -17 12 -30t30 -13q17 0 29.5 12.5t12.5 29.5zM282 389q0 18 -12.5 30t-30.5 12q-17 0 -29 -12.5t-12 -30.5q0 -17 12.5 -29t30.5 -12q17 0 29 12.5t12 29.5zM400 216q0 18 -12.5 31t-30.5 13t-30.5 -13t-12.5 -31q0 -17 12.5 -30
t30.5 -13t30.5 13t12.5 30zM245 303q0 17 -12.5 29t-30.5 12q-17 0 -29 -13t-12 -30t13 -29t30 -12t29 12.5t12 30.5zM305 216q0 18 -13 31t-31 13q-17 0 -30 -13t-13 -31q0 -17 13 -30t30 -13q18 0 31 13t13 30zM209 216q0 17 -13 29t-30 12q-18 0 -30 -13t-12 -30t13 -29
t30 -12t29.5 12.5t12.5 30.5zM173 129q0 17 -13 29.5t-30 12.5t-29.5 -13t-12.5 -30t13 -29.5t30 -12.5q18 0 30 13t12 30zM135 43q0 17 -13 29t-30 12t-29.5 -13t-12.5 -30t13 -29.5t30 -12.5t29.5 13t12.5 31z" />
    <glyph glyph-name="B" unicode="B" horiz-adv-x="599" 
d="M577 182q0 -99 -80 -154q-71 -48 -174 -48h-284v722h218q96 0 159 -48q71 -53 71 -146q0 -96 -51 -138q65 -22 103 -71t38 -117zM435 583q0 18 -13.5 31t-31.5 13t-31 -13t-13 -31t13 -31t31 -13t31.5 13t13.5 31zM348 632q0 18 -13.5 31t-31.5 13t-31 -13t-13 -31
t13 -31.5t31 -13.5t31.5 13.5t13.5 31.5zM458 492q0 16 -11.5 27.5t-27.5 11.5q-17 0 -28.5 -11.5t-11.5 -27.5t11.5 -27.5t28.5 -11.5q16 0 27.5 11.5t11.5 27.5zM250 639q0 18 -13 31t-31 13t-31.5 -13t-13.5 -31t13.5 -31.5t31.5 -13.5t31 13.5t13 31.5zM416 412
q0 16 -11.5 28t-27.5 12t-28 -12t-12 -28t12 -27.5t28 -11.5t27.5 11.5t11.5 27.5zM503 289q0 34 -25 34q-15 0 -30 -10t-15 -24q0 -15 10.5 -25t24.5 -10t24.5 10t10.5 25zM346 499q0 75 -99 75h-70v-164h45q124 0 124 89zM151 639q0 18 -13 31t-31 13t-31 -13t-13 -31
t13 -31.5t31 -13.5t31 13.5t13 31.5zM432 327q0 15 -10.5 25t-24.5 10t-24.5 -10t-10.5 -25q0 -14 10.5 -24t24.5 -10t24.5 10t10.5 24zM543 209q0 16 -12 28t-28 12t-27.5 -12t-11.5 -28t11.5 -27.5t27.5 -11.5t28 11.5t12 27.5zM351 346q0 18 -13 31t-31 13t-31 -13
t-13 -31t13 -31.5t31 -13.5t31 13.5t13 31.5zM151 540q0 18 -13 31t-31 13t-31 -13t-13 -31t13 -31t31 -13t31 13t13 31zM527 117q0 18 -13.5 31t-31.5 13t-31 -13t-13 -31t13 -31t31 -13t31.5 13t13.5 31zM250 343q0 18 -13 31t-31 13t-31.5 -13t-13.5 -31t13.5 -31
t31.5 -13t31 13t13 31zM151 442q0 18 -13 31t-31 13t-31 -13t-13 -31t13 -31.5t31 -13.5t31 13.5t13 31.5zM436 196q0 86 -131 86h-128v-174h133q126 0 126 88zM447 56q0 18 -13 31t-31 13t-31.5 -13t-13.5 -31t13.5 -31t31.5 -13t31 13t13 31zM151 343q0 18 -13 31t-31 13
t-31 -13t-13 -31t13 -31t31 -13t31 13t13 31zM151 245q0 18 -13 31t-31 13t-31 -13t-13 -31t13 -31.5t31 -13.5t31 13.5t13 31.5zM348 48q0 18 -13 31t-31 13t-31 -13t-13 -31t13 -31.5t31 -13.5t31 13.5t13 31.5zM151 146q0 18 -13 31t-31 13t-31 -13t-13 -31t13 -31
t31 -13t31 13t13 31zM250 48q0 18 -13 31t-31 13t-31.5 -13t-13.5 -31t13.5 -31.5t31.5 -13.5t31 13.5t13 31.5zM151 48q0 18 -13 31t-31 13t-31 -13t-13 -31t13 -31.5t31 -13.5t31 13.5t13 31.5z" />
    <glyph glyph-name="C" unicode="C" horiz-adv-x="671" 
d="M660 44q-139 -73 -267 -73q-160 0 -272 99q-116 103 -116 261q0 168 114 275q111 105 280 105q93 0 254 -68v-153q-155 91 -255 91q-107 0 -178 -67q-74 -68 -74 -174q0 -110 74 -176q71 -63 182 -63q106 0 258 99v-156zM631 594q0 18 -13 31t-31 13t-31 -13t-13 -31
t13 -31t31 -13t31 13t13 31zM541 632q0 18 -13.5 31t-31.5 13t-31 -13t-13 -31t13.5 -31t31.5 -13t31 13t13 31zM443 645q0 18 -13.5 31t-31.5 13t-31 -13t-13 -31t13.5 -31t31.5 -13t31 13t13 31zM344 632q0 18 -13 31t-31 13t-31 -13t-13 -31t13 -31t31 -13t31 13t13 31z
M253 594q0 18 -13 31t-31 13t-31 -13t-13 -31t13 -31t31 -13t31 13t13 31zM631 90q0 18 -13.5 31t-31.5 13t-31 -13t-13 -31t13.5 -31t31.5 -13t31 13t13 31zM180 528q0 19 -13 32t-31 13t-31 -13t-13 -31t13 -31.5t31 -13.5t31 13t13 31zM540 51q0 18 -13 31t-31 13
t-31 -13t-13 -31t13 -31t31 -13t31 13t13 31zM134 441q0 18 -13 31.5t-31 13.5t-31 -13t-13 -31t13 -31.5t31 -13.5t31 13t13 31zM442 37q0 18 -13 31t-31 13t-31 -13t-13 -31t13 -31t31 -13t31 13t13 31zM124 342q0 18 -13 31.5t-31 13.5t-31.5 -13t-13.5 -31t13 -31.5
t31 -13.5t31.5 13t13.5 31zM345 51q0 18 -13 31t-31 13t-31.5 -13t-13.5 -31t13 -31t31 -13t31.5 13t13.5 31zM136 243q0 18 -13 31.5t-31 13.5t-31 -13t-13 -31t13 -31.5t31 -13.5t31 13t13 31zM254 90q0 18 -13 31t-31 13t-31 -13t-13 -31t13 -31t31 -13t31 13t13 31z
M182 155q0 18 -13 31.5t-31 13.5t-31.5 -13t-13.5 -31t13 -31.5t31 -13.5t31.5 13t13.5 31z" />
    <glyph glyph-name="D" unicode="D" horiz-adv-x="747" 
d="M704 341q0 -157 -113 -261q-110 -100 -269 -100h-286v722h285q165 0 272 -97q111 -101 111 -264zM612 527q0 18 -13 31.5t-31 13.5t-31.5 -13.5t-13.5 -31.5t13.5 -31t31.5 -13t31 13t13 31zM539 594q0 18 -13.5 31t-31.5 13t-31 -13t-13 -31t13 -31.5t31 -13.5
t31.5 13.5t13.5 31.5zM661 440q0 18 -13.5 31t-31.5 13t-31 -13t-13 -31t13 -31t31 -13t31.5 13t13.5 31zM447 631q0 18 -13 31t-31 13t-31.5 -13t-13.5 -31t13.5 -31t31.5 -13t31 13t13 31zM675 343q0 18 -13.5 31t-31.5 13t-31 -13t-13 -31t13 -31t31 -13t31.5 13t13.5 31
zM348 639q0 18 -13 31t-31 13t-31 -13t-13 -31t13 -31.5t31 -13.5t31 13.5t13 31.5zM661 246q0 18 -13.5 31t-31.5 13t-31 -13t-13 -31t13 -31t31 -13t31.5 13t13.5 31zM250 639q0 18 -13 31t-31 13t-31.5 -13t-13.5 -31t13.5 -31.5t31.5 -13.5t31 13.5t13 31.5zM151 639
q0 18 -13 31t-31 13t-31 -13t-13 -31t13 -31.5t31 -13.5t31 13.5t13 31.5zM612 159q0 18 -13 31t-31 13t-31.5 -13t-13.5 -31t13.5 -31t31.5 -13t31 13t13 31zM563 341q0 113 -74 175q-69 58 -184 58h-131v-466h136q110 0 181.5 62t71.5 171zM151 540q0 18 -13 31t-31 13
t-31 -13t-13 -31t13 -31t31 -13t31 13t13 31zM539 93q0 18 -13.5 31t-31.5 13t-31 -13t-13 -31t13 -31.5t31 -13.5t31.5 13.5t13.5 31.5zM151 442q0 18 -13 31t-31 13t-31 -13t-13 -31t13 -31.5t31 -13.5t31 13.5t13 31.5zM447 55q0 18 -13 31t-31 13t-31.5 -13t-13.5 -31
t13.5 -31t31.5 -13t31 13t13 31zM151 343q0 18 -13 31t-31 13t-31 -13t-13 -31t13 -31t31 -13t31 13t13 31zM151 245q0 18 -13 31t-31 13t-31 -13t-13 -31t13 -31.5t31 -13.5t31 13.5t13 31.5zM348 48q0 18 -13 31t-31 13t-31 -13t-13 -31t13 -31.5t31 -13.5t31 13.5
t13 31.5zM151 146q0 18 -13 31t-31 13t-31 -13t-13 -31t13 -31t31 -13t31 13t13 31zM250 48q0 18 -13 31t-31 13t-31.5 -13t-13.5 -31t13.5 -31.5t31.5 -13.5t31 13.5t13 31.5zM151 48q0 18 -13 31t-31 13t-31 -13t-13 -31t13 -31.5t31 -13.5t31 13.5t13 31.5z" />
    <glyph glyph-name="E" unicode="E" horiz-adv-x="501" 
d="M468 280h-297v-172h296v-128h-434v722h435v-128h-297v-166h297v-128zM441 639q0 18 -13 31t-31 13t-31 -13t-13 -31t13 -31.5t31 -13.5t31 13.5t13 31.5zM342 639q0 18 -13 31t-31 13t-31 -13t-13 -31t13 -31.5t31 -13.5t31 13.5t13 31.5zM244 639q0 18 -13.5 31
t-31.5 13t-31 -13t-13 -31t13 -31.5t31 -13.5t31.5 13.5t13.5 31.5zM441 343q0 18 -13 31t-31 13t-31 -13t-13 -31t13 -31t31 -13t31 13t13 31zM145 639q0 18 -13 31t-31 13q-19 0 -32 -13t-13 -31t13 -31.5t32 -13.5q18 0 31 13.5t13 31.5zM342 343q0 18 -13 31t-31 13
t-31 -13t-13 -31t13 -31t31 -13t31 13t13 31zM145 540q0 18 -13 31t-31 13q-19 0 -32 -13t-13 -31t13 -31t32 -13q18 0 31 13t13 31zM244 343q0 18 -13.5 31t-31.5 13t-31 -13t-13 -31t13 -31t31 -13t31.5 13t13.5 31zM145 442q0 18 -13 31t-31 13q-19 0 -32 -13t-13 -31
t13 -31.5t32 -13.5q18 0 31 13.5t13 31.5zM441 48q0 18 -13 31t-31 13t-31 -13t-13 -31t13 -31.5t31 -13.5t31 13.5t13 31.5zM145 343q0 18 -13 31t-31 13q-19 0 -32 -13t-13 -31t13 -31t32 -13q18 0 31 13t13 31zM342 48q0 18 -13 31t-31 13t-31 -13t-13 -31t13 -31.5
t31 -13.5t31 13.5t13 31.5zM145 245q0 18 -13 31t-31 13q-19 0 -32 -13t-13 -31t13 -31.5t32 -13.5q18 0 31 13.5t13 31.5zM244 48q0 18 -13.5 31t-31.5 13t-31 -13t-13 -31t13 -31.5t31 -13.5t31.5 13.5t13.5 31.5zM145 146q0 18 -13 31t-31 13q-19 0 -32 -13t-13 -31
t13 -31t32 -13q18 0 31 13t13 31zM145 48q0 18 -13 31t-31 13q-19 0 -32 -13t-13 -31t13 -31.5t32 -13.5q18 0 31 13.5t13 31.5z" />
    <glyph glyph-name="F" unicode="F" horiz-adv-x="475" 
d="M460 279h-296v-299h-138v722h434v-128h-296v-167h296v-128zM435 639q0 18 -13 31t-31 13t-31.5 -13t-13.5 -31t13.5 -31.5t31.5 -13.5t31 13.5t13 31.5zM336 639q0 18 -13 31t-31 13t-31 -13t-13 -31t13 -31.5t31 -13.5t31 13.5t13 31.5zM237 639q0 18 -13 31t-31 13
t-31 -13t-13 -31t13 -31.5t31 -13.5t31 13.5t13 31.5zM435 343q0 18 -13 31t-31 13t-31.5 -13t-13.5 -31t13.5 -31t31.5 -13t31 13t13 31zM138 639q0 18 -13 31t-31 13t-31 -13t-13 -31t13 -31.5t31 -13.5t31 13.5t13 31.5zM336 343q0 18 -13 31t-31 13t-31 -13t-13 -31
t13 -31t31 -13t31 13t13 31zM138 540q0 18 -13 31t-31 13t-31 -13t-13 -31t13 -31t31 -13t31 13t13 31zM237 343q0 18 -13 31t-31 13t-31 -13t-13 -31t13 -31t31 -13t31 13t13 31zM138 442q0 18 -13 31t-31 13t-31 -13t-13 -31t13 -31.5t31 -13.5t31 13.5t13 31.5zM138 343
q0 18 -13 31t-31 13t-31 -13t-13 -31t13 -31t31 -13t31 13t13 31zM138 245q0 18 -13 31t-31 13t-31 -13t-13 -31t13 -31.5t31 -13.5t31 13.5t13 31.5zM138 146q0 18 -13 31t-31 13t-31 -13t-13 -31t13 -31t31 -13t31 13t13 31zM138 48q0 18 -13 31t-31 13t-31 -13t-13 -31
t13 -31.5t31 -13.5t31 13.5t13 31.5z" />
    <glyph glyph-name="G" unicode="G" horiz-adv-x="701" 
d="M673 34q-142 -63 -270 -63q-163 0 -273 102t-110 264t113 269q110 105 273 105q109 0 263 -65v-146q-147 81 -265 81q-103 0 -173 -69t-70 -172q0 -109 73 -174t183 -65q48 0 118 22v105h-108v128h246v-322zM646 594q0 18 -13 31t-31 13t-31 -13t-13 -31t13 -31t31 -13
t31 13t13 31zM555 632q0 18 -13 31t-31 13t-31 -13t-13 -31t13 -31t31 -13t31 13t13 31zM457 645q0 18 -13 31t-31 13t-31 -13t-13 -31t13 -31t31 -13t31 13t13 31zM359 632q0 18 -13 31t-31 13t-31.5 -13t-13.5 -31t13 -31t31 -13t31.5 13t13.5 31zM645 287q0 18 -13 31
t-31 13t-31 -13t-13 -31t13 -31t31 -13t31 13t13 31zM268 594q0 18 -13 31t-31 13t-31 -13t-13 -31t13 -31t31 -13t31 13t13 31zM547 287q0 18 -13.5 31t-31.5 13t-31 -13t-13 -31t13.5 -31t31.5 -13t31 13t13 31zM645 189q0 18 -13 31t-31 13t-31 -13.5t-13 -31.5t13 -31
t31 -13t31 13.5t13 31.5zM645 90q0 18 -13 31t-31 13t-31 -13t-13 -31t13 -31t31 -13t31 13t13 31zM195 528q0 19 -13 32t-31 13t-31.5 -13t-13.5 -31t13 -31.5t31 -13.5q19 0 32 13t13 31zM555 51q0 18 -13.5 31t-31.5 13t-31 -13t-13 -31t13.5 -31t31.5 -13t31 13t13 31z
M149 441q0 18 -13 31.5t-31 13.5t-31.5 -13t-13.5 -31t13 -31.5t31 -13.5t31.5 13t13.5 31zM457 37q0 18 -13 31t-31 13t-31 -13t-13 -31t13 -31t31 -13t31 13t13 31zM138 342q0 18 -13 31.5t-31 13.5t-31 -13t-13 -31t13 -31.5t31 -13.5t31 13t13 31zM359 51q0 18 -13 31
t-31 13t-31 -13t-13 -31t13 -31t31 -13t31 13t13 31zM151 243q0 18 -13 31.5t-31 13.5t-31.5 -13t-13.5 -31t13 -31.5t31 -13.5q19 0 32 13t13 31zM269 90q0 18 -13 31t-31 13t-31.5 -13t-13.5 -31t13 -31t31 -13t31.5 13t13.5 31zM196 155q0 18 -13 31.5t-31 13.5t-31 -13
t-13 -31t13 -31.5t31 -13.5t31 13t13 31z" />
    <glyph glyph-name="H" unicode="H" horiz-adv-x="745" 
d="M678 -20h-138v297h-354v-297h-138v722h138v-297h354v297h138v-722zM655 639q0 18 -13 31t-31 13t-31 -13t-13 -31t13 -31.5t31 -13.5t31 13.5t13 31.5zM655 540q0 18 -13 31t-31 13t-31 -13t-13 -31t13 -31t31 -13t31 13t13 31zM655 442q0 18 -13 31t-31 13t-31 -13
t-13 -31t13 -31.5t31 -13.5t31 13.5t13 31.5zM655 343q0 18 -13 31t-31 13t-31 -13t-13 -31t13 -31t31 -13t31 13t13 31zM655 245q0 18 -13 31t-31 13t-31 -13t-13 -31t13 -31.5t31 -13.5t31 13.5t13 31.5zM557 343q0 18 -13.5 31t-31.5 13t-31 -13t-13 -31t13 -31t31 -13
t31.5 13t13.5 31zM655 146q0 18 -13 31t-31 13t-31 -13t-13 -31t13 -31t31 -13t31 13t13 31zM458 343q0 18 -13 31t-31 13t-31 -13t-13 -31t13 -31t31 -13t31 13t13 31zM162 639q0 18 -13.5 31t-31.5 13t-31 -13t-13 -31t13 -31.5t31 -13.5t31.5 13.5t13.5 31.5zM655 48
q0 18 -13 31t-31 13t-31 -13t-13 -31t13 -31.5t31 -13.5t31 13.5t13 31.5zM359 343q0 18 -13 31t-31 13t-31 -13t-13 -31t13 -31t31 -13t31 13t13 31zM162 540q0 18 -13.5 31t-31.5 13t-31 -13t-13 -31t13 -31t31 -13t31.5 13t13.5 31zM260 343q0 18 -13 31t-31 13t-31 -13
t-13 -31t13 -31t31 -13t31 13t13 31zM162 442q0 18 -13.5 31t-31.5 13t-31 -13t-13 -31t13 -31.5t31 -13.5t31.5 13.5t13.5 31.5zM162 343q0 18 -13.5 31t-31.5 13t-31 -13t-13 -31t13 -31t31 -13t31.5 13t13.5 31zM162 245q0 18 -13.5 31t-31.5 13t-31 -13t-13 -31
t13 -31.5t31 -13.5t31.5 13.5t13.5 31.5zM162 146q0 18 -13.5 31t-31.5 13t-31 -13t-13 -31t13 -31t31 -13t31.5 13t13.5 31zM162 48q0 18 -13.5 31t-31.5 13t-31 -13t-13 -31t13 -31.5t31 -13.5t31.5 13.5t13.5 31.5z" />
    <glyph glyph-name="I" unicode="I" horiz-adv-x="251" 
d="M186 -20h-138v722h138v-722zM162 639q0 18 -13.5 31t-31.5 13t-31 -13t-13 -31t13 -31.5t31 -13.5t31.5 13.5t13.5 31.5zM162 540q0 18 -13.5 31t-31.5 13t-31 -13t-13 -31t13 -31t31 -13t31.5 13t13.5 31zM162 442q0 18 -13.5 31t-31.5 13t-31 -13t-13 -31t13 -31.5
t31 -13.5t31.5 13.5t13.5 31.5zM162 343q0 18 -13.5 31t-31.5 13t-31 -13t-13 -31t13 -31t31 -13t31.5 13t13.5 31zM162 245q0 18 -13.5 31t-31.5 13t-31 -13t-13 -31t13 -31.5t31 -13.5t31.5 13.5t13.5 31.5zM162 146q0 18 -13.5 31t-31.5 13t-31 -13t-13 -31t13 -31
t31 -13t31.5 13t13.5 31zM162 48q0 18 -13.5 31t-31.5 13t-31 -13t-13 -31t13 -31.5t31 -13.5t31.5 13.5t13.5 31.5z" />
    <glyph glyph-name="J" unicode="J" horiz-adv-x="365" 
d="M301 -8q0 -242 -208 -242q-13 0 -47 4l-25 129q96 0 119 22.5t23 115.5v681h138v-710zM276 639q0 18 -13 31t-31 13t-31.5 -13t-13.5 -31t13.5 -31.5t31.5 -13.5t31 13.5t13 31.5zM276 540q0 18 -13 31t-31 13t-31.5 -13t-13.5 -31t13.5 -31t31.5 -13t31 13t13 31z
M276 442q0 18 -13 31t-31 13t-31.5 -13t-13.5 -31t13.5 -31.5t31.5 -13.5t31 13.5t13 31.5zM276 343q0 18 -13 31t-31 13t-31.5 -13t-13.5 -31t13.5 -31t31.5 -13t31 13t13 31zM276 245q0 18 -13 31t-31 13t-31.5 -13t-13.5 -31t13.5 -31.5t31.5 -13.5t31 13.5t13 31.5z
M276 146q0 18 -13 31t-31 13t-31.5 -13t-13.5 -31t13.5 -31t31.5 -13t31 13t13 31zM276 48q0 18 -13 31t-31 13t-31.5 -13t-13.5 -31t13.5 -31.5t31.5 -13.5t31 13.5t13 31.5zM276 -51q0 18 -13 31t-31 13t-31.5 -13t-13.5 -31t13.5 -31t31.5 -13t31 13t13 31zM237 -142
q0 18 -13 31t-31 13t-31 -13t-13 -31t13 -31.5t31 -13.5t31 13.5t13 31.5zM147 -182q0 18 -13.5 31t-31.5 13t-31 -13t-13 -31t13 -31.5t31 -13.5t31.5 13.5t13.5 31.5z" />
    <glyph glyph-name="K" unicode="K" horiz-adv-x="586" 
d="M621 -20h-188l-258 303v-303h-138v722h138v-300l268 300h175l-314 -363zM518 638q0 18 -13 31.5t-31 13.5t-31 -13.5t-13 -31.5t13 -31t31 -13t31 13t13 31zM453 565q0 18 -13 31t-31 13t-31.5 -13t-13.5 -31t13.5 -31.5t31.5 -13.5t31 13.5t13 31.5zM388 491
q0 18 -13.5 31t-31.5 13t-31 -13t-13 -31t13 -31t31 -13t31.5 13t13.5 31zM150 639q0 18 -13 31t-31 13t-31.5 -13t-13.5 -31t13.5 -31.5t31.5 -13.5t31 13.5t13 31.5zM322 417q0 18 -13 31t-31 13t-31 -13t-13 -31t13 -31t31 -13t31 13t13 31zM150 540q0 18 -13 31t-31 13
t-31.5 -13t-13.5 -31t13.5 -31t31.5 -13t31 13t13 31zM257 343q0 18 -13 31.5t-31 13.5t-31.5 -13t-13.5 -31q0 -19 13.5 -32t31.5 -13t31 13t13 31zM150 442q0 18 -13 31t-31 13t-31.5 -13t-13.5 -31t13.5 -31.5t31.5 -13.5t31 13.5t13 31.5zM321 269q0 18 -13 31t-31 13
t-31 -13t-13 -31t13 -31t31 -13t31 13t13 31zM385 194q0 18 -13 31t-31 13t-31 -13t-13 -31t13 -31t31 -13t31 13t13 31zM450 120q0 18 -13.5 31t-31.5 13t-31 -13t-13 -31t13 -31.5t32 -13.5q18 0 31 13.5t13 31.5zM514 45q0 18 -13 31t-31 13t-31 -13t-13 -31t13 -31
t31 -13t31 13t13 31zM150 343q0 18 -13 31t-31 13t-31.5 -13t-13.5 -31t13.5 -31t31.5 -13t31 13t13 31zM150 245q0 18 -13 31t-31 13t-31.5 -13t-13.5 -31t13.5 -31.5t31.5 -13.5t31 13.5t13 31.5zM150 146q0 18 -13 31t-31 13t-31.5 -13t-13.5 -31t13.5 -31t31.5 -13
t31 13t13 31zM150 48q0 18 -13 31t-31 13t-31.5 -13t-13.5 -31t13.5 -31.5t31.5 -13.5t31 13.5t13 31.5z" />
    <glyph glyph-name="L" unicode="L" horiz-adv-x="467" 
d="M454 -20h-433v722h138v-594h295v-128zM131 639q0 18 -13 31t-31 13t-31 -13t-13 -31t13 -31.5t31 -13.5t31 13.5t13 31.5zM131 540q0 18 -13 31t-31 13t-31 -13t-13 -31t13 -31t31 -13t31 13t13 31zM131 442q0 18 -13 31t-31 13t-31 -13t-13 -31t13 -31.5t31 -13.5
t31 13.5t13 31.5zM131 343q0 18 -13 31t-31 13t-31 -13t-13 -31t13 -31t31 -13t31 13t13 31zM427 48q0 18 -13.5 31t-31.5 13t-31 -13t-13 -31t13 -31.5t31 -13.5t31.5 13.5t13.5 31.5zM131 245q0 18 -13 31t-31 13t-31 -13t-13 -31t13 -31.5t31 -13.5t31 13.5t13 31.5z
M328 48q0 18 -13 31t-31 13t-31 -13t-13 -31t13 -31.5t31 -13.5t31 13.5t13 31.5zM131 146q0 18 -13 31t-31 13t-31 -13t-13 -31t13 -31t31 -13t31 13t13 31zM230 48q0 18 -13.5 31t-31.5 13t-31 -13t-13 -31t13 -31.5t31 -13.5t31.5 13.5t13.5 31.5zM131 48q0 18 -13 31
t-31 13t-31 -13t-13 -31t13 -31.5t31 -13.5t31 13.5t13 31.5z" />
    <glyph glyph-name="M" unicode="M" horiz-adv-x="796" 
d="M734 -20h-140v497l-185 -230h-36l-185 230v-497h-140v722h123l220 -268l221 268h122v-722zM706 637q0 18 -13 31.5t-31 13.5t-31 -13.5t-13 -31.5t13 -31t31 -13t31 13t13 31zM706 539q0 15 -11 26t-26 11t-26 -11t-11 -26t11 -26t26 -11t26 11t11 26zM625 566
q0 15 -11 26t-26 11t-26 -11t-11 -26t11 -26t26 -11t26 11t11 26zM706 440q0 18 -13 31.5t-31 13.5t-31 -13.5t-13 -31.5t13 -31t31 -13t31 13t13 31zM568 490q0 18 -13 31t-31 13t-31 -13t-13 -31t13 -31.5t31 -13.5t31 13.5t13 31.5zM706 342q0 18 -13 31t-31 13t-31 -13
t-13 -31t13 -31t31 -13t31 13t13 31zM706 243q0 18 -13 31.5t-31 13.5t-31 -13.5t-13 -31.5t13 -31t31 -13t31 13t13 31zM500 416q0 18 -13 31t-31 13t-31 -13t-13 -31t13 -31t31 -13t31 13t13 31zM706 145q0 18 -13 31t-31 13t-31 -13t-13 -31t13 -31t31 -13t31 13t13 31z
M228 566q0 15 -11 26t-26 11t-25.5 -11t-10.5 -26t10.5 -26t25.5 -11t26 11t11 26zM162 637q0 18 -13 31.5t-31 13.5t-31.5 -13.5t-13.5 -31.5t13.5 -31t31.5 -13t31 13t13 31zM296 490q0 18 -13 31t-31 13t-31.5 -13t-13.5 -31t13.5 -31.5t31.5 -13.5t31 13.5t13 31.5z
M364 416q0 18 -13 31t-31 13t-31.5 -13t-13.5 -31t13.5 -31t31.5 -13t31 13t13 31zM432 342q0 18 -13 31t-31 13t-31 -13t-13 -31t13 -31t31 -13t31 13t13 31zM706 46q0 18 -13 31.5t-31 13.5t-31 -13.5t-13 -31.5t13 -31t31 -13t31 13t13 31zM148 539q0 15 -11 26t-26 11
t-26 -11t-11 -26t11 -26t26 -11t26 11t11 26zM162 440q0 18 -13 31.5t-31 13.5t-31.5 -13.5t-13.5 -31.5t13.5 -31t31.5 -13t31 13t13 31zM162 342q0 18 -13 31t-31 13t-31.5 -13t-13.5 -31t13.5 -31t31.5 -13t31 13t13 31zM162 243q0 18 -13 31.5t-31 13.5t-31.5 -13.5
t-13.5 -31.5t13.5 -31t31.5 -13t31 13t13 31zM162 145q0 18 -13 31t-31 13t-31.5 -13t-13.5 -31t13.5 -31t31.5 -13t31 13t13 31zM162 46q0 18 -13 31.5t-31 13.5t-31.5 -13.5t-13.5 -31.5t13.5 -31t31.5 -13t31 13t13 31z" />
    <glyph glyph-name="N" unicode="N" horiz-adv-x="796" 
d="M729 -20h-114l-431 492v-492h-133v722h108l437 -495v495h133v-722zM706 637q0 18 -13 31.5t-31 13.5t-31 -13.5t-13 -31.5t13 -31t31 -13t31 13t13 31zM706 539q0 18 -13 31t-31 13t-31 -13t-13 -31t13 -31t31 -13t31 13t13 31zM706 440q0 18 -13 31.5t-31 13.5
t-31 -13.5t-13 -31.5t13 -31t31 -13t31 13t13 31zM706 342q0 18 -13 31t-31 13t-31 -13t-13 -31t13 -31t31 -13t31 13t13 31zM706 243q0 18 -13 31.5t-31 13.5t-31 -13.5t-13 -31.5t13 -31t31 -13t31 13t13 31zM706 145q0 15 -11 25.5t-26 10.5t-26 -10.5t-11 -25.5t11 -26
t26 -11t26 11t11 26zM228 566q0 15 -11 26t-26 11t-25.5 -11t-10.5 -26t10.5 -26t25.5 -11t26 11t11 26zM162 637q0 18 -13 31.5t-31 13.5t-31.5 -13.5t-13.5 -31.5t13.5 -31t31.5 -13t31 13t13 31zM298 490q0 18 -13 31t-31 13t-31.5 -13t-13.5 -31t13.5 -31.5t31.5 -13.5
t31 13.5t13 31.5zM366 416q0 18 -13 31t-31 13t-31 -13t-13 -31t13 -31t31 -13t31 13t13 31zM434 342q0 18 -13 31t-31 13t-31 -13t-13 -31t13 -31t31 -13t31 13t13 31zM502 268q0 18 -13 31t-31 13t-31 -13t-13 -31t13 -31t31 -13t31 13t13 31zM570 194q0 18 -13 31t-31 13
t-31 -13t-13 -31t13 -31t31 -13t31 13t13 31zM706 46q0 18 -13 31.5t-31 13.5t-31 -13.5t-13 -31.5t13 -31t31 -13t31 13t13 31zM625 118q0 15 -11 26t-26 11t-26 -11t-11 -26t11 -26t26 -11t26 11t11 26zM148 539q0 15 -11 26t-26 11t-26 -11t-11 -26t11 -26t26 -11t26 11
t11 26zM162 440q0 18 -13 31.5t-31 13.5t-31.5 -13.5t-13.5 -31.5t13.5 -31t31.5 -13t31 13t13 31zM162 342q0 18 -13 31t-31 13t-31.5 -13t-13.5 -31t13.5 -31t31.5 -13t31 13t13 31zM162 243q0 18 -13 31.5t-31 13.5t-31.5 -13.5t-13.5 -31.5t13.5 -31t31.5 -13t31 13
t13 31zM162 145q0 18 -13 31t-31 13t-31.5 -13t-13.5 -31t13.5 -31t31.5 -13t31 13t13 31zM162 46q0 18 -13 31.5t-31 13.5t-31.5 -13.5t-13.5 -31.5t13.5 -31t31.5 -13t31 13t13 31z" />
    <glyph glyph-name="O" unicode="O" horiz-adv-x="849" 
d="M807 344q0 -164 -116 -269q-111 -101 -277 -101q-163 0 -274 103q-114 105 -114 267q0 163 115 268q111 102 275 102q166 0 276 -101q115 -105 115 -269zM723 533q0 18 -13 31t-31 13t-31 -13.5t-13 -31.5t13 -31t31 -13t31 13.5t13 31.5zM650 598q0 18 -13 31t-31 13
t-31 -13t-13 -31t13 -31t31 -13t31 13t13 31zM770 446q0 18 -13.5 31t-31.5 13t-31 -13.5t-13 -31.5t13.5 -31t31.5 -13t31 13.5t13 31.5zM560 636q0 18 -13.5 31t-31.5 13t-31 -13t-13 -31t13 -31t31 -13q19 0 32 13t13 31zM780 347q0 18 -13 31t-32 13q-18 0 -31 -13.5
t-13 -31.5t13.5 -31t31.5 -13t31 13.5t13 31.5zM462 649q0 18 -13.5 31t-31.5 13t-31 -13t-13 -31t13.5 -31t31.5 -13t31 13t13 31zM767 248q0 18 -13 31t-31 13t-31 -13.5t-13 -31.5t13 -31t31 -13t31 13.5t13 31.5zM363 636q0 18 -13 31t-31 13t-31 -13t-13 -31t13 -31
t31 -13t31 13t13 31zM722 160q0 18 -13 31t-31 13t-31 -13.5t-13 -31.5t13 -31t31 -13t31 13.5t13 31.5zM272 598q0 18 -13 31t-31 13t-31 -13t-13 -31t13 -31t31 -13t31 13t13 31zM665 344q0 105 -71.5 172.5t-177.5 67.5t-177 -67.5t-71 -172.5t71 -172.5t177 -67.5
t177.5 67.5t71.5 172.5zM649 94q0 18 -13 31t-31 13t-31 -13t-13 -31t13 -31t31 -13t31 13t13 31zM199 532q0 18 -13 31.5t-31 13.5t-31 -13t-13 -31t13 -31.5t31 -13.5t31 13t13 31zM559 55q0 18 -13 31t-31 13t-31 -13t-13 -31t13 -31t31 -13t31 13t13 31zM153 445
q0 18 -13 31.5t-31 13.5t-31 -13t-13 -31t13 -31.5t31 -13.5t31 13t13 31zM461 41q0 18 -13 31t-31 13t-31 -13t-13 -31t13 -31t31 -13t31 13t13 31zM143 346q0 18 -13 31.5t-31 13.5t-31.5 -13t-13.5 -31t13 -31.5t31 -13.5t31.5 13t13.5 31zM364 55q0 18 -13 31t-31 13
t-31.5 -13t-13.5 -31t13 -31t31 -13t31.5 13t13.5 31zM155 247q0 18 -13 31.5t-31 13.5t-31 -13t-13 -31t13 -31.5t31 -13.5t31 13t13 31zM273 94q0 18 -13 31t-31 13t-31 -13t-13 -31t13 -31t31 -13t31 13t13 31zM201 159q0 18 -13 31.5t-31 13.5t-31.5 -13t-13.5 -31
t13 -31.5t31 -13.5t31.5 13t13.5 31z" />
    <glyph glyph-name="P" unicode="P" horiz-adv-x="501" 
d="M480 486q0 -133 -97 -180q-64 -31 -215 -31v-295h-138v722h223q105 0 166 -56t61 -160zM425 587q0 18 -13 31t-31 13t-31 -13t-13 -31t13 -31t31 -13t31 13t13 31zM340 638q0 18 -13 31t-31 13t-31.5 -13t-13.5 -31t13.5 -31t31.5 -13t31 13t13 31zM451 493q0 18 -13 31
t-31 13t-31 -13t-13 -31t13 -31t31 -13t31 13t13 31zM241 637q0 18 -13 31.5t-31 13.5t-31 -13.5t-13 -31.5t13 -31t31 -13t31 13t13 31zM422 398q0 18 -13 31t-31 13t-31 -13t-13 -31t13 -31t31 -13t31 13t13 31zM339 490q0 84 -86 84h-85v-171h71q44 0 72 22t28 65z
M143 637q0 18 -13 31.5t-31 13.5t-31.5 -13.5t-13.5 -31.5t13.5 -31t31.5 -13t31 13t13 31zM340 346q0 18 -13 31.5t-31 13.5t-31.5 -13.5t-13.5 -31.5t13.5 -31t31.5 -13t31 13t13 31zM143 539q0 18 -13 31t-31 13t-31.5 -13t-13.5 -31t13.5 -31t31.5 -13t31 13t13 31z
M143 440q0 18 -13 31.5t-31 13.5t-31.5 -13.5t-13.5 -31.5t13.5 -31t31.5 -13t31 13t13 31zM241 342q0 18 -13 31t-31 13t-31 -13t-13 -31t13 -31t31 -13t31 13t13 31zM143 342q0 18 -13 31t-31 13t-31.5 -13t-13.5 -31t13.5 -31t31.5 -13t31 13t13 31zM143 243
q0 18 -13 31.5t-31 13.5t-31.5 -13.5t-13.5 -31.5t13.5 -31t31.5 -13t31 13t13 31zM143 145q0 18 -13 31t-31 13t-31.5 -13t-13.5 -31t13.5 -31t31.5 -13t31 13t13 31zM143 46q0 18 -13 31.5t-31 13.5t-31.5 -13.5t-13.5 -31.5t13.5 -31t31.5 -13t31 13t13 31z" />
    <glyph glyph-name="Q" unicode="Q" horiz-adv-x="853" 
d="M807 339q0 -116 -68 -210t-178 -133q87 -33 140 -33q27 0 62 11l26 -26l-110 -108q-178 13 -354 141q-133 26 -217 126t-84 234q0 168 118 271q112 99 282 99q162 0 272.5 -105.5t110.5 -266.5zM729 520q0 18 -13 31t-31 13t-31 -13t-13 -31t13 -31.5t31 -13.5t31 13.5
t13 31.5zM661 587q0 18 -13 31t-31 13t-31 -13t-13 -31t13 -31t31 -13t31 13t13 31zM575 630q0 18 -13.5 31t-31.5 13t-31 -13t-13 -31t13 -31t31 -13t31.5 13t13.5 31zM767 429q0 18 -13 31t-31 13t-31.5 -13t-13.5 -31t13.5 -31t31.5 -13t31 13t13 31zM479 651
q0 18 -13 31.5t-31 13.5t-31 -13.5t-13 -31.5t13 -31t31 -13t31 13t13 31zM780 330q0 18 -13 31t-31 13t-31 -13t-13 -31t13 -31t31 -13t31 13t13 31zM381 639q0 18 -13 31t-31 13t-31 -13t-13 -31t13 -31.5t31 -13.5t31 13.5t13 31.5zM759 233q0 18 -13 31.5t-31 13.5
t-31 -13.5t-13 -31.5t13 -31t31 -13t31 13t13 31zM289 600q0 18 -13 31.5t-31 13.5t-31 -13.5t-13 -31.5t13 -31t31 -13t31 13t13 31zM706 151q0 18 -13 31t-31 13t-31 -13t-13 -31t13 -31t31 -13t31 13t13 31zM665 338q0 105 -70 174t-175 69q-110 0 -182 -66t-72 -175
q0 -112 73 -177q70 -62 183 -62q102 0 172.5 68t70.5 169zM212 540q0 18 -13.5 31t-31.5 13t-31 -13t-13 -31t13 -31t31 -13t31.5 13t13.5 31zM629 90q0 18 -13 31.5t-31 13.5t-31.5 -13.5t-13.5 -31.5t13.5 -31t31.5 -13t31 13t13 31zM708 -89q0 18 -13 31.5t-31 13.5
t-31 -13t-13 -31t13 -31.5t31 -13.5t31 13t13 31zM158 458q0 18 -13 31.5t-31 13.5t-31.5 -13.5t-13.5 -31.5t13 -31t31 -13t31.5 13t13.5 31zM539 52q0 17 -12.5 29.5t-29.5 12.5t-29 -12.5t-12 -29.5t12 -29t29 -12t29.5 12t12.5 29zM611 -70q0 18 -13 31t-31 13
t-31.5 -13t-13.5 -31t13 -31t31 -13t31.5 13t13.5 31zM136 362q0 18 -13 31t-31 13t-31.5 -13t-13.5 -31t13 -31t31 -13t31.5 13t13.5 31zM514 -39q0 17 -12 29t-29 12t-29.5 -12t-12.5 -29t12 -29.5t29 -12.5t29.5 12.5t12.5 29.5zM435 15q0 18 -13.5 31t-31.5 13t-31 -13
t-13 -31t13 -31t31 -13t31.5 13t13.5 31zM151 264q0 18 -13 31t-31 13t-31 -13t-13 -31t13 -31t31 -13t31 13t13 31zM343 54q0 18 -13.5 31t-31.5 13t-31 -13t-13 -31t13 -31.5t31 -13.5t31.5 13.5t13.5 31.5zM189 171q0 18 -13 31.5t-31 13.5t-31 -13.5t-13 -31.5t13 -31
t31 -13t31 13t13 31zM256 98q0 18 -13.5 31.5t-31.5 13.5t-31 -13t-13 -32q0 -18 13 -31t31 -13t31.5 13t13.5 31z" />
    <glyph glyph-name="R" unicode="R" horiz-adv-x="591" 
d="M673 -20h-167q-64 100 -97 147q-73 103 -109 128q-32 22 -111 21h-14v-296h-138v722h202q105 0 171 -52q73 -56 73 -159q0 -106 -74 -154q65 -58 141 -171q61 -93 123 -186zM430 587q0 18 -13.5 31t-31.5 13t-31 -13t-13 -31t13 -31t31 -13t31.5 13t13.5 31zM344 638
q0 18 -13 31t-31 13t-31 -13t-13 -31t13 -31t31 -13t31 13t13 31zM455 493q0 18 -13 31t-31 13t-31 -13t-13 -31t13 -31t31 -13t31 13t13 31zM246 637q0 18 -13.5 31.5t-31.5 13.5t-31 -13.5t-13 -31.5t13 -31t31 -13t31.5 13t13.5 31zM427 398q0 18 -13.5 31t-31.5 13
t-31 -13t-13 -31t13 -31t31 -13t31.5 13t13.5 31zM342 495q0 83 -114 83h-53v-174h53q114 0 114 91zM147 637q0 18 -13 31.5t-31 13.5t-31 -13.5t-13 -31.5t13 -31t31 -13t31 13t13 31zM344 346q0 18 -13 31.5t-31 13.5t-31 -13.5t-13 -31.5t13 -31t31 -13t31 13t13 31z
M412 277q0 18 -13 31t-31 13t-31 -13t-13 -31t13 -31t31 -13t31 13t13 31zM147 539q0 18 -13 31t-31 13t-31 -13t-13 -31t13 -31t31 -13t31 13t13 31zM478 205q0 19 -13 32t-31 13t-31 -13t-13 -32q0 -18 13 -31t31 -13t31 13t13 31zM534 127q0 18 -13 31t-31 13t-31 -13
t-13 -31t13 -31t31 -13t31 13t13 31zM586 45q0 18 -13 31t-31 13t-31 -13t-13 -31t13 -31t31 -13t31 13t13 31zM147 440q0 18 -13 31.5t-31 13.5t-31 -13.5t-13 -31.5t13 -31t31 -13t31 13t13 31zM246 342q0 18 -13.5 31t-31.5 13t-31 -13t-13 -31t13 -31t31 -13t31.5 13
t13.5 31zM147 342q0 18 -13 31t-31 13t-31 -13t-13 -31t13 -31t31 -13t31 13t13 31zM147 243q0 18 -13 31.5t-31 13.5t-31 -13.5t-13 -31.5t13 -31t31 -13t31 13t13 31zM147 145q0 18 -13 31t-31 13t-31 -13t-13 -31t13 -31t31 -13t31 13t13 31zM147 46q0 18 -13 31.5
t-31 13.5t-31 -13.5t-13 -31.5t13 -31t31 -13t31 13t13 31z" />
    <glyph glyph-name="S" unicode="S" horiz-adv-x="480" 
d="M451 176q0 -90 -60.5 -147.5t-150.5 -57.5q-114 0 -211 73v192q49 -63 86 -92q55 -45 114 -45q34 0 60 16q31 18 31 50q0 49 -76 100q-71 48 -143 95q-76 66 -76 149q0 96 67 151q62 51 160 51q86 0 172 -57v-168q-103 97 -180 97q-33 0 -58 -14q-30 -16 -30 -47
q0 -44 76 -90q121 -73 143 -92q76 -68 76 -164zM405 616q0 18 -13 31t-31 13t-31 -13.5t-13 -31.5t13 -31t31 -13t31 13.5t13 31.5zM312 648q0 18 -13 31t-31 13t-31 -13t-13 -31t13.5 -31t31.5 -13t30.5 13t12.5 31zM215 635q0 18 -13.5 31t-31.5 13t-31 -13.5t-13 -31.5
q0 -17 13.5 -30t31.5 -13t31 13t13 31zM142 570q0 18 -13.5 31t-30.5 13q-18 0 -31 -13.5t-13 -31.5t13 -30.5t31 -12.5t31 13t13 31zM377 294q0 18 -13.5 31t-31.5 13t-31 -13.5t-13 -31.5t13.5 -31t31.5 -13t31 13.5t13 31.5zM294 347q0 18 -13.5 31t-31.5 13
q-17 0 -30 -13t-13 -31t13 -31t31 -13t31 13t13 31zM424 207q0 18 -13.5 31t-31.5 13t-31 -13.5t-13 -31.5t13.5 -31t31.5 -13t31 13.5t13 31.5zM143 472q0 18 -13.5 31t-31.5 13t-30.5 -13.5t-12.5 -31.5t13 -31t31 -13t31 13.5t13 31.5zM208 399q0 18 -13 31t-31 13
t-31 -13.5t-13 -31.5t13 -31t31 -13t31 13.5t13 31.5zM409 109q0 18 -13.5 31t-31.5 13t-31 -13.5t-13 -31.5q0 -17 13.5 -30t31.5 -13t31 13t13 31zM331 49q0 18 -13.5 31t-31.5 13t-31 -13.5t-13 -31.5q0 -17 13.5 -30t31.5 -13t31 13t13 31zM233 48q0 18 -13.5 31
t-31.5 13t-30.5 -13t-12.5 -31t13 -31t31 -13t31 13.5t13 30.5zM143 83q0 18 -13.5 31t-31.5 13t-31 -13.5t-13 -31.5t13.5 -31t31.5 -13t31 13.5t13 31.5z" />
    <glyph glyph-name="T" unicode="T" horiz-adv-x="560" 
d="M542 574h-200v-594h-138v594h-200v128h538v-128zM514 637q0 18 -13 31.5t-31 13.5t-31 -13.5t-13 -31.5t13 -31t31 -13t31 13t13 31zM416 637q0 18 -13 31.5t-31 13.5q-19 0 -32 -13.5t-13 -31.5t13 -31t32 -13q18 0 31 13t13 31zM317 637q0 18 -13 31.5t-31 13.5
t-31 -13.5t-13 -31.5t13 -31t31 -13t31 13t13 31zM317 539q0 18 -13 31t-31 13t-31 -13t-13 -31t13 -31t31 -13t31 13t13 31zM219 637q0 18 -13 31.5t-31 13.5t-31.5 -13.5t-13.5 -31.5t13.5 -31t31.5 -13t31 13t13 31zM317 440q0 18 -13 31.5t-31 13.5t-31 -13.5t-13 -31.5
t13 -31t31 -13t31 13t13 31zM120 637q0 18 -13 31.5t-31 13.5t-31 -13.5t-13 -31.5t13 -31t31 -13t31 13t13 31zM317 342q0 18 -13 31t-31 13t-31 -13t-13 -31t13 -31t31 -13t31 13t13 31zM317 243q0 18 -13 31.5t-31 13.5t-31 -13.5t-13 -31.5t13 -31t31 -13t31 13t13 31z
M317 145q0 18 -13 31t-31 13t-31 -13t-13 -31t13 -31t31 -13t31 13t13 31zM317 46q0 18 -13 31.5t-31 13.5t-31 -13.5t-13 -31.5t13 -31t31 -13t31 13t13 31z" />
    <glyph glyph-name="U" unicode="U" horiz-adv-x="691" 
d="M628 268q0 -146 -78 -221.5t-225 -75.5q-133 0 -208.5 77t-75.5 210v444h138v-423q0 -178 148 -178q95 0 131 45q32 40 32 139v417h138v-434zM606 638q0 18 -13.5 31t-31.5 13t-31 -13t-13 -31t13 -31t31 -13t31.5 13t13.5 31zM606 540q0 18 -13.5 31t-31.5 13t-31 -13
t-13 -31t13 -31.5t31 -13.5t31.5 13.5t13.5 31.5zM606 441q0 18 -13.5 31t-31.5 13t-31 -13t-13 -31t13 -31t31 -13t31.5 13t13.5 31zM606 343q0 18 -13.5 31t-31.5 13t-31 -13t-13 -31t13 -31t31 -13t31.5 13t13.5 31zM606 243q0 18 -13.5 31t-31.5 13t-31 -13t-13 -31
t13 -31t31 -13t31.5 13t13.5 31zM157 638q0 18 -13 31t-31 13t-31 -13t-13 -31t13 -31t31 -13t31 13t13 31zM591 147q0 18 -13 31t-31 13t-31 -13t-13 -31t13 -31.5t31 -13.5t31 13.5t13 31.5zM157 540q0 18 -13 31t-31 13t-31 -13t-13 -31t13 -31.5t31 -13.5t31 13.5
t13 31.5zM526 75q0 18 -13 31t-31 13t-31 -13t-13 -31t13 -31t31 -13t31 13t13 31zM157 441q0 18 -13 31t-31 13t-31 -13t-13 -31t13 -31t31 -13t31 13t13 31zM157 343q0 18 -13 31t-31 13t-31 -13t-13 -31t13 -31t31 -13t31 13t13 31zM431 45q0 18 -13.5 31.5t-31.5 13.5
t-31 -13.5t-13 -31.5t13 -31t31 -13t31.5 13t13.5 31zM157 243q0 18 -13 31t-31 13t-31 -13t-13 -31t13 -31t31 -13t31 13t13 31zM332 45q0 18 -13 31.5t-31 13.5t-31 -13.5t-13 -31.5t13 -31t31 -13t31 13t13 31zM172 147q0 18 -13 31t-32 13q-18 0 -31 -13t-13 -31
t13 -31.5t31 -13.5q19 0 32 13.5t13 31.5zM237 75q0 18 -13 31t-31 13t-31.5 -13t-13.5 -31t13.5 -31t31.5 -13t31 13t13 31z" />
    <glyph glyph-name="V" unicode="V" horiz-adv-x="649" 
d="M646 706l-303 -728h-46l-307 728h141l187 -448l188 448h140zM594 640q0 18 -13 31t-31 13q-19 0 -32 -13t-13 -31t13 -31t31 -13t31.5 13t13.5 31zM555 549q0 18 -13 31.5t-31 13.5t-31 -13.5t-13 -31.5t13 -31t31 -13t31 13t13 31zM517 459q0 18 -13 31t-31 13
t-31.5 -13t-13.5 -31t13 -31.5t31 -13.5t31.5 13.5t13.5 31.5zM478 368q0 18 -13 31t-31 13t-31 -13t-13 -31t13 -31t31 -13t31 13t13 31zM133 642q0 18 -13.5 31t-31.5 13t-31 -13t-13 -31t13 -31t31 -13t31.5 13t13.5 31zM171 551q0 18 -13 31.5t-31 13.5t-31 -13.5
t-13 -31.5t13 -31t31 -13t31 13t13 31zM440 280q0 18 -13 31t-31 13t-31.5 -13.5t-13.5 -31.5t13.5 -31t31.5 -13t31 13.5t13 31.5zM210 461q0 18 -13.5 31t-31.5 13t-31 -13t-13 -31t13 -31t31 -13t31.5 13t13.5 31zM248 370q0 18 -13 31t-31 13t-31 -13t-13 -31t13 -31
t31 -13t31 13t13 31zM404 192q0 16 -11.5 27.5t-27.5 11.5t-27.5 -11.5t-11.5 -27.5t11.5 -27.5t27.5 -11.5t27.5 11.5t11.5 27.5zM286 280q0 18 -13 31t-31 13t-31 -13.5t-13 -31.5t13 -31t31 -13t31 13.5t13 31.5zM316 192q0 16 -11.5 27.5t-27.5 11.5t-27.5 -11.5
t-11.5 -27.5t11.5 -27.5t27.5 -11.5t27.5 11.5t11.5 27.5zM363 110q0 18 -13 31t-31 13t-31 -13t-13 -31t13 -31t31 -13t31 13t13 31zM345 31q0 24 -24 24t-24 -24t24 -24t24 24z" />
    <glyph glyph-name="W" unicode="W" horiz-adv-x="1110" 
d="M1106 705l-296 -728h-46l-217 507l-211 -507h-46l-295 728h142l177 -438l187 438h97l192 -438l175 438h141zM1054 639q0 18 -13 31t-31 13t-31 -13t-13 -31t13 -31t31 -13t31 13t13 31zM1016 549q0 18 -13 31t-31 13t-31.5 -13t-13.5 -31t13.5 -31.5t31.5 -13.5t31 13
t13 32zM978 458q0 18 -13.5 31t-31.5 13t-31 -13t-13 -31t13 -31t31 -13t31.5 13t13.5 31zM939 367q0 18 -13 31t-31 13t-31 -13t-13 -31t13 -31t31 -13t31 13t13 31zM593 632q0 18 -13 31t-31 13t-31 -13t-13 -31t13 -31t31 -13t31 13t13 31zM633 547q0 16 -11.5 27.5
t-27.5 11.5t-27.5 -11.5t-11.5 -27.5t11.5 -27.5t27.5 -11.5t27.5 11.5t11.5 27.5zM901 279q0 18 -13.5 31t-31.5 13t-31 -13t-13 -31t13 -31.5t31 -13.5t31.5 13.5t13.5 31.5zM670 460q0 18 -13 31t-31 13t-31 -13t-13 -31t13 -31t31 -13t31 13t13 31zM545 547
q0 16 -11.5 27.5t-27.5 11.5t-27.5 -11.5t-11.5 -27.5t11.5 -27.5t27.5 -11.5t27.5 11.5t11.5 27.5zM709 369q0 18 -13.5 31.5t-31.5 13.5t-31 -13.5t-13 -31.5t13.5 -31t31.5 -13t31 13t13 31zM865 191q0 16 -11.5 28t-27.5 12t-27.5 -12t-11.5 -28t11.5 -27.5t27.5 -11.5
t27.5 11.5t11.5 27.5zM747 279q0 18 -13 31t-31 13t-31 -13t-13 -31t13 -31.5t31 -13.5t31 13.5t13 31.5zM517 458q0 18 -13.5 31t-31.5 13t-31 -13t-13 -31t13 -31t31 -13t31.5 13t13.5 31zM777 191q0 16 -11.5 28t-27.5 12t-28 -12t-12 -28t12 -27.5t28 -11.5t27.5 11.5
t11.5 27.5zM824 109q0 18 -13 31t-31 13t-31.5 -13t-13.5 -31t13.5 -31t31.5 -13t31 13t13 31zM806 30q0 24 -24 24t-24 -24t24 -24t24 24zM478 367q0 18 -13 31t-31 13t-31 -13t-13 -31t13 -31t31 -13t31 13t13 31zM132 641q0 18 -13 31.5t-31 13.5t-31 -13.5t-13 -31.5
t13 -31t31 -13t31 13t13 31zM171 551q0 18 -13 31t-31 13t-31.5 -13t-13.5 -31t13.5 -31.5t31.5 -13.5t31 13.5t13 31.5zM440 279q0 18 -13 31t-31 13t-31.5 -13t-13.5 -31t13.5 -31.5t31.5 -13.5t31 13.5t13 31.5zM209 460q0 18 -13 31t-31 13t-31 -13t-13 -31t13 -31
t31 -13t31 13t13 31zM248 369q0 18 -13 31.5t-31 13.5t-31.5 -13.5t-13.5 -31.5t13.5 -31t31.5 -13t31 13t13 31zM404 191q0 16 -11.5 28t-27.5 12t-27.5 -12t-11.5 -28t11.5 -27.5t27.5 -11.5t27.5 11.5t11.5 27.5zM286 279q0 18 -13 31t-31 13t-31 -13t-13 -31t13 -31.5
t31 -13.5t31 13.5t13 31.5zM316 191q0 16 -11.5 28t-27.5 12t-27.5 -12t-11.5 -28t11.5 -27.5t27.5 -11.5t27.5 11.5t11.5 27.5zM363 109q0 18 -13 31t-31 13t-31 -13t-13 -31t13 -31t31 -13t31 13t13 31zM345 30q0 24 -24 24t-24 -24t24 -24t24 24z" />
    <glyph glyph-name="X" unicode="X" horiz-adv-x="729" 
d="M748 -20h-169l-223 271l-226 -271h-171l301 363l-289 359h170l215 -259l214 259h169l-288 -359zM661 643q0 18 -13.5 31t-31.5 13t-31 -13t-13 -31t13 -31t31 -13t31.5 13t13.5 31zM595 569q0 18 -13 31.5t-31 13.5t-31 -13.5t-13 -31.5t13 -31t31 -13t31 13t13 31z
M530 496q0 18 -13 31t-31 13t-31 -13t-13 -31t13 -31.5t31 -13.5t31 13.5t13 31.5zM465 422q0 18 -13 31t-32 13q-18 0 -31 -13t-13 -31t13 -31t31 -13t31.5 13t13.5 31zM138 643q0 18 -13 31t-31 13t-31 -13t-13 -31t13 -31t31 -13t31 13t13 31zM203 569q0 18 -13 31.5
t-31 13.5t-31 -13.5t-13 -31.5t13 -31t31 -13t31 13t13 31zM269 496q0 18 -13 31t-31 13q-19 0 -32 -13t-13 -31t13.5 -31.5t31.5 -13.5t31 13.5t13 31.5zM334 422q0 18 -13 31t-31 13t-31 -13t-13 -31t13 -31t31 -13t31 13t13 31zM399 348q0 18 -13 31t-31 13t-31 -13
t-13 -31t13 -31t31 -13t31 13t13 31zM464 274q0 18 -13.5 31t-31.5 13t-31 -13t-13 -31t13 -31.5t31 -13.5t31.5 13.5t13.5 31.5zM528 199q0 18 -13 31t-31 13t-31.5 -13t-13.5 -31t13.5 -31t31.5 -13t31 13t13 31zM592 124q0 18 -13 31.5t-31 13.5t-31 -13.5t-13 -31.5
t13 -31t31 -13t31 13t13 31zM657 50q0 18 -13.5 31t-31.5 13t-31 -13t-13 -31t13 -31t31 -13t31.5 13t13.5 31zM335 274q0 18 -13 31t-31 13t-31 -13t-13 -31t13 -31.5t31 -13.5t31 13.5t13 31.5zM271 199q0 18 -13 31t-31 13t-31.5 -13t-13.5 -31t13.5 -31t31.5 -13t31 13
t13 31zM207 124q0 18 -13.5 31.5t-31.5 13.5t-31 -13.5t-13 -31.5t13 -31t31 -13t31.5 13t13.5 31zM142 50q0 18 -13 31t-31 13t-31 -13t-13 -31t13 -31t31 -13t31 13t13 31z" />
    <glyph glyph-name="Y" unicode="Y" horiz-adv-x="681" 
d="M728 702l-327 -379v-343h-138v344l-316 378h170l214 -254l226 254h171zM638 640q0 18 -13.5 31t-31.5 13t-31 -13t-13 -31t13 -31t31 -13t31.5 13t13.5 31zM572 566q0 18 -13 31.5t-31 13.5t-31 -13.5t-13 -31.5t13 -31t31 -13t31 13t13 31zM507 493q0 18 -13 31t-31 13
t-31 -13t-13 -31t13 -31.5t31 -13.5t31 13.5t13 31.5zM442 419q0 18 -13 31t-32 13q-18 0 -31 -13t-13 -31t13 -31t31 -13t31.5 13t13.5 31zM119 643q0 18 -13 31t-31 13t-31 -13t-13 -31t13 -31t31 -13t31 13t13 31zM185 569q0 18 -13.5 31.5t-31.5 13.5t-31 -13.5
t-13 -31.5t13 -31t31 -13t31.5 13t13.5 31zM250 496q0 18 -13 31t-31 13t-31.5 -13t-13.5 -31t13.5 -31.5t31.5 -13.5t31 13.5t13 31.5zM315 422q0 18 -13 31t-31 13t-31 -13t-13 -31t13 -31t31 -13t31 13t13 31zM378 345q0 18 -13 31t-31 13t-31 -13t-13 -31t13 -31t31 -13
t31 13t13 31zM377 247q0 18 -13 31t-31 13t-31.5 -13t-13.5 -31q0 -19 13.5 -32t31.5 -13t31 13t13 32zM377 148q0 18 -13 31t-31 13t-31.5 -13t-13.5 -31t13.5 -31t31.5 -13t31 13t13 31zM377 50q0 18 -13 31t-31 13t-31.5 -13t-13.5 -31t13.5 -31.5t31.5 -13.5t31 13.5
t13 31.5z" />
    <glyph glyph-name="Z" unicode="Z" horiz-adv-x="684" 
d="M714 702l-504 -594h441v-128h-708l504 594h-424v128h691zM641 644q0 18 -13.5 31t-31.5 13t-31 -13t-13 -31t13 -31.5t31 -13.5t31.5 13.5t13.5 31.5zM535 648q0 16 -11.5 27.5t-27.5 11.5t-27.5 -11.5t-11.5 -27.5t11.5 -27.5t27.5 -11.5t27.5 11.5t11.5 27.5zM574 567
q0 16 -12 27.5t-28 11.5t-27.5 -11.5t-11.5 -27.5t11.5 -28t27.5 -12t28 12t12 28zM442 644q0 18 -13.5 31t-31.5 13t-31 -13t-13 -31t13 -31t31 -13t31.5 13t13.5 31zM510 496q0 18 -13 31t-31 13t-31.5 -13t-13.5 -31t13.5 -31t31.5 -13t31 13t13 31zM343 644q0 18 -13 31
t-31 13t-31.5 -13t-13.5 -31t13.5 -31t31.5 -13t31 13t13 31zM244 644q0 18 -13 31t-31 13t-31 -13t-13 -31t13 -31t31 -13t31 13t13 31zM445 422q0 18 -13.5 31.5t-31.5 13.5t-31 -13.5t-13 -31.5t13 -31t31 -13t31.5 13t13.5 31zM146 644q0 18 -13.5 31t-31.5 13t-31 -13
t-13 -31t13 -31t31 -13t31.5 13t13.5 31zM379 349q0 18 -13 31t-31 13t-31 -13t-13 -31t13 -31.5t31 -13.5t31 13.5t13 31.5zM616 50q0 18 -13 31.5t-31 13.5t-31.5 -13.5t-13.5 -31.5t13.5 -31t31.5 -13t31 13t13 31zM315 274q0 18 -13 31t-31 13t-31.5 -13t-13.5 -31
t13.5 -31t31.5 -13t31 13t13 31zM517 50q0 18 -13 31.5t-31 13.5t-31 -13.5t-13 -31.5t13 -31t31 -13t31 13t13 31zM418 50q0 18 -13 31.5t-31 13.5t-31 -13.5t-13 -31.5t13 -31t31 -13t31 13t13 31zM251 199q0 19 -13.5 32t-31.5 13t-31 -13t-13 -31t13 -31.5t31 -13.5
t31.5 13t13.5 31zM319 50q0 18 -13 31.5t-31 13.5t-31 -13.5t-13 -31.5t13 -31t31 -13t31 13t13 31zM179 127q0 16 -11.5 28t-27.5 12t-27.5 -12t-11.5 -28t11.5 -27.5t27.5 -11.5t27.5 11.5t11.5 27.5zM217 46q0 16 -11.5 27.5t-27.5 11.5t-27.5 -11.5t-11.5 -27.5
t11.5 -28t27.5 -12t27.5 12t11.5 28zM122 50q0 18 -13 31.5t-31 13.5t-31 -13.5t-13 -31.5t13 -31t31 -13t31 13t13 31z" />
    <glyph glyph-name="bracketleft" unicode="[" horiz-adv-x="314" 
d="M284 -121h-243v928h243v-140h-107v-653h107v-135zM251 736q0 18 -13 31t-31 13t-31 -13t-13 -31t13 -31t31 -13t31 13t13 31zM153 736q0 18 -13 31t-31 13t-31.5 -13t-13.5 -31t13.5 -31t31.5 -13t31 13t13 31zM153 637q0 18 -13 31.5t-31 13.5t-31.5 -13.5t-13.5 -31.5
t13.5 -31t31.5 -13t31 13t13 31zM153 539q0 18 -13 31t-31 13t-31.5 -13t-13.5 -31t13.5 -31t31.5 -13t31 13t13 31zM153 440q0 18 -13 31.5t-31 13.5t-31.5 -13.5t-13.5 -31.5t13.5 -31t31.5 -13t31 13t13 31zM153 342q0 18 -13 31t-31 13t-31.5 -13t-13.5 -31t13.5 -31
t31.5 -13t31 13t13 31zM153 243q0 18 -13 31.5t-31 13.5t-31.5 -13.5t-13.5 -31.5t13.5 -31t31.5 -13t31 13t13 31zM153 145q0 18 -13 31t-31 13t-31.5 -13t-13.5 -31t13.5 -31t31.5 -13t31 13t13 31zM251 -52q0 18 -13 31t-31 13t-31 -13t-13 -31t13 -31t31 -13t31 13
t13 31zM153 46q0 18 -13 31.5t-31 13.5t-31.5 -13.5t-13.5 -31.5t13.5 -31t31.5 -13t31 13t13 31zM153 -52q0 18 -13 31t-31 13t-31.5 -13t-13.5 -31t13.5 -31t31.5 -13t31 13t13 31z" />
    <glyph glyph-name="backslash" unicode="\" horiz-adv-x="2119" 
d="M1988 781q-12 -2 -23 -14t-11 -24v-153h-34q0 5 1.5 48t1.5 72q0 80 -11 89l21 25q19 -6 21 -33q14 19 15 20q11 13 19 13v-43zM1904 757q0 -62 -50 -75q0 -19 7 -35q10 -21 27 -21q6 0 15 5v-39q-8 -3 -19 -3q-67 0 -67 117v31q0 87 44 87q43 0 43 -67zM1800 590h-35
v190q0 10 -9 10l-9 -5v-195h-34v191q0 13 -7 18l22 26q10 -3 17 -17q13 17 27 17q28 0 28 -39v-196zM1694 590h-35v189q0 11 -8 11q-6 -2 -10 -7v-193h-35v302h35v-81q12 14 25 14q28 0 28 -42v-193zM1591 706q0 -118 -42 -118q-45 0 -45 118t43 118q44 0 44 -118zM1496 590
h-65v302h41v-261h24v-41zM1844 212h-34v187q0 13 -9 13q-5 -3 -9 -8v-192h-35v188q0 12 -8 12q-6 -3 -9 -8v-192h-35q0 -3 2 64q2 58 1 92q-2 48 -8 54l20 24q14 -4 18 -17q12 18 27 18q16 0 24 -17q14 17 28 17q27 0 27 -41v-194zM1374 618l-20 -30q-14 4 -18 21
q-12 -20 -23 -20q-34 0 -34 85v47q0 104 53 104v67h34q0 -4 -1.5 -60.5t-1.5 -94.5q0 -108 11 -119zM1269 614l-27 -25q-19 5 -19 30v273h35v-254q0 -19 11 -24zM1688 328q0 -118 -42 -118q-45 0 -45 118t43 118q44 0 44 -118zM2018 -166h-34v187q0 12 -8 12q-6 -2 -10 -7
v-192h-34v188q0 11 -9 11q-6 -2 -9 -7v-192h-34q0 -4 1 63q2 58 1 93q-1 48 -8 53l20 25q14 -5 18 -17q12 17 27 17q16 0 25 -17q13 17 27 17q27 0 27 -41v-193zM1591 216q-9 -7 -17 -7q-48 0 -48 102v40q0 95 49 95q7 0 16 -3v-35l-9 3q-21 0 -21 -58v-57q0 -51 18 -51
q8 0 12 5v-34zM1206 706q0 -118 -42 -118q-45 0 -45 118t43 118q44 0 44 -118zM1468 236l-27 -26q-19 6 -19 31v272h35v-254q0 -19 11 -23zM1110 781q-12 -2 -22.5 -14t-10.5 -24v-153h-35q0 5 1.5 48t1.5 72q0 80 -11 89l21 25q19 -6 22 -33q14 19 15 20q11 13 18 13v-43z
M1862 -51q0 -118 -42 -118q-45 0 -45 118q0 119 43 119q44 0 44 -119zM1517 232q0 -22 -22 -22q-23 0 -23 22t23 22q22 0 22 -22zM1404 328q0 -118 -42 -118q-45 0 -45 118t44 118q43 0 43 -118zM1030 618l-20 -29q-11 3 -18 20q-10 -20 -24 -20q-34 0 -34 97v34
q0 104 71 104h16q0 10 -2 -60q-1 -56 0 -91q3 -48 11 -55zM1765 -163q-9 -6 -17 -6q-48 0 -48 102v40q0 95 49 95q8 0 16 -3v-35l-9 3q-21 0 -21 -58v-57q0 -51 19 -51q8 0 11 5v-35zM914 590h-40v128h-22v-128h-40v302h40v-135h22v135h40v-302zM1312 240l-20 -30
q-11 3 -19 20q-9 -20 -24 -20q-34 0 -34 98v33q0 105 71 105h17q0 10 -2 -60q-2 -57 0 -91q2 -48 11 -55zM1639 -116q0 -53 -40 -53q-12 0 -23 6v35q5 -7 14 -7q17 0 17 18q0 23 -15.5 66t-15.5 66q0 53 36 53q11 0 24 -8v-32q-7 6 -13 6q-14 0 -14 -18q0 -23 15 -66t15 -66
zM1691 -147q0 -22 -22 -22t-22 22q0 23 22 23t22 -23zM1567 -161q-10 -7 -19 -7q-33 0 -33 40v164h-18v10q12 13 42 57h10v-37h18v-30h-18v-159q0 -18 18 -9v-29zM755 677q0 -84 -77 -89v42q34 3 34 47q0 47 -34 48v33h3q30 -1 30 56q0 39 -22 39q-5 0 -11 -2v38q9 5 19 5
q29 0 44 -27q12 -22 12 -53q0 -51 -28 -69q30 -22 30 -68zM1186 377q0 -34 -13 -65q-17 -40 -45 -40q-21 0 -26 23q-12 -23 -32 -23q-38 0 -38 64q0 31 13 60q15 36 42 36q18 0 26 -18l2 11h31q-7 -26 -13 -52q-7 -32 -7 -54l2 -9l4 -3q14 1 22 31q6 22 6 41q0 35 -15 58
q-18 26 -50 26q-42 0 -65 -40q-20 -34 -20 -78q0 -43 18 -73q22 -37 62 -37q35 0 69 38l12 -28q-37 -44 -83 -44q-52 0 -81 49q-23 40 -23 96t25 100q31 51 84 51q45 0 71 -39q22 -33 22 -81zM1484 -166h-35v190q0 10 -9 9l-8 -5v-194h-35v190q0 14 -7 19l22 25
q10 -2 17 -16q13 16 27 16q28 0 28 -39v-195zM665 738q0 -149 -52 -149q-56 0 -56 151q0 154 53 154q55 0 55 -156zM1382 -51q0 -118 -42 -118q-45 0 -45 118q0 119 43 119q44 0 44 -119zM960 403q-12 -2 -22.5 -14.5t-10.5 -24.5v-152h-34q0 4 1.5 47.5t1.5 72.5
q0 79 -11 89l20 25q19 -7 22 -33q14 19 15 20q11 13 18 13v-43zM543 738q0 -149 -52 -149q-57 0 -57 151q0 154 54 154q55 0 55 -156zM1285 104q-17 -2 -17 -25l1 -13h16v-30h-16v-185q0 -61 -49 -61v38q14 -1 14 30v178h-15v30h15q0 34 7 49q10 23 39 22h5v-33zM877 378
q0 -61 -50 -74q0 -19 7 -36q9 -20 27 -20q5 0 14 4v-39q-8 -3 -18 -3q-67 0 -67 117v31q0 88 44 88q43 0 43 -68zM1210 -116q0 -53 -40 -53q-13 0 -23 6v35q5 -7 14 -7q17 0 17 18q0 23 -15.5 66t-15.5 66q0 53 36 53q10 0 23 -8v-32q-6 6 -12 6q-14 0 -14 -18q0 -23 15 -66
t15 -66zM420 590h-84q39 139 39 224q0 34 -20 34q-11 0 -19 -9v39q18 16 34 16q47 0 47 -73q0 -59 -29 -191h32v-40zM1141 -139l-20 -30q-14 4 -19 21q-12 -20 -23 -20q-34 0 -34 85v48q0 103 53 103v67h34q0 -3 -1.5 -59.5t-1.5 -95.5q0 -108 12 -119zM772 212h-34v190
q0 10 -9 10l-9 -6v-194h-34v191q0 13 -7 18l22 25q9 -2 17 -16q12 16 26 16q28 0 28 -39v-195zM1035 -143l-27 -25q-18 5 -18 30v273h34v-254q0 -19 11 -24zM667 212h-35v189q0 11 -9 11q-5 -2 -9 -7v-193h-35v301h35v-80q11 14 25 14q28 0 28 -42v-193zM316 727
q0 -50 -21 -91q-26 -49 -72 -49q-45 0 -71 49q-22 41 -22 91q0 49 22 90q26 49 71 49q46 0 72 -49q21 -41 21 -90zM972 -51q0 -118 -42 -118q-45 0 -45 118q0 119 43 119q44 0 44 -119zM564 328q0 -118 -42 -118q-45 0 -45 118t43 118q44 0 44 -118zM468 212h-64v301h41
v-261h23v-40zM876 24q-12 -2 -22.5 -14t-10.5 -24v-152h-34q0 4 1.5 47.5t1.5 71.5q0 80 -11 89l21 26q19 -7 21 -33q14 18 15 19q11 13 18 14v-44zM797 -138l-20 -30q-11 3 -19 20q-10 -20 -24 -20q-34 0 -34 97v34q0 105 71 105h17q0 9 -2 -61q-2 -56 0 -90q2 -49 11 -55z
M383 212h-41v127h-21v-127h-40v301h40v-135h21v135h41v-301zM681 -166h-34v188q0 12 -9 11q-6 -2 -10 -7v-192h-34v301h34v-81q12 14 25 14q28 0 28 -42v-192zM581 -147q0 -22 -22 -22t-22 22q0 23 22 23t22 -23zM529 66l-27 -235h-28l-13 149l-14 -149h-28l-27 235h34
l8 -159l11 159h31l11 -157l8 157h34zM384 66l-27 -235h-28l-14 149l-14 -149h-27l-28 235h35l7 -159l11 159h31l12 -157l7 157h35zM238 66l-27 -235h-28l-13 149l-14 -149h-28l-28 235h35l7 -159l11 159h32l11 -157l8 157h34zM1870 756q0 22 -8 32q-9 -16 -9 -37v-30
q17 6 17 35zM1557 697v20q0 61 -9 67q-8 -7 -8 -66v-24q0 -57 8 -66q9 10 9 69zM1332 626v156q-18 -5 -18 -50v-59q0 -50 12 -50zM1653 318v21q0 60 -9 67q-8 -7 -8 -67v-23q0 -58 8 -66q9 10 9 68zM1171 697v20q0 61 -8 67q-9 -7 -9 -66v-24q0 -57 9 -66q8 10 8 69z
M1827 -60v20q0 61 -8 67q-9 -6 -9 -66v-24q0 -57 9 -65q8 10 8 68zM1370 318v21q0 60 -9 67q-8 -7 -8 -67v-23q0 -58 8 -66q9 10 9 68zM987 625v156q-18 -6 -18 -56v-50q0 -52 12 -52zM1268 247v156q-17 -6 -17 -56v-50q0 -52 11 -53zM1103 380q0 19 -10 19q-13 0 -21 -28
q-7 -21 -7 -38q0 -27 12 -27q11 0 20 32q6 26 6 42zM623 771q-1 57 -12 76q-12 -15 -12 -80v-48q0 -69 13 -85q10 18 10 90zM1347 -60v20q0 61 -8 67q-9 -6 -9 -66v-24q0 -57 9 -65q8 10 8 68zM500 771q0 57 -11 76q-12 -15 -12 -80v-48q0 -69 12 -85q11 18 11 90v47z
M842 377q0 23 -7 33q-9 -16 -9 -38v-30q16 6 16 35zM1098 -131v157q-18 -6 -18 -50v-60q0 -50 12 -50zM291 727q0 38 -15 69q-19 40 -53 40q-33 0 -52 -39q-15 -32 -15 -70q0 -39 15 -70q19 -40 52 -40q34 0 53 40q15 31 15 70zM937 -60v20q0 61 -8 67q-8 -6 -8 -66v-24
q0 -57 8 -65q8 10 8 68zM529 318v21q0 60 -8 67q-8 -7 -8 -67v-23q0 -58 8 -66q8 10 8 68zM753 -132v156q-18 -5 -18 -56v-50q0 -52 12 -52zM273 744h-30q-3 29 -18 29q-19 0 -19 -48q0 -44 21 -44q13 0 16 26h30q-8 -65 -47 -65q-27 0 -42 30q-12 24 -12 54q0 31 11 54
q13 31 40 31q43 0 50 -67z" />
    <glyph glyph-name="bracketright" unicode="]" horiz-adv-x="314" 
d="M32 -121h243v928h-243v-140h107v-653h-107v-135zM64 736q0 18 13.5 31t31.5 13t31 -13t13 -31t-13 -31t-31 -13t-31.5 13t-13.5 31zM163 736q0 18 13 31t31 13t31 -13t13 -31t-13 -31t-31 -13t-31 13t-13 31zM163 637q0 18 13 31.5t31 13.5t31 -13.5t13 -31.5t-13 -31
t-31 -13t-31 13t-13 31zM163 539q0 18 13 31t31 13t31 -13t13 -31t-13 -31t-31 -13t-31 13t-13 31zM163 440q0 18 13 31.5t31 13.5t31 -13.5t13 -31.5t-13 -31t-31 -13t-31 13t-13 31zM163 342q0 18 13 31t31 13t31 -13t13 -31t-13 -31t-31 -13t-31 13t-13 31zM163 243
q0 18 13 31.5t31 13.5t31 -13.5t13 -31.5t-13 -31t-31 -13t-31 13t-13 31zM163 145q0 18 13 31t31 13t31 -13t13 -31t-13 -31t-31 -13t-31 13t-13 31zM64 -52q0 18 13.5 31t31.5 13t31 -13t13 -31t-13 -31t-31 -13t-31.5 13t-13.5 31zM163 46q0 18 13 31.5t31 13.5t31 -13.5
t13 -31.5t-13 -31t-31 -13t-31 13t-13 31zM163 -52q0 18 13 31t31 13t31 -13t13 -31t-13 -31t-31 -13t-31 13t-13 31z" />
    <glyph glyph-name="asciicircum" unicode="^" horiz-adv-x="1533" 
d="M1288 519q0 -41 -14 -76q-19 -45 -54 -51q51 51 51 110q0 7 -3.5 20.5t-3.5 19.5q0 9 8 9q16 0 16 -11v-21zM1478 -159l-9 -12l1 -16q-14 3 -17 11q-1 3 -1 20q-4 5 -8 7q0 8 7 12h16q6 -3 11 -8v-14zM1296 -7q0 -8 -15 -10q-8 3 -8 9q0 8 6 15q10 0 16 -6zM1264 -17
q-3 -5 -10 -7q-10 0 -10 17q0 9 8 14q12 0 12 -15v-9zM1288 -107q0 -8 -7 -12q-16 2 -19 11l3 7q-13 18 -13 29q0 9 6 18l-3 17l5 8q8 -3 13 -6q1 -7 9 -39q6 -27 6 -33zM1483 -25q0 -18 -16 -18q-35 40 -79 40l-2 -9h-5q-3 14 -15 32q-14 22 -26 22l-6 -5q-11 -19 -11 -67
q1 -51 -8 -71l2 -8h2q11 0 27 5q20 7 20 18q0 8 -7 11l-14 -12q-12 0 -12 8q0 46 19 89q2 -4 5 -39q2 -28 10 -28q7 0 19 1.5t17 1.5q4 10 16 26q7 0 11.5 -16t16.5 -17q-4 -27 -21 -27q-7 3 -16 16l-6 1l-8 -6q-4 -8 -17 -17q2 -24 17 -24q6 0 18 9t18 9q7 0 15 -7v-12h-15
q-15 -9 -26 -14q-6 1 -10 3q-7 -3 -10 -10q3 -6 9 -9q8 3 14 9q32 -8 32 -24q0 -8 -9.5 -10.5t-17.5 -4.5q0 -8 25 -17q33 -12 37 -15q-23 -14 -53 -14q-20 0 -43 7l-5 7q6 5 13 18l-4 2q-9 -5 -26 -14l-1 -6q5 -6 15 -11h-47q0 39 -17 39q-10 0 -5 -23q-18 0 -23 -3
q-1 -4 1 -13h-37q19 13 19 29l-9 3q-4 -1 -15 -6.5t-16 -5.5q-11 0 -11 13q0 7 19 13t23 10q18 21 32 41q12 0 17 -6q0 -8 -10.5 -19.5t-19.5 -20.5l9 -5q25 12 27 12q7 0 17.5 -13t18.5 -13q14 0 19 13q-28 5 -55 33q5 8 8 16q-12 17 -12 38q0 12 4.5 34.5t4.5 34.5
q0 105 -32 105q-4 0 -11.5 -2t-10.5 -2q-12 0 -9 37q-4 10 -44 41v-4q0 -18 12.5 -51.5t12.5 -51.5q0 -59 -4 -88q6 -8 11 -14q0 -5 -3 -10q-9 -4 -22 -2q0 13 1 41t1 42q0 82 -35 122q-19 -29 -53 -70q-41 -48 -60 -58q-2 -6 -13.5 -20.5t-11.5 -22.5l1 -7q28 16 59 59
l48 72q-12 -53 -53 -103t-90 -70l-6 -1q-7 3 -23 8q-2 -11 -12 -28q-13 -10 -65 -23t-73 -13q-9 -10 -66 -23q-52 -12 -74 -12q-5 0 -12 8l-13 -9q29 -20 62 -20q32 0 87 23q43 19 85 38q-19 -26 -69.5 -47t-84.5 -21q-4 -7 -44 -15q-36 -8 -49 -8q-21 0 -52.5 27.5
t-44.5 27.5q-8 0 -11 -19q-2 -14 -3 -27l-5 -1q-7 6 -12 12q0 11 6 32.5t6 32.5q0 12 -8.5 28.5t-19.5 16.5q-14 0 -39 -61q-32 -75 -33 -77q5 59 44 138l-4 4q-8 -7 -16.5 -26.5t-25 -32.5t-16.5 -25l4 -1l4 1q5 0 8 -4l-4 -6l-9 -9l-3 12q-36 -10 -36 -29q0 -10 29 -10v-5
q-40 -1 -48 -1q-48 0 -48 26q0 8 5 17l-3 2q-8 -4 -28 -28q-16 -19 -31 -19q-18 0 -32.5 25.5t-20.5 25.5l-5 -6q0 -22 20 -42q-52 0 -169 -2v1148h369q-9 -29 -18 -57q-12 -37 -24 -53q-10 2 -18 6q-16 -8 -16 -27t19.5 -61.5t19.5 -64.5q0 -49 31 -49q0 -24 9 -24
q19 0 53 7q38 7 50 15q-22 15 -22 26q11 1 35 1q41 0 88 -32.5t79 -32.5q33 0 102.5 40t100.5 40q4 -9 8 -24q70 -9 72 -9l18 1q20 14 51 14q5 0 18.5 -5t21.5 -5q46 0 46 57q0 58 -40 121q-3 6 -1 20q-21 10 -42 59q-5 3 -10 5l-7 7q0 9 -5 25h247q-4 -10 -25 -122
q-19 -108 -22 -133l5 -12q6 1 22 1q33 0 43 -69q-12 16 -22 16q-7 0 -20.5 -4t-20.5 -4q2 9 13.5 17t14.5 13q0 16 -10 16q-23 0 -39 -9q-21 -12 -21 -32q0 -23 24 -18l-15 -29l4 -8q11 -7 17 -16q-2 -8 -21 -21q16 -5 16 -14q-3 -5 -16.5 -17.5t-13.5 -23.5q0 -19 12 -19
q10 4 18 12q6 -3 8 -9l-2 -5q-27 -15 -27 -45q0 -55 10 -66q20 0 52 76q27 64 32 98l6 -1q-7 -64 -64 -157q-54 -89 -54 -105q0 -33 95 -115q81 -70 134 -100q21 -10 58 -33q7 -4 7 -11zM484 636q-5 0 -16 -2t-17 -2q-2 0 -12 3l7 7l2 6q2 -2 20 1q9 -5 16 -13zM1186 57
q0 -113 -146 -227l-4 4q39 36 77 72q43 48 43 90q0 5 -6 36q7 6 16 19q-1 8 -1 15q0 18 13 44q8 -26 8 -53zM1126 -36q-3 -5 -8 -12q-9 0 -16 7q0 13 10 13q14 0 14 -8zM1239 -123q-5 -17 -11 -29l-26 -17q0 24 -8 24q-10 0 -18 -15q-10 -19 -13 -21l3 -4l11 -3q6 7 12 12
q7 -5 7 -16q-9 -6 -17 -19q4 -6 14 -6v-5q-28 0 -129 -1q71 58 77 64q42 39 57 81q5 4 12 6l5 -2v-42h3l14 -5l4 1zM1030 576q0 31 -51 40l-68 4q-2 0 -9 4t-10 4q-21 0 -62 -22q-45 -23 -45 -40q0 -8 5 -18q5 -14 6 -17q-1 -6 -4 -10q20 -20 39 -39.5t54 -19.5q37 0 77 10
q54 15 54 41q0 20 -21 20q-14 -7 -33 -34q-2 4 -10 6t-10 7q1 2 15 22q10 15 10 22q0 8 -7 12q-19 -41 -40 -41q-25 0 -39 41q-19 -6 -19 -20l3 -10q9 -4 19 -9t10 -12q0 -16 -11 -16q-8 0 -20 5q-8 -7 -20 -16l9 30q-17 14 -44 40q64 43 94 43q6 0 22 -4q13 -3 21 -2
q25 3 21 3q17 0 50 -43l12 4q2 9 2 15zM1181 391q0 12 -6 28q-5 13 -10 27l9 18q-3 6 -8 20q0 5 2.5 18t2.5 20q0 25 -11 52q-14 34 -34 34q-26 -10 -72 -10q-8 0 -8 -14q0 -8 7 -21t7 -21q0 -6 -3 -15l-5 -15q-7 -47 -42 -63q-17 -7 -79 -15q-3 -2 -8.5 -9t-11.5 -7
q-16 0 -51 10t-47 20q-8 6 -25 18q-22 0 -22 -15q0 -3 13 -24l-4 -10q14 -43 14 -87q0 -24 18 -24q21 0 21 20q0 8 -9.5 23t-9.5 24l1 10q36 -36 36 -46q0 -15 -6 -30q-8 -19 -22 -19q-4 0 -13.5 4t-14.5 4q-17 0 -38.5 -16.5t-27.5 -16.5q-4 0 -12 2t-12 2l-7 -2
q11 -10 11 -22q0 -10 -8.5 -26.5t-8.5 -24.5q0 -17 25 -17q18 0 30 9q-11 34 -11 37q0 18 13 31t31 13q6 0 11.5 -7t9.5 -9l6 5l2 4l8 7q12 -3 52 -36l7 1q13 17 24 15q8 9 27 24q16 0 36 -30.5t20 -49.5q0 -29 -31 -29q0 -6 10 -19t12 -17q-3 -7 -10 -10t-14 -5
q-5 -10 -5 -16q0 -20 16 -20q10 0 33.5 21t23.5 32q-7 19 -20 36q7 -1 11 -1q8 0 18.5 11t13.5 13q16 -4 14 -4q7 0 9 13q1 8 -0.5 25.5t-1.5 16.5q0 8 3 18q12 -7 14 -26.5t9 -19.5q28 0 44 30q-11 2 -27 13l3 9l5 2l9 -6q10 8 10 20q0 23 -28 23q0 14 10 14q4 0 13 -3.5
t14 -3.5q16 0 31 35q14 31 14 50zM1086 162l-5 2h-2l-2 -5l6 -6zM1375 -125l-2 7l-6 4q-12 0 -12 -17q0 -10 9 -10q11 0 11 16zM1072 138l-1 7l-4 -2l-6 -13h8q3 3 3 8zM1051 166l-8 5q-8 -5 -8 -12l5 -10q2 2 11 17zM657 532q0 35 -10 45l-6 -5q11 -9 11 -48l3 -2zM1062 95
l-2 5q-6 -3 -8 -8l5 -2zM1037 108l-3 5h-8l-2 -5v-3l2 -5l8 2zM785 340q0 11 -20.5 58t-19.5 71q0 4 1 14.5t1 16.5q0 66 -36 66q-31 0 -38 -34q-1 -7 -1 -58q0 -10 -2 -29t-2 -29q0 2 4 -16q-4 -7 -27.5 -41t-23.5 -36q0 -15 9 -14q4 7 18 20q17 -14 34.5 -28t37.5 -22
q11 0 38 25t27 36zM906 197q-16 7 -27 12q-5 -4 -5 -11q9 -3 28 -9zM519 585q0 15 -23 15q-61 0 -61 -29l5 -8l6 -3q3 1 22 13q11 7 20 7q8 0 16 -4q15 0 15 9zM630 523q2 25 -22 25q0 -35 -36 -35q15 30 27 72q-6 20 -23 20q-21 0 -21 -17q0 -1 26 -38q-8 -3 -20.5 -23
t-31.5 -20q-16 0 -23.5 14.5t-14.5 28.5l-11 -3v-3q0 -9 12.5 -22.5t12.5 -21.5t-18 -12q-13 -3 -26 -5v-13l-7 -1q-17 0 -20 24q-3 29 -7 31q-11 0 -11 -36q0 -35 34 -44q13 -4 62 -4q74 0 118 78v3v2zM1024 35l-10 1q-9 0 -8 -11l4 -2q14 0 14 12zM817 196l-5 15h-3
q-9 -9 -9 -17l5 -9l3 -1q5 4 9 12zM774 197q0 20 -19 28q-8 0 -8 -15q0 -13 21 -21l5 3zM940 130q-2 16 -15.5 27t-29.5 11q-46 0 -138 -8.5t-138 -8.5q-6 0 -16 4t-14 5q-7 -9 -15 -16q-8 1 -13 4q-4 -8 -15 -21q-20 12 -26 31q-3 12 -3 44q0 6 2 14q6 2 17 7q28 42 52 42
q13 0 13 -6q0 -9 -14.5 -17t-14.5 -20q3 -4 8 -6h4q47 54 56 54q4 0 12 -2t11 -2q7 3 7 10q0 19 -21 19q-4 0 -11.5 -3t-11.5 -3q-11 0 -18 11t-7 22q0 36 42 65q8 13 8 53q0 3 -3 32q-2 19 1 31l-4 2q-8 -6 -19 -34t-26 -41q-24 -21 -72 -21q-17 0 -43 9q-38 12 -43 13
q-5 -2 -17 -6q-44 23 -60 60h-4q-1 -20 -1 -24q0 -22 5 -66t5 -66q0 -8 12.5 -12t15.5 -6l-6 -12q-15 -7 -15 -21q0 -10 10 -30.5t18 -20.5q3 0 11.5 6.5t9.5 7.5l7 -2q22 -27 56 -91q-19 -5 -19 -27q0 -20 33 -59l10 -4q7 4 7 11l-1 5q-8 2 -16 2v11q3 5 10 7q6 -4 16 -12
q3 2 23 29q14 19 29 19q7 -6 7 -17q-27 -11 -27 -34l3 -12q5 -3 12 -5l6 2q-4 12 -3 21q31 15 31 32q17 0 18 -7q-15 -32 -40 -99l2 -9l8 1q5 15 3 23q20 0 51 40h2q18 0 30 14.5t19 14.5q4 0 13.5 -5.5t13.5 -5.5q21 0 36 7q1 1 30 19q6 -2 13.5 -13.5t13.5 -20.5
q-8 2 -23 5l-6 -3q-7 -23 -23 -67q-8 -4 -21 -9v-7q0 -21 18 -51l9 3q12 0 17 -14l7 5q10 15 28 47q0 13 -38 21q3 13 7 28.5t15 15.5q10 0 14 -18l6 -26l13 -4q6 3 11 10v27q0 7 10 7q8 -3 9 -16q46 2 46 67q0 13 -3 24l11 -3q4 4 10 12zM658 236l-5 2q-8 -3 -17 -34l3 -3
q8 11 19 35zM873 -8q0 10 -12 10t-12 -16q0 -15 11 -15q8 0 8 12zM888 -58l-3 3l-2 1q-7 -3 -18 -8l3 -8l10 4q3 4 10 8zM332 519q0 9 -12 28t-20 26q-27 0 -27 -42q0 -19 44 -109l7 -4l1 11q0 3 -5 15t-5 17q0 1 10 28q7 18 7 30zM859 -51l-4 8l-4 1q-13 0 -13 -15
q0 -3 4 -5q13 3 17 11zM839 -90q-4 8 -12 12q-9 0 -9 -14q3 -5 9 -5h7zM696 49l-2 8l-4 1q-18 0 -18 -18l2 -6h6q16 0 16 15zM757 51l-3 10q-7 1 -11 1q-20 0 -24 -15v-31q-7 9 -22 17l-6 -3l-1 -7q0 -17 15 -27q-8 -7 -14 -16q9 -46 28 -46l2 6q-8 9 -8 21q0 23 16 48
q26 38 28 42zM753 -69l-5 13l-7 5q-14 -5 -14 -29q3 -7 9 -9q9 5 17 20zM660 15l-2 8l-5 2l-13 -8v-9q3 -5 9 -8q6 2 10 6zM670 -31v19l-2 5q-16 -3 -16 -17q0 -10 12 -10zM435 204v2l-3 8l-7 5q-13 -2 -13 -19q0 -13 12 -13q11 0 11 17zM462 167l-5 9h-3q-12 0 -12 -15
q0 -13 9 -13q11 0 11 19zM623 2l-3 6q-22 -7 -22 -32q0 -28 17 -28q8 0 4 44zM663 -62l-1 4q-23 -1 -23 -16q0 -1 7 -4q12 10 17 16zM659 -194q0 11 -22.5 26t-34.5 15q-11 0 -11 -10q0 -14 22 -25.5t38 -13.5l7 4zM428 -32l-4 9l-4 1q-11 0 -20 -14.5t-9 -25.5q37 22 37 30
zM433 -76q-3 8 -8 9q-15 0 -23 -19l2 -10q19 1 29 20zM382 -42l-5 11h-2q-8 -6 -14 -18q0 -12 10 -12q11 5 11 19zM404 -123l-3 10q-7 4 -13 4q-16 0 -37 -36t-21 -55l3 -4q7 3 23 8q0 13 16 34q2 21 13 26q15 6 19 13zM375 -79l-8 4q-58 0 -93 -103l5 -2q10 5 26.5 26.5
t28.5 28.5q4 7 0 21l8 -1q27 0 33 26zM277 -74q0 12 -11 12l-9 -4q2 -21 10 -21q10 0 10 13zM337 -159l-1 2l-5 3q-9 0 -9 -13l4 -2q7 4 11 10zM243 -106q0 7 -16 7l-9 -6v-4q0 -12 14 -12q8 6 11 15zM272 -140l-8 5q-12 -3 -16 -9q7 -5 14 -5q10 0 10 9zM260 -196
q-3 6 -12 6l-6 -2q1 -12 9 -12q9 0 9 8zM154 -192q0 15 -13 15q-10 0 -10 -14q0 -15 11 -15q12 0 12 14zM791 -24q0 -11 -11 -11q-14 0 -14 17q0 13 11 13q14 0 14 -19zM415 268l-3 -8l-6 -7q-5 5 -6.5 17.5t-3.5 16.5l5 5q14 -14 14 -24z" />
    <glyph glyph-name="underscore" unicode="_" horiz-adv-x="849" 
d="M807 344q0 -164 -116 -269q-111 -101 -277 -101q-163 0 -274 103q-114 105 -114 267q0 163 115 268q111 102 275 102q166 0 276 -101q115 -105 115 -269zM723 533q0 18 -13 31t-31 13t-31 -13.5t-13 -31.5t13 -31t31 -13t31 13.5t13 31.5zM650 598q0 18 -13 31t-31 13
t-31 -13t-13 -31t13 -31t31 -13t31 13t13 31zM770 446q0 18 -13.5 31t-31.5 13t-31 -13.5t-13 -31.5t13.5 -31t31.5 -13t31 13.5t13 31.5zM560 636q0 18 -13.5 31t-31.5 13t-31 -13t-13 -31t13 -31t31 -13q19 0 32 13t13 31zM780 347q0 18 -13 31t-32 13q-18 0 -31 -13.5
t-13 -31.5t13.5 -31t31.5 -13t31 13.5t13 31.5zM462 649q0 18 -13.5 31t-31.5 13t-31 -13t-13 -31t13.5 -31t31.5 -13t31 13t13 31zM665 344q0 84 -48.5 147.5t-130.5 83.5v-174l167 -135q12 37 12 78zM767 248q0 18 -13 31t-31 13t-31 -13.5t-13 -31.5t13 -31t31 -13
t31 13.5t13 31.5zM462 545q0 18 -13.5 31t-31.5 13t-31 -13t-13 -31t13 -31t31 -13t31.5 13t13.5 31zM363 636q0 18 -13 31t-31 13t-31 -13t-13 -31t13 -31t31 -13t31 13t13 31zM462 445q0 18 -13.5 31t-31.5 13t-31 -13t-13 -31t13 -31.5t31 -13.5t31.5 13.5t13.5 31.5z
M722 160q0 18 -13 31t-31 13t-31 -13.5t-13 -31.5t13 -31t31 -13t31 13.5t13 31.5zM272 598q0 18 -13 31t-31 13t-31 -13t-13 -31t13 -31t31 -13t31 13t13 31zM640 226q0 18 -13 31t-32 13q-18 0 -31 -13t-13 -31t13 -31.5t31 -13.5t31.5 13t13.5 32zM557 293q0 18 -13 31
t-31 13t-31 -13t-13 -31t13 -31t31 -13t31 13t13 31zM462 345q0 18 -13.5 31t-31.5 13t-31 -13t-13 -31t13 -31t31 -13t31.5 13t13.5 31zM649 94q0 18 -13 31t-31 13t-31 -13t-13 -31t13 -31t31 -13t31 13t13 31zM573 153l-87 71v-111q48 12 87 40zM199 532q0 18 -13 31.5
t-31 13.5t-31 -13t-13 -31t13 -31.5t31 -13.5t31 13t13 31zM348 401v175q-82 -21 -131 -84t-49 -148q0 -41 12 -79zM462 244q0 18 -13.5 31t-31.5 13t-31 -13t-13 -31t13 -31.5t31 -13.5t31.5 13.5t13.5 31.5zM366 293q0 18 -13.5 31t-31.5 13t-31 -13t-13 -31t13 -31
t32 -13q18 0 31 13t13 31zM559 55q0 18 -13 31t-31 13t-31 -13t-13 -31t13 -31t31 -13t31 13t13 31zM462 143q0 18 -13.5 31t-31.5 13t-31 -13t-13 -31t13 -31t31 -13t31.5 13t13.5 31zM153 445q0 18 -13 31.5t-31 13.5t-31 -13t-13 -31t13 -31.5t31 -13.5t31 13t13 31z
M348 112v112l-87 -71q38 -29 87 -41zM284 226q0 18 -13.5 31t-31.5 13t-31 -13t-13 -31q0 -19 13 -32t31 -13t31.5 13.5t13.5 31.5zM461 41q0 18 -13 31t-31 13t-31 -13t-13 -31t13 -31t31 -13t31 13t13 31zM143 346q0 18 -13 31.5t-31 13.5t-31.5 -13t-13.5 -31t13 -31.5
t31 -13.5t31.5 13t13.5 31zM364 55q0 18 -13 31t-31 13t-31.5 -13t-13.5 -31t13 -31t31 -13t31.5 13t13.5 31zM155 247q0 18 -13 31.5t-31 13.5t-31 -13t-13 -31t13 -31.5t31 -13.5t31 13t13 31zM273 94q0 18 -13 31t-31 13t-31 -13t-13 -31t13 -31t31 -13t31 13t13 31z
M201 159q0 18 -13 31.5t-31 13.5t-31.5 -13t-13.5 -31t13 -31.5t31 -13.5t31.5 13t13.5 31z" />
    <glyph glyph-name="grave" unicode="`" horiz-adv-x="288" 
d="M-14 697l154 -202h112l-93 202h-173zM68 635q0 18 13 31t31 13t31.5 -13t13.5 -31t-13.5 -31t-31.5 -13t-31 13t-13 31zM123 557q0 16 11.5 27.5t27.5 11.5t28 -11.5t12 -27.5t-12 -28t-28 -12t-27.5 12t-11.5 28z" />
    <glyph glyph-name="a" unicode="a" horiz-adv-x="728" 
d="M723 -20h-144l-77 171h-291l-73 -171h-143l310 726h95zM401 643q0 18 -13 31t-31 13t-31.5 -13t-13.5 -31t13.5 -31t31.5 -13t31 13t13 31zM441 560q0 17 -11.5 29t-27.5 12q-17 0 -29 -11.5t-12 -28.5q0 -16 11.5 -28t28.5 -12q16 0 28 11.5t12 27.5zM479 476
q0 17 -12.5 29.5t-29.5 12.5t-30 -12t-13 -29t12.5 -30t29.5 -13t30 12t13 30zM352 561q0 17 -12 28.5t-28 11.5t-27.5 -12t-11.5 -29q0 -16 12 -27.5t28 -11.5t27.5 12t11.5 28zM516 389q0 17 -12.5 29.5t-29.5 12.5t-30 -12t-13 -29q0 -18 12.5 -30.5t29.5 -12.5t30 12
t13 30zM553 301q0 18 -12.5 30.5t-29.5 12.5t-30 -12t-13 -29t12 -30t29 -13q18 0 31 12t13 29zM590 214q0 17 -12.5 30t-29.5 13t-30 -12t-13 -29q0 -18 12 -30.5t30 -12.5q17 0 30 12t13 29zM319 477q0 17 -12.5 29t-30.5 12q-17 0 -29 -12.5t-12 -29.5q0 -18 12.5 -30
t30.5 -12q17 0 29 12.5t12 30.5zM444 279l-92 206l-86 -206h178zM625 128q0 17 -12 30t-30 13q-17 0 -29.5 -12.5t-12.5 -29.5t12 -30t29 -13t30 12.5t13 29.5zM496 216q0 18 -13 31t-30 13q-18 0 -31 -13t-13 -31q0 -17 13 -30t31 -13q17 0 30 13t13 30zM663 41
q0 17 -12 30t-29 13t-30 -12t-13 -30q0 -17 12 -30t30 -13q17 0 29.5 12.5t12.5 29.5zM282 389q0 18 -12.5 30t-30.5 12q-17 0 -29 -12.5t-12 -30.5q0 -17 12.5 -29t30.5 -12q17 0 29 12.5t12 29.5zM400 216q0 18 -12.5 31t-30.5 13t-30.5 -13t-12.5 -31q0 -17 12.5 -30
t30.5 -13t30.5 13t12.5 30zM245 303q0 17 -12.5 29t-30.5 12q-17 0 -29 -13t-12 -30t13 -29t30 -12t29 12.5t12 30.5zM305 216q0 18 -13 31t-31 13q-17 0 -30 -13t-13 -31q0 -17 13 -30t30 -13q18 0 31 13t13 30zM209 216q0 17 -13 29t-30 12q-18 0 -30 -13t-12 -30t13 -29
t30 -12t29.5 12.5t12.5 30.5zM173 129q0 17 -13 29.5t-30 12.5t-29.5 -13t-12.5 -30t13 -29.5t30 -12.5q18 0 30 13t12 30zM135 43q0 17 -13 29t-30 12t-29.5 -13t-12.5 -30t13 -29.5t30 -12.5t29.5 13t12.5 31z" />
    <glyph glyph-name="b" unicode="b" horiz-adv-x="599" 
d="M577 182q0 -99 -80 -154q-71 -48 -174 -48h-284v722h218q96 0 159 -48q71 -53 71 -146q0 -96 -51 -138q65 -22 103 -71t38 -117zM435 583q0 18 -13.5 31t-31.5 13t-31 -13t-13 -31t13 -31t31 -13t31.5 13t13.5 31zM348 632q0 18 -13.5 31t-31.5 13t-31 -13t-13 -31
t13 -31.5t31 -13.5t31.5 13.5t13.5 31.5zM458 492q0 16 -11.5 27.5t-27.5 11.5q-17 0 -28.5 -11.5t-11.5 -27.5t11.5 -27.5t28.5 -11.5q16 0 27.5 11.5t11.5 27.5zM250 639q0 18 -13 31t-31 13t-31.5 -13t-13.5 -31t13.5 -31.5t31.5 -13.5t31 13.5t13 31.5zM416 412
q0 16 -11.5 28t-27.5 12t-28 -12t-12 -28t12 -27.5t28 -11.5t27.5 11.5t11.5 27.5zM503 289q0 34 -25 34q-15 0 -30 -10t-15 -24q0 -15 10.5 -25t24.5 -10t24.5 10t10.5 25zM346 499q0 75 -99 75h-70v-164h45q124 0 124 89zM151 639q0 18 -13 31t-31 13t-31 -13t-13 -31
t13 -31.5t31 -13.5t31 13.5t13 31.5zM432 327q0 15 -10.5 25t-24.5 10t-24.5 -10t-10.5 -25q0 -14 10.5 -24t24.5 -10t24.5 10t10.5 24zM543 209q0 16 -12 28t-28 12t-27.5 -12t-11.5 -28t11.5 -27.5t27.5 -11.5t28 11.5t12 27.5zM351 346q0 18 -13 31t-31 13t-31 -13
t-13 -31t13 -31.5t31 -13.5t31 13.5t13 31.5zM151 540q0 18 -13 31t-31 13t-31 -13t-13 -31t13 -31t31 -13t31 13t13 31zM527 117q0 18 -13.5 31t-31.5 13t-31 -13t-13 -31t13 -31t31 -13t31.5 13t13.5 31zM250 343q0 18 -13 31t-31 13t-31.5 -13t-13.5 -31t13.5 -31
t31.5 -13t31 13t13 31zM151 442q0 18 -13 31t-31 13t-31 -13t-13 -31t13 -31.5t31 -13.5t31 13.5t13 31.5zM436 196q0 86 -131 86h-128v-174h133q126 0 126 88zM447 56q0 18 -13 31t-31 13t-31.5 -13t-13.5 -31t13.5 -31t31.5 -13t31 13t13 31zM151 343q0 18 -13 31t-31 13
t-31 -13t-13 -31t13 -31t31 -13t31 13t13 31zM151 245q0 18 -13 31t-31 13t-31 -13t-13 -31t13 -31.5t31 -13.5t31 13.5t13 31.5zM348 48q0 18 -13 31t-31 13t-31 -13t-13 -31t13 -31.5t31 -13.5t31 13.5t13 31.5zM151 146q0 18 -13 31t-31 13t-31 -13t-13 -31t13 -31
t31 -13t31 13t13 31zM250 48q0 18 -13 31t-31 13t-31.5 -13t-13.5 -31t13.5 -31.5t31.5 -13.5t31 13.5t13 31.5zM151 48q0 18 -13 31t-31 13t-31 -13t-13 -31t13 -31.5t31 -13.5t31 13.5t13 31.5z" />
    <glyph glyph-name="c" unicode="c" horiz-adv-x="671" 
d="M660 44q-139 -73 -267 -73q-160 0 -272 99q-116 103 -116 261q0 168 114 275q111 105 280 105q93 0 254 -68v-153q-155 91 -255 91q-107 0 -178 -67q-74 -68 -74 -174q0 -110 74 -176q71 -63 182 -63q106 0 258 99v-156zM631 594q0 18 -13 31t-31 13t-31 -13t-13 -31
t13 -31t31 -13t31 13t13 31zM541 632q0 18 -13.5 31t-31.5 13t-31 -13t-13 -31t13.5 -31t31.5 -13t31 13t13 31zM443 645q0 18 -13.5 31t-31.5 13t-31 -13t-13 -31t13.5 -31t31.5 -13t31 13t13 31zM344 632q0 18 -13 31t-31 13t-31 -13t-13 -31t13 -31t31 -13t31 13t13 31z
M253 594q0 18 -13 31t-31 13t-31 -13t-13 -31t13 -31t31 -13t31 13t13 31zM631 90q0 18 -13.5 31t-31.5 13t-31 -13t-13 -31t13.5 -31t31.5 -13t31 13t13 31zM180 528q0 19 -13 32t-31 13t-31 -13t-13 -31t13 -31.5t31 -13.5t31 13t13 31zM540 51q0 18 -13 31t-31 13
t-31 -13t-13 -31t13 -31t31 -13t31 13t13 31zM134 441q0 18 -13 31.5t-31 13.5t-31 -13t-13 -31t13 -31.5t31 -13.5t31 13t13 31zM442 37q0 18 -13 31t-31 13t-31 -13t-13 -31t13 -31t31 -13t31 13t13 31zM124 342q0 18 -13 31.5t-31 13.5t-31.5 -13t-13.5 -31t13 -31.5
t31 -13.5t31.5 13t13.5 31zM345 51q0 18 -13 31t-31 13t-31.5 -13t-13.5 -31t13 -31t31 -13t31.5 13t13.5 31zM136 243q0 18 -13 31.5t-31 13.5t-31 -13t-13 -31t13 -31.5t31 -13.5t31 13t13 31zM254 90q0 18 -13 31t-31 13t-31 -13t-13 -31t13 -31t31 -13t31 13t13 31z
M182 155q0 18 -13 31.5t-31 13.5t-31.5 -13t-13.5 -31t13 -31.5t31 -13.5t31.5 13t13.5 31z" />
    <glyph glyph-name="d" unicode="d" horiz-adv-x="747" 
d="M704 341q0 -157 -113 -261q-110 -100 -269 -100h-286v722h285q165 0 272 -97q111 -101 111 -264zM612 527q0 18 -13 31.5t-31 13.5t-31.5 -13.5t-13.5 -31.5t13.5 -31t31.5 -13t31 13t13 31zM539 594q0 18 -13.5 31t-31.5 13t-31 -13t-13 -31t13 -31.5t31 -13.5
t31.5 13.5t13.5 31.5zM661 440q0 18 -13.5 31t-31.5 13t-31 -13t-13 -31t13 -31t31 -13t31.5 13t13.5 31zM447 631q0 18 -13 31t-31 13t-31.5 -13t-13.5 -31t13.5 -31t31.5 -13t31 13t13 31zM675 343q0 18 -13.5 31t-31.5 13t-31 -13t-13 -31t13 -31t31 -13t31.5 13t13.5 31
zM348 639q0 18 -13 31t-31 13t-31 -13t-13 -31t13 -31.5t31 -13.5t31 13.5t13 31.5zM661 246q0 18 -13.5 31t-31.5 13t-31 -13t-13 -31t13 -31t31 -13t31.5 13t13.5 31zM250 639q0 18 -13 31t-31 13t-31.5 -13t-13.5 -31t13.5 -31.5t31.5 -13.5t31 13.5t13 31.5zM151 639
q0 18 -13 31t-31 13t-31 -13t-13 -31t13 -31.5t31 -13.5t31 13.5t13 31.5zM612 159q0 18 -13 31t-31 13t-31.5 -13t-13.5 -31t13.5 -31t31.5 -13t31 13t13 31zM563 341q0 113 -74 175q-69 58 -184 58h-131v-466h136q110 0 181.5 62t71.5 171zM151 540q0 18 -13 31t-31 13
t-31 -13t-13 -31t13 -31t31 -13t31 13t13 31zM539 93q0 18 -13.5 31t-31.5 13t-31 -13t-13 -31t13 -31.5t31 -13.5t31.5 13.5t13.5 31.5zM151 442q0 18 -13 31t-31 13t-31 -13t-13 -31t13 -31.5t31 -13.5t31 13.5t13 31.5zM447 55q0 18 -13 31t-31 13t-31.5 -13t-13.5 -31
t13.5 -31t31.5 -13t31 13t13 31zM151 343q0 18 -13 31t-31 13t-31 -13t-13 -31t13 -31t31 -13t31 13t13 31zM151 245q0 18 -13 31t-31 13t-31 -13t-13 -31t13 -31.5t31 -13.5t31 13.5t13 31.5zM348 48q0 18 -13 31t-31 13t-31 -13t-13 -31t13 -31.5t31 -13.5t31 13.5
t13 31.5zM151 146q0 18 -13 31t-31 13t-31 -13t-13 -31t13 -31t31 -13t31 13t13 31zM250 48q0 18 -13 31t-31 13t-31.5 -13t-13.5 -31t13.5 -31.5t31.5 -13.5t31 13.5t13 31.5zM151 48q0 18 -13 31t-31 13t-31 -13t-13 -31t13 -31.5t31 -13.5t31 13.5t13 31.5z" />
    <glyph glyph-name="e" unicode="e" horiz-adv-x="501" 
d="M468 280h-297v-172h296v-128h-434v722h435v-128h-297v-166h297v-128zM441 639q0 18 -13 31t-31 13t-31 -13t-13 -31t13 -31.5t31 -13.5t31 13.5t13 31.5zM342 639q0 18 -13 31t-31 13t-31 -13t-13 -31t13 -31.5t31 -13.5t31 13.5t13 31.5zM244 639q0 18 -13.5 31
t-31.5 13t-31 -13t-13 -31t13 -31.5t31 -13.5t31.5 13.5t13.5 31.5zM441 343q0 18 -13 31t-31 13t-31 -13t-13 -31t13 -31t31 -13t31 13t13 31zM145 639q0 18 -13 31t-31 13q-19 0 -32 -13t-13 -31t13 -31.5t32 -13.5q18 0 31 13.5t13 31.5zM342 343q0 18 -13 31t-31 13
t-31 -13t-13 -31t13 -31t31 -13t31 13t13 31zM145 540q0 18 -13 31t-31 13q-19 0 -32 -13t-13 -31t13 -31t32 -13q18 0 31 13t13 31zM244 343q0 18 -13.5 31t-31.5 13t-31 -13t-13 -31t13 -31t31 -13t31.5 13t13.5 31zM145 442q0 18 -13 31t-31 13q-19 0 -32 -13t-13 -31
t13 -31.5t32 -13.5q18 0 31 13.5t13 31.5zM441 48q0 18 -13 31t-31 13t-31 -13t-13 -31t13 -31.5t31 -13.5t31 13.5t13 31.5zM145 343q0 18 -13 31t-31 13q-19 0 -32 -13t-13 -31t13 -31t32 -13q18 0 31 13t13 31zM342 48q0 18 -13 31t-31 13t-31 -13t-13 -31t13 -31.5
t31 -13.5t31 13.5t13 31.5zM145 245q0 18 -13 31t-31 13q-19 0 -32 -13t-13 -31t13 -31.5t32 -13.5q18 0 31 13.5t13 31.5zM244 48q0 18 -13.5 31t-31.5 13t-31 -13t-13 -31t13 -31.5t31 -13.5t31.5 13.5t13.5 31.5zM145 146q0 18 -13 31t-31 13q-19 0 -32 -13t-13 -31
t13 -31t32 -13q18 0 31 13t13 31zM145 48q0 18 -13 31t-31 13q-19 0 -32 -13t-13 -31t13 -31.5t32 -13.5q18 0 31 13.5t13 31.5z" />
    <glyph glyph-name="f" unicode="f" horiz-adv-x="475" 
d="M460 279h-296v-299h-138v722h434v-128h-296v-167h296v-128zM435 639q0 18 -13 31t-31 13t-31.5 -13t-13.5 -31t13.5 -31.5t31.5 -13.5t31 13.5t13 31.5zM336 639q0 18 -13 31t-31 13t-31 -13t-13 -31t13 -31.5t31 -13.5t31 13.5t13 31.5zM237 639q0 18 -13 31t-31 13
t-31 -13t-13 -31t13 -31.5t31 -13.5t31 13.5t13 31.5zM435 343q0 18 -13 31t-31 13t-31.5 -13t-13.5 -31t13.5 -31t31.5 -13t31 13t13 31zM138 639q0 18 -13 31t-31 13t-31 -13t-13 -31t13 -31.5t31 -13.5t31 13.5t13 31.5zM336 343q0 18 -13 31t-31 13t-31 -13t-13 -31
t13 -31t31 -13t31 13t13 31zM138 540q0 18 -13 31t-31 13t-31 -13t-13 -31t13 -31t31 -13t31 13t13 31zM237 343q0 18 -13 31t-31 13t-31 -13t-13 -31t13 -31t31 -13t31 13t13 31zM138 442q0 18 -13 31t-31 13t-31 -13t-13 -31t13 -31.5t31 -13.5t31 13.5t13 31.5zM138 343
q0 18 -13 31t-31 13t-31 -13t-13 -31t13 -31t31 -13t31 13t13 31zM138 245q0 18 -13 31t-31 13t-31 -13t-13 -31t13 -31.5t31 -13.5t31 13.5t13 31.5zM138 146q0 18 -13 31t-31 13t-31 -13t-13 -31t13 -31t31 -13t31 13t13 31zM138 48q0 18 -13 31t-31 13t-31 -13t-13 -31
t13 -31.5t31 -13.5t31 13.5t13 31.5z" />
    <glyph glyph-name="g" unicode="g" horiz-adv-x="701" 
d="M673 34q-142 -63 -270 -63q-163 0 -273 102t-110 264t113 269q110 105 273 105q109 0 263 -65v-146q-147 81 -265 81q-103 0 -173 -69t-70 -172q0 -109 73 -174t183 -65q48 0 118 22v105h-108v128h246v-322zM646 594q0 18 -13 31t-31 13t-31 -13t-13 -31t13 -31t31 -13
t31 13t13 31zM555 632q0 18 -13 31t-31 13t-31 -13t-13 -31t13 -31t31 -13t31 13t13 31zM457 645q0 18 -13 31t-31 13t-31 -13t-13 -31t13 -31t31 -13t31 13t13 31zM359 632q0 18 -13 31t-31 13t-31.5 -13t-13.5 -31t13 -31t31 -13t31.5 13t13.5 31zM645 287q0 18 -13 31
t-31 13t-31 -13t-13 -31t13 -31t31 -13t31 13t13 31zM268 594q0 18 -13 31t-31 13t-31 -13t-13 -31t13 -31t31 -13t31 13t13 31zM547 287q0 18 -13.5 31t-31.5 13t-31 -13t-13 -31t13.5 -31t31.5 -13t31 13t13 31zM645 189q0 18 -13 31t-31 13t-31 -13.5t-13 -31.5t13 -31
t31 -13t31 13.5t13 31.5zM645 90q0 18 -13 31t-31 13t-31 -13t-13 -31t13 -31t31 -13t31 13t13 31zM195 528q0 19 -13 32t-31 13t-31.5 -13t-13.5 -31t13 -31.5t31 -13.5q19 0 32 13t13 31zM555 51q0 18 -13.5 31t-31.5 13t-31 -13t-13 -31t13.5 -31t31.5 -13t31 13t13 31z
M149 441q0 18 -13 31.5t-31 13.5t-31.5 -13t-13.5 -31t13 -31.5t31 -13.5t31.5 13t13.5 31zM457 37q0 18 -13 31t-31 13t-31 -13t-13 -31t13 -31t31 -13t31 13t13 31zM138 342q0 18 -13 31.5t-31 13.5t-31 -13t-13 -31t13 -31.5t31 -13.5t31 13t13 31zM359 51q0 18 -13 31
t-31 13t-31 -13t-13 -31t13 -31t31 -13t31 13t13 31zM151 243q0 18 -13 31.5t-31 13.5t-31.5 -13t-13.5 -31t13 -31.5t31 -13.5q19 0 32 13t13 31zM269 90q0 18 -13 31t-31 13t-31.5 -13t-13.5 -31t13 -31t31 -13t31.5 13t13.5 31zM196 155q0 18 -13 31.5t-31 13.5t-31 -13
t-13 -31t13 -31.5t31 -13.5t31 13t13 31z" />
    <glyph glyph-name="h" unicode="h" horiz-adv-x="745" 
d="M678 -20h-138v297h-354v-297h-138v722h138v-297h354v297h138v-722zM655 639q0 18 -13 31t-31 13t-31 -13t-13 -31t13 -31.5t31 -13.5t31 13.5t13 31.5zM655 540q0 18 -13 31t-31 13t-31 -13t-13 -31t13 -31t31 -13t31 13t13 31zM655 442q0 18 -13 31t-31 13t-31 -13
t-13 -31t13 -31.5t31 -13.5t31 13.5t13 31.5zM655 343q0 18 -13 31t-31 13t-31 -13t-13 -31t13 -31t31 -13t31 13t13 31zM655 245q0 18 -13 31t-31 13t-31 -13t-13 -31t13 -31.5t31 -13.5t31 13.5t13 31.5zM557 343q0 18 -13.5 31t-31.5 13t-31 -13t-13 -31t13 -31t31 -13
t31.5 13t13.5 31zM655 146q0 18 -13 31t-31 13t-31 -13t-13 -31t13 -31t31 -13t31 13t13 31zM458 343q0 18 -13 31t-31 13t-31 -13t-13 -31t13 -31t31 -13t31 13t13 31zM162 639q0 18 -13.5 31t-31.5 13t-31 -13t-13 -31t13 -31.5t31 -13.5t31.5 13.5t13.5 31.5zM655 48
q0 18 -13 31t-31 13t-31 -13t-13 -31t13 -31.5t31 -13.5t31 13.5t13 31.5zM359 343q0 18 -13 31t-31 13t-31 -13t-13 -31t13 -31t31 -13t31 13t13 31zM162 540q0 18 -13.5 31t-31.5 13t-31 -13t-13 -31t13 -31t31 -13t31.5 13t13.5 31zM260 343q0 18 -13 31t-31 13t-31 -13
t-13 -31t13 -31t31 -13t31 13t13 31zM162 442q0 18 -13.5 31t-31.5 13t-31 -13t-13 -31t13 -31.5t31 -13.5t31.5 13.5t13.5 31.5zM162 343q0 18 -13.5 31t-31.5 13t-31 -13t-13 -31t13 -31t31 -13t31.5 13t13.5 31zM162 245q0 18 -13.5 31t-31.5 13t-31 -13t-13 -31
t13 -31.5t31 -13.5t31.5 13.5t13.5 31.5zM162 146q0 18 -13.5 31t-31.5 13t-31 -13t-13 -31t13 -31t31 -13t31.5 13t13.5 31zM162 48q0 18 -13.5 31t-31.5 13t-31 -13t-13 -31t13 -31.5t31 -13.5t31.5 13.5t13.5 31.5z" />
    <glyph glyph-name="i" unicode="i" horiz-adv-x="251" 
d="M186 -20h-138v722h138v-722zM162 639q0 18 -13.5 31t-31.5 13t-31 -13t-13 -31t13 -31.5t31 -13.5t31.5 13.5t13.5 31.5zM162 540q0 18 -13.5 31t-31.5 13t-31 -13t-13 -31t13 -31t31 -13t31.5 13t13.5 31zM162 442q0 18 -13.5 31t-31.5 13t-31 -13t-13 -31t13 -31.5
t31 -13.5t31.5 13.5t13.5 31.5zM162 343q0 18 -13.5 31t-31.5 13t-31 -13t-13 -31t13 -31t31 -13t31.5 13t13.5 31zM162 245q0 18 -13.5 31t-31.5 13t-31 -13t-13 -31t13 -31.5t31 -13.5t31.5 13.5t13.5 31.5zM162 146q0 18 -13.5 31t-31.5 13t-31 -13t-13 -31t13 -31
t31 -13t31.5 13t13.5 31zM162 48q0 18 -13.5 31t-31.5 13t-31 -13t-13 -31t13 -31.5t31 -13.5t31.5 13.5t13.5 31.5z" />
    <glyph glyph-name="j" unicode="j" horiz-adv-x="365" 
d="M301 -8q0 -242 -208 -242q-13 0 -47 4l-25 129q96 0 119 22.5t23 115.5v681h138v-710zM276 639q0 18 -13 31t-31 13t-31.5 -13t-13.5 -31t13.5 -31.5t31.5 -13.5t31 13.5t13 31.5zM276 540q0 18 -13 31t-31 13t-31.5 -13t-13.5 -31t13.5 -31t31.5 -13t31 13t13 31z
M276 442q0 18 -13 31t-31 13t-31.5 -13t-13.5 -31t13.5 -31.5t31.5 -13.5t31 13.5t13 31.5zM276 343q0 18 -13 31t-31 13t-31.5 -13t-13.5 -31t13.5 -31t31.5 -13t31 13t13 31zM276 245q0 18 -13 31t-31 13t-31.5 -13t-13.5 -31t13.5 -31.5t31.5 -13.5t31 13.5t13 31.5z
M276 146q0 18 -13 31t-31 13t-31.5 -13t-13.5 -31t13.5 -31t31.5 -13t31 13t13 31zM276 48q0 18 -13 31t-31 13t-31.5 -13t-13.5 -31t13.5 -31.5t31.5 -13.5t31 13.5t13 31.5zM276 -51q0 18 -13 31t-31 13t-31.5 -13t-13.5 -31t13.5 -31t31.5 -13t31 13t13 31zM237 -142
q0 18 -13 31t-31 13t-31 -13t-13 -31t13 -31.5t31 -13.5t31 13.5t13 31.5zM147 -182q0 18 -13.5 31t-31.5 13t-31 -13t-13 -31t13 -31.5t31 -13.5t31.5 13.5t13.5 31.5z" />
    <glyph glyph-name="k" unicode="k" horiz-adv-x="586" 
d="M621 -20h-188l-258 303v-303h-138v722h138v-300l268 300h175l-314 -363zM518 638q0 18 -13 31.5t-31 13.5t-31 -13.5t-13 -31.5t13 -31t31 -13t31 13t13 31zM453 565q0 18 -13 31t-31 13t-31.5 -13t-13.5 -31t13.5 -31.5t31.5 -13.5t31 13.5t13 31.5zM388 491
q0 18 -13.5 31t-31.5 13t-31 -13t-13 -31t13 -31t31 -13t31.5 13t13.5 31zM150 639q0 18 -13 31t-31 13t-31.5 -13t-13.5 -31t13.5 -31.5t31.5 -13.5t31 13.5t13 31.5zM322 417q0 18 -13 31t-31 13t-31 -13t-13 -31t13 -31t31 -13t31 13t13 31zM150 540q0 18 -13 31t-31 13
t-31.5 -13t-13.5 -31t13.5 -31t31.5 -13t31 13t13 31zM257 343q0 18 -13 31.5t-31 13.5t-31.5 -13t-13.5 -31q0 -19 13.5 -32t31.5 -13t31 13t13 31zM150 442q0 18 -13 31t-31 13t-31.5 -13t-13.5 -31t13.5 -31.5t31.5 -13.5t31 13.5t13 31.5zM321 269q0 18 -13 31t-31 13
t-31 -13t-13 -31t13 -31t31 -13t31 13t13 31zM385 194q0 18 -13 31t-31 13t-31 -13t-13 -31t13 -31t31 -13t31 13t13 31zM450 120q0 18 -13.5 31t-31.5 13t-31 -13t-13 -31t13 -31.5t32 -13.5q18 0 31 13.5t13 31.5zM514 45q0 18 -13 31t-31 13t-31 -13t-13 -31t13 -31
t31 -13t31 13t13 31zM150 343q0 18 -13 31t-31 13t-31.5 -13t-13.5 -31t13.5 -31t31.5 -13t31 13t13 31zM150 245q0 18 -13 31t-31 13t-31.5 -13t-13.5 -31t13.5 -31.5t31.5 -13.5t31 13.5t13 31.5zM150 146q0 18 -13 31t-31 13t-31.5 -13t-13.5 -31t13.5 -31t31.5 -13
t31 13t13 31zM150 48q0 18 -13 31t-31 13t-31.5 -13t-13.5 -31t13.5 -31.5t31.5 -13.5t31 13.5t13 31.5z" />
    <glyph glyph-name="l" unicode="l" horiz-adv-x="467" 
d="M454 -20h-433v722h138v-594h295v-128zM131 639q0 18 -13 31t-31 13t-31 -13t-13 -31t13 -31.5t31 -13.5t31 13.5t13 31.5zM131 540q0 18 -13 31t-31 13t-31 -13t-13 -31t13 -31t31 -13t31 13t13 31zM131 442q0 18 -13 31t-31 13t-31 -13t-13 -31t13 -31.5t31 -13.5
t31 13.5t13 31.5zM131 343q0 18 -13 31t-31 13t-31 -13t-13 -31t13 -31t31 -13t31 13t13 31zM427 48q0 18 -13.5 31t-31.5 13t-31 -13t-13 -31t13 -31.5t31 -13.5t31.5 13.5t13.5 31.5zM131 245q0 18 -13 31t-31 13t-31 -13t-13 -31t13 -31.5t31 -13.5t31 13.5t13 31.5z
M328 48q0 18 -13 31t-31 13t-31 -13t-13 -31t13 -31.5t31 -13.5t31 13.5t13 31.5zM131 146q0 18 -13 31t-31 13t-31 -13t-13 -31t13 -31t31 -13t31 13t13 31zM230 48q0 18 -13.5 31t-31.5 13t-31 -13t-13 -31t13 -31.5t31 -13.5t31.5 13.5t13.5 31.5zM131 48q0 18 -13 31
t-31 13t-31 -13t-13 -31t13 -31.5t31 -13.5t31 13.5t13 31.5z" />
    <glyph glyph-name="m" unicode="m" horiz-adv-x="796" 
d="M734 -20h-140v497l-185 -230h-36l-185 230v-497h-140v722h123l220 -268l221 268h122v-722zM706 637q0 18 -13 31.5t-31 13.5t-31 -13.5t-13 -31.5t13 -31t31 -13t31 13t13 31zM706 539q0 15 -11 26t-26 11t-26 -11t-11 -26t11 -26t26 -11t26 11t11 26zM625 566
q0 15 -11 26t-26 11t-26 -11t-11 -26t11 -26t26 -11t26 11t11 26zM706 440q0 18 -13 31.5t-31 13.5t-31 -13.5t-13 -31.5t13 -31t31 -13t31 13t13 31zM568 490q0 18 -13 31t-31 13t-31 -13t-13 -31t13 -31.5t31 -13.5t31 13.5t13 31.5zM706 342q0 18 -13 31t-31 13t-31 -13
t-13 -31t13 -31t31 -13t31 13t13 31zM706 243q0 18 -13 31.5t-31 13.5t-31 -13.5t-13 -31.5t13 -31t31 -13t31 13t13 31zM500 416q0 18 -13 31t-31 13t-31 -13t-13 -31t13 -31t31 -13t31 13t13 31zM706 145q0 18 -13 31t-31 13t-31 -13t-13 -31t13 -31t31 -13t31 13t13 31z
M228 566q0 15 -11 26t-26 11t-25.5 -11t-10.5 -26t10.5 -26t25.5 -11t26 11t11 26zM162 637q0 18 -13 31.5t-31 13.5t-31.5 -13.5t-13.5 -31.5t13.5 -31t31.5 -13t31 13t13 31zM296 490q0 18 -13 31t-31 13t-31.5 -13t-13.5 -31t13.5 -31.5t31.5 -13.5t31 13.5t13 31.5z
M364 416q0 18 -13 31t-31 13t-31.5 -13t-13.5 -31t13.5 -31t31.5 -13t31 13t13 31zM432 342q0 18 -13 31t-31 13t-31 -13t-13 -31t13 -31t31 -13t31 13t13 31zM706 46q0 18 -13 31.5t-31 13.5t-31 -13.5t-13 -31.5t13 -31t31 -13t31 13t13 31zM148 539q0 15 -11 26t-26 11
t-26 -11t-11 -26t11 -26t26 -11t26 11t11 26zM162 440q0 18 -13 31.5t-31 13.5t-31.5 -13.5t-13.5 -31.5t13.5 -31t31.5 -13t31 13t13 31zM162 342q0 18 -13 31t-31 13t-31.5 -13t-13.5 -31t13.5 -31t31.5 -13t31 13t13 31zM162 243q0 18 -13 31.5t-31 13.5t-31.5 -13.5
t-13.5 -31.5t13.5 -31t31.5 -13t31 13t13 31zM162 145q0 18 -13 31t-31 13t-31.5 -13t-13.5 -31t13.5 -31t31.5 -13t31 13t13 31zM162 46q0 18 -13 31.5t-31 13.5t-31.5 -13.5t-13.5 -31.5t13.5 -31t31.5 -13t31 13t13 31z" />
    <glyph glyph-name="n" unicode="n" horiz-adv-x="796" 
d="M729 -20h-114l-431 492v-492h-133v722h108l437 -495v495h133v-722zM706 637q0 18 -13 31.5t-31 13.5t-31 -13.5t-13 -31.5t13 -31t31 -13t31 13t13 31zM706 539q0 18 -13 31t-31 13t-31 -13t-13 -31t13 -31t31 -13t31 13t13 31zM706 440q0 18 -13 31.5t-31 13.5
t-31 -13.5t-13 -31.5t13 -31t31 -13t31 13t13 31zM706 342q0 18 -13 31t-31 13t-31 -13t-13 -31t13 -31t31 -13t31 13t13 31zM706 243q0 18 -13 31.5t-31 13.5t-31 -13.5t-13 -31.5t13 -31t31 -13t31 13t13 31zM706 145q0 15 -11 25.5t-26 10.5t-26 -10.5t-11 -25.5t11 -26
t26 -11t26 11t11 26zM228 566q0 15 -11 26t-26 11t-25.5 -11t-10.5 -26t10.5 -26t25.5 -11t26 11t11 26zM162 637q0 18 -13 31.5t-31 13.5t-31.5 -13.5t-13.5 -31.5t13.5 -31t31.5 -13t31 13t13 31zM298 490q0 18 -13 31t-31 13t-31.5 -13t-13.5 -31t13.5 -31.5t31.5 -13.5
t31 13.5t13 31.5zM366 416q0 18 -13 31t-31 13t-31 -13t-13 -31t13 -31t31 -13t31 13t13 31zM434 342q0 18 -13 31t-31 13t-31 -13t-13 -31t13 -31t31 -13t31 13t13 31zM502 268q0 18 -13 31t-31 13t-31 -13t-13 -31t13 -31t31 -13t31 13t13 31zM570 194q0 18 -13 31t-31 13
t-31 -13t-13 -31t13 -31t31 -13t31 13t13 31zM706 46q0 18 -13 31.5t-31 13.5t-31 -13.5t-13 -31.5t13 -31t31 -13t31 13t13 31zM625 118q0 15 -11 26t-26 11t-26 -11t-11 -26t11 -26t26 -11t26 11t11 26zM148 539q0 15 -11 26t-26 11t-26 -11t-11 -26t11 -26t26 -11t26 11
t11 26zM162 440q0 18 -13 31.5t-31 13.5t-31.5 -13.5t-13.5 -31.5t13.5 -31t31.5 -13t31 13t13 31zM162 342q0 18 -13 31t-31 13t-31.5 -13t-13.5 -31t13.5 -31t31.5 -13t31 13t13 31zM162 243q0 18 -13 31.5t-31 13.5t-31.5 -13.5t-13.5 -31.5t13.5 -31t31.5 -13t31 13
t13 31zM162 145q0 18 -13 31t-31 13t-31.5 -13t-13.5 -31t13.5 -31t31.5 -13t31 13t13 31zM162 46q0 18 -13 31.5t-31 13.5t-31.5 -13.5t-13.5 -31.5t13.5 -31t31.5 -13t31 13t13 31z" />
    <glyph glyph-name="o" unicode="o" horiz-adv-x="849" 
d="M807 344q0 -164 -116 -269q-111 -101 -277 -101q-163 0 -274 103q-114 105 -114 267q0 163 115 268q111 102 275 102q166 0 276 -101q115 -105 115 -269zM723 533q0 18 -13 31t-31 13t-31 -13.5t-13 -31.5t13 -31t31 -13t31 13.5t13 31.5zM650 598q0 18 -13 31t-31 13
t-31 -13t-13 -31t13 -31t31 -13t31 13t13 31zM770 446q0 18 -13.5 31t-31.5 13t-31 -13.5t-13 -31.5t13.5 -31t31.5 -13t31 13.5t13 31.5zM560 636q0 18 -13.5 31t-31.5 13t-31 -13t-13 -31t13 -31t31 -13q19 0 32 13t13 31zM780 347q0 18 -13 31t-32 13q-18 0 -31 -13.5
t-13 -31.5t13.5 -31t31.5 -13t31 13.5t13 31.5zM462 649q0 18 -13.5 31t-31.5 13t-31 -13t-13 -31t13.5 -31t31.5 -13t31 13t13 31zM767 248q0 18 -13 31t-31 13t-31 -13.5t-13 -31.5t13 -31t31 -13t31 13.5t13 31.5zM363 636q0 18 -13 31t-31 13t-31 -13t-13 -31t13 -31
t31 -13t31 13t13 31zM722 160q0 18 -13 31t-31 13t-31 -13.5t-13 -31.5t13 -31t31 -13t31 13.5t13 31.5zM272 598q0 18 -13 31t-31 13t-31 -13t-13 -31t13 -31t31 -13t31 13t13 31zM665 344q0 105 -71.5 172.5t-177.5 67.5t-177 -67.5t-71 -172.5t71 -172.5t177 -67.5
t177.5 67.5t71.5 172.5zM649 94q0 18 -13 31t-31 13t-31 -13t-13 -31t13 -31t31 -13t31 13t13 31zM199 532q0 18 -13 31.5t-31 13.5t-31 -13t-13 -31t13 -31.5t31 -13.5t31 13t13 31zM559 55q0 18 -13 31t-31 13t-31 -13t-13 -31t13 -31t31 -13t31 13t13 31zM153 445
q0 18 -13 31.5t-31 13.5t-31 -13t-13 -31t13 -31.5t31 -13.5t31 13t13 31zM461 41q0 18 -13 31t-31 13t-31 -13t-13 -31t13 -31t31 -13t31 13t13 31zM143 346q0 18 -13 31.5t-31 13.5t-31.5 -13t-13.5 -31t13 -31.5t31 -13.5t31.5 13t13.5 31zM364 55q0 18 -13 31t-31 13
t-31.5 -13t-13.5 -31t13 -31t31 -13t31.5 13t13.5 31zM155 247q0 18 -13 31.5t-31 13.5t-31 -13t-13 -31t13 -31.5t31 -13.5t31 13t13 31zM273 94q0 18 -13 31t-31 13t-31 -13t-13 -31t13 -31t31 -13t31 13t13 31zM201 159q0 18 -13 31.5t-31 13.5t-31.5 -13t-13.5 -31
t13 -31.5t31 -13.5t31.5 13t13.5 31z" />
    <glyph glyph-name="p" unicode="p" horiz-adv-x="501" 
d="M480 486q0 -133 -97 -180q-64 -31 -215 -31v-295h-138v722h223q105 0 166 -56t61 -160zM425 587q0 18 -13 31t-31 13t-31 -13t-13 -31t13 -31t31 -13t31 13t13 31zM340 638q0 18 -13 31t-31 13t-31.5 -13t-13.5 -31t13.5 -31t31.5 -13t31 13t13 31zM451 493q0 18 -13 31
t-31 13t-31 -13t-13 -31t13 -31t31 -13t31 13t13 31zM241 637q0 18 -13 31.5t-31 13.5t-31 -13.5t-13 -31.5t13 -31t31 -13t31 13t13 31zM422 398q0 18 -13 31t-31 13t-31 -13t-13 -31t13 -31t31 -13t31 13t13 31zM339 490q0 84 -86 84h-85v-171h71q44 0 72 22t28 65z
M143 637q0 18 -13 31.5t-31 13.5t-31.5 -13.5t-13.5 -31.5t13.5 -31t31.5 -13t31 13t13 31zM340 346q0 18 -13 31.5t-31 13.5t-31.5 -13.5t-13.5 -31.5t13.5 -31t31.5 -13t31 13t13 31zM143 539q0 18 -13 31t-31 13t-31.5 -13t-13.5 -31t13.5 -31t31.5 -13t31 13t13 31z
M143 440q0 18 -13 31.5t-31 13.5t-31.5 -13.5t-13.5 -31.5t13.5 -31t31.5 -13t31 13t13 31zM241 342q0 18 -13 31t-31 13t-31 -13t-13 -31t13 -31t31 -13t31 13t13 31zM143 342q0 18 -13 31t-31 13t-31.5 -13t-13.5 -31t13.5 -31t31.5 -13t31 13t13 31zM143 243
q0 18 -13 31.5t-31 13.5t-31.5 -13.5t-13.5 -31.5t13.5 -31t31.5 -13t31 13t13 31zM143 145q0 18 -13 31t-31 13t-31.5 -13t-13.5 -31t13.5 -31t31.5 -13t31 13t13 31zM143 46q0 18 -13 31.5t-31 13.5t-31.5 -13.5t-13.5 -31.5t13.5 -31t31.5 -13t31 13t13 31z" />
    <glyph glyph-name="q" unicode="q" horiz-adv-x="853" 
d="M807 339q0 -116 -68 -210t-178 -133q87 -33 140 -33q27 0 62 11l26 -26l-110 -108q-178 13 -354 141q-133 26 -217 126t-84 234q0 168 118 271q112 99 282 99q162 0 272.5 -105.5t110.5 -266.5zM729 520q0 18 -13 31t-31 13t-31 -13t-13 -31t13 -31.5t31 -13.5t31 13.5
t13 31.5zM661 587q0 18 -13 31t-31 13t-31 -13t-13 -31t13 -31t31 -13t31 13t13 31zM575 630q0 18 -13.5 31t-31.5 13t-31 -13t-13 -31t13 -31t31 -13t31.5 13t13.5 31zM767 429q0 18 -13 31t-31 13t-31.5 -13t-13.5 -31t13.5 -31t31.5 -13t31 13t13 31zM479 651
q0 18 -13 31.5t-31 13.5t-31 -13.5t-13 -31.5t13 -31t31 -13t31 13t13 31zM780 330q0 18 -13 31t-31 13t-31 -13t-13 -31t13 -31t31 -13t31 13t13 31zM381 639q0 18 -13 31t-31 13t-31 -13t-13 -31t13 -31.5t31 -13.5t31 13.5t13 31.5zM759 233q0 18 -13 31.5t-31 13.5
t-31 -13.5t-13 -31.5t13 -31t31 -13t31 13t13 31zM289 600q0 18 -13 31.5t-31 13.5t-31 -13.5t-13 -31.5t13 -31t31 -13t31 13t13 31zM706 151q0 18 -13 31t-31 13t-31 -13t-13 -31t13 -31t31 -13t31 13t13 31zM665 338q0 105 -70 174t-175 69q-110 0 -182 -66t-72 -175
q0 -112 73 -177q70 -62 183 -62q102 0 172.5 68t70.5 169zM212 540q0 18 -13.5 31t-31.5 13t-31 -13t-13 -31t13 -31t31 -13t31.5 13t13.5 31zM629 90q0 18 -13 31.5t-31 13.5t-31.5 -13.5t-13.5 -31.5t13.5 -31t31.5 -13t31 13t13 31zM708 -89q0 18 -13 31.5t-31 13.5
t-31 -13t-13 -31t13 -31.5t31 -13.5t31 13t13 31zM158 458q0 18 -13 31.5t-31 13.5t-31.5 -13.5t-13.5 -31.5t13 -31t31 -13t31.5 13t13.5 31zM539 52q0 17 -12.5 29.5t-29.5 12.5t-29 -12.5t-12 -29.5t12 -29t29 -12t29.5 12t12.5 29zM611 -70q0 18 -13 31t-31 13
t-31.5 -13t-13.5 -31t13 -31t31 -13t31.5 13t13.5 31zM136 362q0 18 -13 31t-31 13t-31.5 -13t-13.5 -31t13 -31t31 -13t31.5 13t13.5 31zM514 -39q0 17 -12 29t-29 12t-29.5 -12t-12.5 -29t12 -29.5t29 -12.5t29.5 12.5t12.5 29.5zM435 15q0 18 -13.5 31t-31.5 13t-31 -13
t-13 -31t13 -31t31 -13t31.5 13t13.5 31zM151 264q0 18 -13 31t-31 13t-31 -13t-13 -31t13 -31t31 -13t31 13t13 31zM343 54q0 18 -13.5 31t-31.5 13t-31 -13t-13 -31t13 -31.5t31 -13.5t31.5 13.5t13.5 31.5zM189 171q0 18 -13 31.5t-31 13.5t-31 -13.5t-13 -31.5t13 -31
t31 -13t31 13t13 31zM256 98q0 18 -13.5 31.5t-31.5 13.5t-31 -13t-13 -32q0 -18 13 -31t31 -13t31.5 13t13.5 31z" />
    <glyph glyph-name="r" unicode="r" horiz-adv-x="591" 
d="M673 -20h-167q-64 100 -97 147q-73 103 -109 128q-32 22 -111 21h-14v-296h-138v722h202q105 0 171 -52q73 -56 73 -159q0 -106 -74 -154q65 -58 141 -171q61 -93 123 -186zM430 587q0 18 -13.5 31t-31.5 13t-31 -13t-13 -31t13 -31t31 -13t31.5 13t13.5 31zM344 638
q0 18 -13 31t-31 13t-31 -13t-13 -31t13 -31t31 -13t31 13t13 31zM455 493q0 18 -13 31t-31 13t-31 -13t-13 -31t13 -31t31 -13t31 13t13 31zM246 637q0 18 -13.5 31.5t-31.5 13.5t-31 -13.5t-13 -31.5t13 -31t31 -13t31.5 13t13.5 31zM427 398q0 18 -13.5 31t-31.5 13
t-31 -13t-13 -31t13 -31t31 -13t31.5 13t13.5 31zM342 495q0 83 -114 83h-53v-174h53q114 0 114 91zM147 637q0 18 -13 31.5t-31 13.5t-31 -13.5t-13 -31.5t13 -31t31 -13t31 13t13 31zM344 346q0 18 -13 31.5t-31 13.5t-31 -13.5t-13 -31.5t13 -31t31 -13t31 13t13 31z
M412 277q0 18 -13 31t-31 13t-31 -13t-13 -31t13 -31t31 -13t31 13t13 31zM147 539q0 18 -13 31t-31 13t-31 -13t-13 -31t13 -31t31 -13t31 13t13 31zM478 205q0 19 -13 32t-31 13t-31 -13t-13 -32q0 -18 13 -31t31 -13t31 13t13 31zM534 127q0 18 -13 31t-31 13t-31 -13
t-13 -31t13 -31t31 -13t31 13t13 31zM586 45q0 18 -13 31t-31 13t-31 -13t-13 -31t13 -31t31 -13t31 13t13 31zM147 440q0 18 -13 31.5t-31 13.5t-31 -13.5t-13 -31.5t13 -31t31 -13t31 13t13 31zM246 342q0 18 -13.5 31t-31.5 13t-31 -13t-13 -31t13 -31t31 -13t31.5 13
t13.5 31zM147 342q0 18 -13 31t-31 13t-31 -13t-13 -31t13 -31t31 -13t31 13t13 31zM147 243q0 18 -13 31.5t-31 13.5t-31 -13.5t-13 -31.5t13 -31t31 -13t31 13t13 31zM147 145q0 18 -13 31t-31 13t-31 -13t-13 -31t13 -31t31 -13t31 13t13 31zM147 46q0 18 -13 31.5
t-31 13.5t-31 -13.5t-13 -31.5t13 -31t31 -13t31 13t13 31z" />
    <glyph glyph-name="s" unicode="s" horiz-adv-x="480" 
d="M451 176q0 -90 -60.5 -147.5t-150.5 -57.5q-114 0 -211 73v192q49 -63 86 -92q55 -45 114 -45q34 0 60 16q31 18 31 50q0 49 -76 100q-71 48 -143 95q-76 66 -76 149q0 96 67 151q62 51 160 51q86 0 172 -57v-168q-103 97 -180 97q-33 0 -58 -14q-30 -16 -30 -47
q0 -44 76 -90q121 -73 143 -92q76 -68 76 -164zM405 616q0 18 -13 31t-31 13t-31 -13.5t-13 -31.5t13 -31t31 -13t31 13.5t13 31.5zM312 648q0 18 -13 31t-31 13t-31 -13t-13 -31t13.5 -31t31.5 -13t30.5 13t12.5 31zM215 635q0 18 -13.5 31t-31.5 13t-31 -13.5t-13 -31.5
q0 -17 13.5 -30t31.5 -13t31 13t13 31zM142 570q0 18 -13.5 31t-30.5 13q-18 0 -31 -13.5t-13 -31.5t13 -30.5t31 -12.5t31 13t13 31zM377 294q0 18 -13.5 31t-31.5 13t-31 -13.5t-13 -31.5t13.5 -31t31.5 -13t31 13.5t13 31.5zM294 347q0 18 -13.5 31t-31.5 13
q-17 0 -30 -13t-13 -31t13 -31t31 -13t31 13t13 31zM424 207q0 18 -13.5 31t-31.5 13t-31 -13.5t-13 -31.5t13.5 -31t31.5 -13t31 13.5t13 31.5zM143 472q0 18 -13.5 31t-31.5 13t-30.5 -13.5t-12.5 -31.5t13 -31t31 -13t31 13.5t13 31.5zM208 399q0 18 -13 31t-31 13
t-31 -13.5t-13 -31.5t13 -31t31 -13t31 13.5t13 31.5zM409 109q0 18 -13.5 31t-31.5 13t-31 -13.5t-13 -31.5q0 -17 13.5 -30t31.5 -13t31 13t13 31zM331 49q0 18 -13.5 31t-31.5 13t-31 -13.5t-13 -31.5q0 -17 13.5 -30t31.5 -13t31 13t13 31zM233 48q0 18 -13.5 31
t-31.5 13t-30.5 -13t-12.5 -31t13 -31t31 -13t31 13.5t13 30.5zM143 83q0 18 -13.5 31t-31.5 13t-31 -13.5t-13 -31.5t13.5 -31t31.5 -13t31 13.5t13 31.5z" />
    <glyph glyph-name="t" unicode="t" horiz-adv-x="560" 
d="M542 574h-200v-594h-138v594h-200v128h538v-128zM514 637q0 18 -13 31.5t-31 13.5t-31 -13.5t-13 -31.5t13 -31t31 -13t31 13t13 31zM416 637q0 18 -13 31.5t-31 13.5q-19 0 -32 -13.5t-13 -31.5t13 -31t32 -13q18 0 31 13t13 31zM317 637q0 18 -13 31.5t-31 13.5
t-31 -13.5t-13 -31.5t13 -31t31 -13t31 13t13 31zM317 539q0 18 -13 31t-31 13t-31 -13t-13 -31t13 -31t31 -13t31 13t13 31zM219 637q0 18 -13 31.5t-31 13.5t-31.5 -13.5t-13.5 -31.5t13.5 -31t31.5 -13t31 13t13 31zM317 440q0 18 -13 31.5t-31 13.5t-31 -13.5t-13 -31.5
t13 -31t31 -13t31 13t13 31zM120 637q0 18 -13 31.5t-31 13.5t-31 -13.5t-13 -31.5t13 -31t31 -13t31 13t13 31zM317 342q0 18 -13 31t-31 13t-31 -13t-13 -31t13 -31t31 -13t31 13t13 31zM317 243q0 18 -13 31.5t-31 13.5t-31 -13.5t-13 -31.5t13 -31t31 -13t31 13t13 31z
M317 145q0 18 -13 31t-31 13t-31 -13t-13 -31t13 -31t31 -13t31 13t13 31zM317 46q0 18 -13 31.5t-31 13.5t-31 -13.5t-13 -31.5t13 -31t31 -13t31 13t13 31z" />
    <glyph glyph-name="u" unicode="u" horiz-adv-x="691" 
d="M628 268q0 -146 -78 -221.5t-225 -75.5q-133 0 -208.5 77t-75.5 210v444h138v-423q0 -178 148 -178q95 0 131 45q32 40 32 139v417h138v-434zM606 638q0 18 -13.5 31t-31.5 13t-31 -13t-13 -31t13 -31t31 -13t31.5 13t13.5 31zM606 540q0 18 -13.5 31t-31.5 13t-31 -13
t-13 -31t13 -31.5t31 -13.5t31.5 13.5t13.5 31.5zM606 441q0 18 -13.5 31t-31.5 13t-31 -13t-13 -31t13 -31t31 -13t31.5 13t13.5 31zM606 343q0 18 -13.5 31t-31.5 13t-31 -13t-13 -31t13 -31t31 -13t31.5 13t13.5 31zM606 243q0 18 -13.5 31t-31.5 13t-31 -13t-13 -31
t13 -31t31 -13t31.5 13t13.5 31zM157 638q0 18 -13 31t-31 13t-31 -13t-13 -31t13 -31t31 -13t31 13t13 31zM591 147q0 18 -13 31t-31 13t-31 -13t-13 -31t13 -31.5t31 -13.5t31 13.5t13 31.5zM157 540q0 18 -13 31t-31 13t-31 -13t-13 -31t13 -31.5t31 -13.5t31 13.5
t13 31.5zM526 75q0 18 -13 31t-31 13t-31 -13t-13 -31t13 -31t31 -13t31 13t13 31zM157 441q0 18 -13 31t-31 13t-31 -13t-13 -31t13 -31t31 -13t31 13t13 31zM157 343q0 18 -13 31t-31 13t-31 -13t-13 -31t13 -31t31 -13t31 13t13 31zM431 45q0 18 -13.5 31.5t-31.5 13.5
t-31 -13.5t-13 -31.5t13 -31t31 -13t31.5 13t13.5 31zM157 243q0 18 -13 31t-31 13t-31 -13t-13 -31t13 -31t31 -13t31 13t13 31zM332 45q0 18 -13 31.5t-31 13.5t-31 -13.5t-13 -31.5t13 -31t31 -13t31 13t13 31zM172 147q0 18 -13 31t-32 13q-18 0 -31 -13t-13 -31
t13 -31.5t31 -13.5q19 0 32 13.5t13 31.5zM237 75q0 18 -13 31t-31 13t-31.5 -13t-13.5 -31t13.5 -31t31.5 -13t31 13t13 31z" />
    <glyph glyph-name="v" unicode="v" horiz-adv-x="649" 
d="M646 706l-303 -728h-46l-307 728h141l187 -448l188 448h140zM594 640q0 18 -13 31t-31 13q-19 0 -32 -13t-13 -31t13 -31t31 -13t31.5 13t13.5 31zM555 549q0 18 -13 31.5t-31 13.5t-31 -13.5t-13 -31.5t13 -31t31 -13t31 13t13 31zM517 459q0 18 -13 31t-31 13
t-31.5 -13t-13.5 -31t13 -31.5t31 -13.5t31.5 13.5t13.5 31.5zM478 368q0 18 -13 31t-31 13t-31 -13t-13 -31t13 -31t31 -13t31 13t13 31zM133 642q0 18 -13.5 31t-31.5 13t-31 -13t-13 -31t13 -31t31 -13t31.5 13t13.5 31zM171 551q0 18 -13 31.5t-31 13.5t-31 -13.5
t-13 -31.5t13 -31t31 -13t31 13t13 31zM440 280q0 18 -13 31t-31 13t-31.5 -13.5t-13.5 -31.5t13.5 -31t31.5 -13t31 13.5t13 31.5zM210 461q0 18 -13.5 31t-31.5 13t-31 -13t-13 -31t13 -31t31 -13t31.5 13t13.5 31zM248 370q0 18 -13 31t-31 13t-31 -13t-13 -31t13 -31
t31 -13t31 13t13 31zM404 192q0 16 -11.5 27.5t-27.5 11.5t-27.5 -11.5t-11.5 -27.5t11.5 -27.5t27.5 -11.5t27.5 11.5t11.5 27.5zM286 280q0 18 -13 31t-31 13t-31 -13.5t-13 -31.5t13 -31t31 -13t31 13.5t13 31.5zM316 192q0 16 -11.5 27.5t-27.5 11.5t-27.5 -11.5
t-11.5 -27.5t11.5 -27.5t27.5 -11.5t27.5 11.5t11.5 27.5zM363 110q0 18 -13 31t-31 13t-31 -13t-13 -31t13 -31t31 -13t31 13t13 31zM345 31q0 24 -24 24t-24 -24t24 -24t24 24z" />
    <glyph glyph-name="w" unicode="w" horiz-adv-x="1110" 
d="M1106 705l-296 -728h-46l-217 507l-211 -507h-46l-295 728h142l177 -438l187 438h97l192 -438l175 438h141zM1054 639q0 18 -13 31t-31 13t-31 -13t-13 -31t13 -31t31 -13t31 13t13 31zM1016 549q0 18 -13 31t-31 13t-31.5 -13t-13.5 -31t13.5 -31.5t31.5 -13.5t31 13
t13 32zM978 458q0 18 -13.5 31t-31.5 13t-31 -13t-13 -31t13 -31t31 -13t31.5 13t13.5 31zM939 367q0 18 -13 31t-31 13t-31 -13t-13 -31t13 -31t31 -13t31 13t13 31zM593 632q0 18 -13 31t-31 13t-31 -13t-13 -31t13 -31t31 -13t31 13t13 31zM633 547q0 16 -11.5 27.5
t-27.5 11.5t-27.5 -11.5t-11.5 -27.5t11.5 -27.5t27.5 -11.5t27.5 11.5t11.5 27.5zM901 279q0 18 -13.5 31t-31.5 13t-31 -13t-13 -31t13 -31.5t31 -13.5t31.5 13.5t13.5 31.5zM670 460q0 18 -13 31t-31 13t-31 -13t-13 -31t13 -31t31 -13t31 13t13 31zM545 547
q0 16 -11.5 27.5t-27.5 11.5t-27.5 -11.5t-11.5 -27.5t11.5 -27.5t27.5 -11.5t27.5 11.5t11.5 27.5zM709 369q0 18 -13.5 31.5t-31.5 13.5t-31 -13.5t-13 -31.5t13.5 -31t31.5 -13t31 13t13 31zM865 191q0 16 -11.5 28t-27.5 12t-27.5 -12t-11.5 -28t11.5 -27.5t27.5 -11.5
t27.5 11.5t11.5 27.5zM747 279q0 18 -13 31t-31 13t-31 -13t-13 -31t13 -31.5t31 -13.5t31 13.5t13 31.5zM517 458q0 18 -13.5 31t-31.5 13t-31 -13t-13 -31t13 -31t31 -13t31.5 13t13.5 31zM777 191q0 16 -11.5 28t-27.5 12t-28 -12t-12 -28t12 -27.5t28 -11.5t27.5 11.5
t11.5 27.5zM824 109q0 18 -13 31t-31 13t-31.5 -13t-13.5 -31t13.5 -31t31.5 -13t31 13t13 31zM806 30q0 24 -24 24t-24 -24t24 -24t24 24zM478 367q0 18 -13 31t-31 13t-31 -13t-13 -31t13 -31t31 -13t31 13t13 31zM132 641q0 18 -13 31.5t-31 13.5t-31 -13.5t-13 -31.5
t13 -31t31 -13t31 13t13 31zM171 551q0 18 -13 31t-31 13t-31.5 -13t-13.5 -31t13.5 -31.5t31.5 -13.5t31 13.5t13 31.5zM440 279q0 18 -13 31t-31 13t-31.5 -13t-13.5 -31t13.5 -31.5t31.5 -13.5t31 13.5t13 31.5zM209 460q0 18 -13 31t-31 13t-31 -13t-13 -31t13 -31
t31 -13t31 13t13 31zM248 369q0 18 -13 31.5t-31 13.5t-31.5 -13.5t-13.5 -31.5t13.5 -31t31.5 -13t31 13t13 31zM404 191q0 16 -11.5 28t-27.5 12t-27.5 -12t-11.5 -28t11.5 -27.5t27.5 -11.5t27.5 11.5t11.5 27.5zM286 279q0 18 -13 31t-31 13t-31 -13t-13 -31t13 -31.5
t31 -13.5t31 13.5t13 31.5zM316 191q0 16 -11.5 28t-27.5 12t-27.5 -12t-11.5 -28t11.5 -27.5t27.5 -11.5t27.5 11.5t11.5 27.5zM363 109q0 18 -13 31t-31 13t-31 -13t-13 -31t13 -31t31 -13t31 13t13 31zM345 30q0 24 -24 24t-24 -24t24 -24t24 24z" />
    <glyph glyph-name="x" unicode="x" horiz-adv-x="729" 
d="M748 -20h-169l-223 271l-226 -271h-171l301 363l-289 359h170l215 -259l214 259h169l-288 -359zM661 643q0 18 -13.5 31t-31.5 13t-31 -13t-13 -31t13 -31t31 -13t31.5 13t13.5 31zM595 569q0 18 -13 31.5t-31 13.5t-31 -13.5t-13 -31.5t13 -31t31 -13t31 13t13 31z
M530 496q0 18 -13 31t-31 13t-31 -13t-13 -31t13 -31.5t31 -13.5t31 13.5t13 31.5zM465 422q0 18 -13 31t-32 13q-18 0 -31 -13t-13 -31t13 -31t31 -13t31.5 13t13.5 31zM138 643q0 18 -13 31t-31 13t-31 -13t-13 -31t13 -31t31 -13t31 13t13 31zM203 569q0 18 -13 31.5
t-31 13.5t-31 -13.5t-13 -31.5t13 -31t31 -13t31 13t13 31zM269 496q0 18 -13 31t-31 13q-19 0 -32 -13t-13 -31t13.5 -31.5t31.5 -13.5t31 13.5t13 31.5zM334 422q0 18 -13 31t-31 13t-31 -13t-13 -31t13 -31t31 -13t31 13t13 31zM399 348q0 18 -13 31t-31 13t-31 -13
t-13 -31t13 -31t31 -13t31 13t13 31zM464 274q0 18 -13.5 31t-31.5 13t-31 -13t-13 -31t13 -31.5t31 -13.5t31.5 13.5t13.5 31.5zM528 199q0 18 -13 31t-31 13t-31.5 -13t-13.5 -31t13.5 -31t31.5 -13t31 13t13 31zM592 124q0 18 -13 31.5t-31 13.5t-31 -13.5t-13 -31.5
t13 -31t31 -13t31 13t13 31zM657 50q0 18 -13.5 31t-31.5 13t-31 -13t-13 -31t13 -31t31 -13t31.5 13t13.5 31zM335 274q0 18 -13 31t-31 13t-31 -13t-13 -31t13 -31.5t31 -13.5t31 13.5t13 31.5zM271 199q0 18 -13 31t-31 13t-31.5 -13t-13.5 -31t13.5 -31t31.5 -13t31 13
t13 31zM207 124q0 18 -13.5 31.5t-31.5 13.5t-31 -13.5t-13 -31.5t13 -31t31 -13t31.5 13t13.5 31zM142 50q0 18 -13 31t-31 13t-31 -13t-13 -31t13 -31t31 -13t31 13t13 31z" />
    <glyph glyph-name="y" unicode="y" horiz-adv-x="681" 
d="M728 702l-327 -379v-343h-138v344l-316 378h170l214 -254l226 254h171zM638 640q0 18 -13.5 31t-31.5 13t-31 -13t-13 -31t13 -31t31 -13t31.5 13t13.5 31zM572 566q0 18 -13 31.5t-31 13.5t-31 -13.5t-13 -31.5t13 -31t31 -13t31 13t13 31zM507 493q0 18 -13 31t-31 13
t-31 -13t-13 -31t13 -31.5t31 -13.5t31 13.5t13 31.5zM442 419q0 18 -13 31t-32 13q-18 0 -31 -13t-13 -31t13 -31t31 -13t31.5 13t13.5 31zM119 643q0 18 -13 31t-31 13t-31 -13t-13 -31t13 -31t31 -13t31 13t13 31zM185 569q0 18 -13.5 31.5t-31.5 13.5t-31 -13.5
t-13 -31.5t13 -31t31 -13t31.5 13t13.5 31zM250 496q0 18 -13 31t-31 13t-31.5 -13t-13.5 -31t13.5 -31.5t31.5 -13.5t31 13.5t13 31.5zM315 422q0 18 -13 31t-31 13t-31 -13t-13 -31t13 -31t31 -13t31 13t13 31zM378 345q0 18 -13 31t-31 13t-31 -13t-13 -31t13 -31t31 -13
t31 13t13 31zM377 247q0 18 -13 31t-31 13t-31.5 -13t-13.5 -31q0 -19 13.5 -32t31.5 -13t31 13t13 32zM377 148q0 18 -13 31t-31 13t-31.5 -13t-13.5 -31t13.5 -31t31.5 -13t31 13t13 31zM377 50q0 18 -13 31t-31 13t-31.5 -13t-13.5 -31t13.5 -31.5t31.5 -13.5t31 13.5
t13 31.5z" />
    <glyph glyph-name="z" unicode="z" horiz-adv-x="684" 
d="M714 702l-504 -594h441v-128h-708l504 594h-424v128h691zM641 644q0 18 -13.5 31t-31.5 13t-31 -13t-13 -31t13 -31.5t31 -13.5t31.5 13.5t13.5 31.5zM535 648q0 16 -11.5 27.5t-27.5 11.5t-27.5 -11.5t-11.5 -27.5t11.5 -27.5t27.5 -11.5t27.5 11.5t11.5 27.5zM574 567
q0 16 -12 27.5t-28 11.5t-27.5 -11.5t-11.5 -27.5t11.5 -28t27.5 -12t28 12t12 28zM442 644q0 18 -13.5 31t-31.5 13t-31 -13t-13 -31t13 -31t31 -13t31.5 13t13.5 31zM510 496q0 18 -13 31t-31 13t-31.5 -13t-13.5 -31t13.5 -31t31.5 -13t31 13t13 31zM343 644q0 18 -13 31
t-31 13t-31.5 -13t-13.5 -31t13.5 -31t31.5 -13t31 13t13 31zM244 644q0 18 -13 31t-31 13t-31 -13t-13 -31t13 -31t31 -13t31 13t13 31zM445 422q0 18 -13.5 31.5t-31.5 13.5t-31 -13.5t-13 -31.5t13 -31t31 -13t31.5 13t13.5 31zM146 644q0 18 -13.5 31t-31.5 13t-31 -13
t-13 -31t13 -31t31 -13t31.5 13t13.5 31zM379 349q0 18 -13 31t-31 13t-31 -13t-13 -31t13 -31.5t31 -13.5t31 13.5t13 31.5zM616 50q0 18 -13 31.5t-31 13.5t-31.5 -13.5t-13.5 -31.5t13.5 -31t31.5 -13t31 13t13 31zM315 274q0 18 -13 31t-31 13t-31.5 -13t-13.5 -31
t13.5 -31t31.5 -13t31 13t13 31zM517 50q0 18 -13 31.5t-31 13.5t-31 -13.5t-13 -31.5t13 -31t31 -13t31 13t13 31zM418 50q0 18 -13 31.5t-31 13.5t-31 -13.5t-13 -31.5t13 -31t31 -13t31 13t13 31zM251 199q0 19 -13.5 32t-31.5 13t-31 -13t-13 -31t13 -31.5t31 -13.5
t31.5 13t13.5 31zM319 50q0 18 -13 31.5t-31 13.5t-31 -13.5t-13 -31.5t13 -31t31 -13t31 13t13 31zM179 127q0 16 -11.5 28t-27.5 12t-27.5 -12t-11.5 -28t11.5 -27.5t27.5 -11.5t27.5 11.5t11.5 27.5zM217 46q0 16 -11.5 27.5t-27.5 11.5t-27.5 -11.5t-11.5 -27.5
t11.5 -28t27.5 -12t27.5 12t11.5 28zM122 50q0 18 -13 31.5t-31 13.5t-31 -13.5t-13 -31.5t13 -31t31 -13t31 13t13 31z" />
    <glyph glyph-name="braceleft" unicode="{" horiz-adv-x="395" 
d="M365 -153h-64q-104 0 -141 70q-26 48 -26 154q0 10 1 29v29q0 85 -17 116t-85 31v130q68 0 85 31t17 116v29q-1 20 -1 30q0 105 26 153q37 70 141 70h64v-126q-80 0 -89 -10q-11 -13 -11 -61q0 -11 1 -39v-44q0 -158 -76 -214q76 -56 76 -214v-44q-1 -28 -1 -39
q0 -48 10 -59.5t90 -11.5v-126zM329 765q0 18 -13 31t-32 13q-18 0 -31 -13t-13 -31t13 -31t31 -13q19 0 32 13t13 31zM253 705q0 18 -13 31t-31 13t-31 -13t-13 -31t13 -31t31 -13t31 13t13 31zM244 606q0 18 -13 31t-31 13t-31.5 -13t-13.5 -31t13.5 -31t31.5 -13t31 13
t13 31zM241 507q0 18 -13 31.5t-31 13.5t-31.5 -13.5t-13.5 -31.5t13.5 -31t31.5 -13t31 13t13 31zM211 414q0 18 -13 31t-31 13t-31 -13t-13 -31t13 -31t31 -13t31 13t13 31zM141 342q0 18 -13.5 31t-31.5 13t-31 -13t-13 -31t13 -31t31 -13t31.5 13t13.5 31zM211 270
q0 18 -13 31t-31 13t-31 -13t-13 -31t13 -31t31 -13t31 13t13 31zM241 176q0 18 -13 31t-31 13t-31.5 -13t-13.5 -31t13.5 -31t31.5 -13t31 13t13 31zM244 77q0 19 -13 32t-31 13t-31.5 -13t-13.5 -32q0 -18 13.5 -31t31.5 -13t31 13t13 31zM329 -81q0 18 -13 31t-32 13
q-18 0 -31 -13t-13 -31t13 -31.5t31 -13.5q19 0 32 13.5t13 31.5zM253 -21q0 18 -13 31t-31 13t-31 -13t-13 -31t13 -31t31 -13t31 13t13 31z" />
    <glyph glyph-name="braceright" unicode="}" horiz-adv-x="395" 
d="M16 -153h64q104 0 141 70q25 48 25 154v29v29q0 85 17 116t85 31v130q-68 0 -85 31t-17 116v29v30q0 105 -25 153q-37 70 -141 70h-64v-126q80 0 89 -10q11 -13 11 -61q0 -11 -1 -39t-1 -44q0 -158 77 -214q-77 -56 -77 -214q0 -16 1 -44t1 -39q0 -48 -10 -59.5
t-90 -11.5v-126zM52 765q0 18 13 31t31 13t31.5 -13t13.5 -31t-13.5 -31t-31.5 -13t-31 13t-13 31zM128 705q0 18 13 31t31 13t31 -13t13 -31t-13 -31t-31 -13t-31 13t-13 31zM137 606q0 18 13 31t31 13t31 -13t13 -31t-13 -31t-31 -13t-31 13t-13 31zM140 507q0 18 13 31.5
t31 13.5t31 -13.5t13 -31.5t-13 -31t-31 -13t-31 13t-13 31zM170 414q0 18 13 31t31 13t31 -13t13 -31t-13 -31t-31 -13t-31 13t-13 31zM240 342q0 18 13 31t31 13q19 0 32 -13t13 -31t-13 -31t-32 -13q-18 0 -31 13t-13 31zM170 270q0 18 13 31t31 13t31 -13t13 -31
t-13 -31t-31 -13t-31 13t-13 31zM140 176q0 18 13 31t31 13t31 -13t13 -31t-13 -31t-31 -13t-31 13t-13 31zM137 77q0 19 13 32t31 13t31 -13t13 -32q0 -18 -13 -31t-31 -13t-31 13t-13 31zM52 -81q0 18 13 31t31 13t31.5 -13t13.5 -31t-13.5 -31.5t-31.5 -13.5t-31 13.5
t-13 31.5zM128 -21q0 18 13 31t31 13t31 -13t13 -31t-13 -31t-31 -13t-31 13t-13 31z" />
    <glyph glyph-name="asciitilde" unicode="~" horiz-adv-x="565" 
d="M573 290q-84 -66 -153 -66q-55 0 -147 47.5t-129 47.5q-55 0 -156 -70v143q80 62 148 62q56 0 152 -49.5t126 -49.5q52 0 159 80v-145zM559 325q0 18 -11.5 32.5t-29.5 14.5q-19 0 -33 -12t-14 -30t12 -32.5t30 -14.5t32 12t14 30zM468 290q0 18 -12 32.5t-30 14.5
t-32 -12t-14 -30q0 -19 11.5 -33t29.5 -14q19 0 33 12t14 30zM371 312q0 18 -12 32t-30 14t-32 -11.5t-14 -29.5q0 -19 11.5 -33t30.5 -14q18 0 32 12t14 30zM283 351q0 19 -12 33t-30 14t-32 -12t-14 -30t11.5 -32t29.5 -14q19 0 33 11.5t14 29.5zM188 382q0 18 -11.5 32
t-29.5 14q-19 0 -33 -12t-14 -30t12 -32t30 -14t32 12t14 30zM94 355q0 18 -12 32t-30 14t-32 -12t-14 -30t11.5 -32t30.5 -14q18 0 32 11.5t14 30.5z" />
    <glyph glyph-name="Adieresis" unicode="&#xc4;" horiz-adv-x="667" 
d="M723 -20h-144l-77 171h-291l-73 -171h-143l310 726h95zM401 643q0 18 -13 31t-31 13t-31.5 -13t-13.5 -31t13.5 -31t31.5 -13t31 13t13 31zM441 560q0 17 -11.5 29t-27.5 12q-17 0 -29 -11.5t-12 -28.5q0 -16 11.5 -28t28.5 -12q16 0 28 11.5t12 27.5zM479 476
q0 17 -12.5 29.5t-29.5 12.5t-30 -12t-13 -29t12.5 -30t29.5 -13t30 12t13 30zM352 561q0 17 -12 28.5t-28 11.5t-27.5 -12t-11.5 -29q0 -16 12 -27.5t28 -11.5t27.5 12t11.5 28zM516 389q0 17 -12.5 29.5t-29.5 12.5t-30 -12t-13 -29q0 -18 12.5 -30.5t29.5 -12.5t30 12
t13 30zM553 301q0 18 -12.5 30.5t-29.5 12.5t-30 -12t-13 -29t12 -30t29 -13q18 0 31 12t13 29zM590 214q0 17 -12.5 30t-29.5 13t-30 -12t-13 -29q0 -18 12 -30.5t30 -12.5q17 0 30 12t13 29zM319 477q0 17 -12.5 29t-30.5 12q-17 0 -29 -12.5t-12 -29.5q0 -18 12.5 -30
t30.5 -12q17 0 29 12.5t12 30.5zM444 279l-92 206l-86 -206h178zM625 128q0 17 -12 30t-30 13q-17 0 -29.5 -12.5t-12.5 -29.5t12 -30t29 -13t30 12.5t13 29.5zM496 216q0 18 -13 31t-30 13q-18 0 -31 -13t-13 -31q0 -17 13 -30t31 -13q17 0 30 13t13 30zM663 41
q0 17 -12 30t-29 13t-30 -12t-13 -30q0 -17 12 -30t30 -13q17 0 29.5 12.5t12.5 29.5zM282 389q0 18 -12.5 30t-30.5 12q-17 0 -29 -12.5t-12 -30.5q0 -17 12.5 -29t30.5 -12q17 0 29 12.5t12 29.5zM400 216q0 18 -12.5 31t-30.5 13t-30.5 -13t-12.5 -31q0 -17 12.5 -30
t30.5 -13t30.5 13t12.5 30zM245 303q0 17 -12.5 29t-30.5 12q-17 0 -29 -13t-12 -30t13 -29t30 -12t29 12.5t12 30.5zM305 216q0 18 -13 31t-31 13q-17 0 -30 -13t-13 -31q0 -17 13 -30t30 -13q18 0 31 13t13 30zM209 216q0 17 -13 29t-30 12q-18 0 -30 -13t-12 -30t13 -29
t30 -12t29.5 12.5t12.5 30.5zM173 129q0 17 -13 29.5t-30 12.5t-29.5 -13t-12.5 -30t13 -29.5t30 -12.5q18 0 30 13t12 30zM135 43q0 17 -13 29t-30 12t-29.5 -13t-12.5 -30t13 -29.5t30 -12.5t29.5 13t12.5 31zM517 805q0 -28 -19 -47.5t-47 -19.5q-27 0 -47 20t-20 47
q0 28 19.5 47t47.5 19t47 -19t19 -47zM331 805q0 -28 -19 -47.5t-47 -19.5q-27 0 -47 20t-20 47q0 28 19.5 47t47.5 19t47 -19t19 -47zM491 806q0 16 -12 28t-28 12t-28 -12t-12 -28t12 -28t28 -12t28 12t12 28zM304 806q0 16 -12 28t-28 12t-28 -12t-12 -28t12 -28t28 -12
t28 12t12 28z" />
    <glyph glyph-name="Aring" unicode="&#xc5;" horiz-adv-x="667" 
d="M723 -20h-144l-77 171h-291l-73 -171h-143l296 694q-70 38 -70 117q0 55 39 94t94 39t94 -39t39 -94q0 -81 -72 -118zM429 860q0 14 -10 24.5t-24 10.5t-24 -10t-10 -24t10 -24.5t24 -10.5t24 10t10 24zM469 792q0 14 -10.5 24.5t-24.5 10.5t-24 -10.5t-10 -24.5t10 -24
t24 -10t24.5 10t10.5 24zM351 861q0 14 -10.5 24t-24.5 10t-24 -10.5t-10 -24.5t10 -24t24 -10t24.5 10.5t10.5 24.5zM378 791q0 24 -24 24t-24 -24t24 -24t24 24zM429 724q0 14 -10 24t-24 10t-24 -10t-10 -24t10 -24t24 -10t24 10t10 24zM311 792q0 14 -10 24.5t-24 10.5
t-24.5 -10.5t-10.5 -24.5t10.5 -24t24.5 -10t24 10t10 24zM351 724q0 14 -10.5 24t-24.5 10t-24 -10t-10 -24t10 -24t24 -10t24.5 10t10.5 24zM401 643q0 18 -13 31t-31 13t-31.5 -13t-13.5 -31t13.5 -31t31.5 -13t31 13t13 31zM441 560q0 17 -11.5 29t-27.5 12
q-17 0 -29 -11.5t-12 -28.5q0 -16 11.5 -28t28.5 -12q16 0 28 11.5t12 27.5zM479 476q0 17 -12.5 29.5t-29.5 12.5t-30 -12t-13 -29t12.5 -30t29.5 -13t30 12t13 30zM352 561q0 17 -12 28.5t-28 11.5t-27.5 -12t-11.5 -29q0 -16 12 -27.5t28 -11.5t27.5 12t11.5 28zM516 389
q0 17 -12.5 29.5t-29.5 12.5t-30 -12t-13 -29q0 -18 12 -30.5t30 -12.5q17 0 30 12t13 30zM553 301q0 18 -12.5 30.5t-29.5 12.5t-30 -12t-13 -29q0 -18 12 -30.5t29 -12.5q18 0 31 12t13 29zM590 214q0 17 -12.5 30t-29.5 13t-30 -12t-13 -29q0 -18 12 -30.5t30 -12.5
q17 0 30 12t13 29zM319 477q0 17 -12.5 29t-30.5 12q-17 0 -29 -12.5t-12 -29.5q0 -18 12.5 -30t30.5 -12q17 0 29 12.5t12 30.5zM444 279l-92 206l-86 -206h178zM625 128q0 17 -12 30t-30 13q-17 0 -29.5 -12.5t-12.5 -29.5t12 -30t29 -13t30 12.5t13 29.5zM496 216
q0 18 -13 31t-30 13q-18 0 -31 -13t-13 -31q0 -17 13 -30t31 -13q17 0 30 13t13 30zM663 41q0 17 -12 30t-29 13t-30 -12t-13 -30q0 -17 12 -30t30 -13q17 0 29.5 12.5t12.5 29.5zM282 389q0 18 -12.5 30t-30.5 12q-17 0 -29 -12.5t-12 -30.5q0 -17 13 -29t30 -12t29 12.5
t12 29.5zM400 216q0 18 -12.5 31t-30.5 13t-30.5 -13t-12.5 -31q0 -17 12.5 -30t30.5 -13t30.5 13t12.5 30zM245 302q0 18 -12.5 30t-30.5 12q-17 0 -29 -13t-12 -30t13 -29t30 -12t29 12.5t12 29.5zM305 216q0 18 -13 31t-31 13q-17 0 -30 -13t-13 -31q0 -17 13 -30t30 -13
q18 0 31 13t13 30zM209 216q0 17 -13 29t-30 12q-18 0 -30 -13t-12 -30t13 -29t30 -12t29.5 12.5t12.5 30.5zM173 129q0 17 -13 29.5t-30 12.5t-29.5 -13t-12.5 -30t13 -29.5t30 -12.5q18 0 30 13t12 30zM135 43q0 17 -13 29t-30 12t-29.5 -13t-12.5 -30t13 -29.5t30 -12.5
t29.5 13t12.5 31z" />
    <glyph glyph-name="Ccedilla" unicode="&#xc7;" horiz-adv-x="671" 
d="M660 44q-130 -68 -249 -73q30 -24 30 -61q0 -50 -33 -81.5t-84 -31.5q-55 0 -104 16l15 104q47 -15 70 -15q18 0 24 12q0 12 -35 14q-22 0 -44 1l37 55q-126 31 -204 125t-78 222q0 168 114 275q111 105 280 105q92 0 254 -68v-153q-156 91 -255 91q-107 0 -178 -67
q-74 -68 -74 -174q0 -110 74 -176q71 -63 182 -63q106 0 258 99v-156zM631 594q0 18 -13 31t-31 13t-31 -13t-13 -31t13 -31t31 -13t31 13t13 31zM541 632q0 18 -13.5 31t-31.5 13t-31 -13t-13 -31t13.5 -31t31.5 -13t31 13t13 31zM443 645q0 18 -13.5 31t-31.5 13t-31 -13
t-13 -31t13.5 -31t31.5 -13t31 13t13 31zM344 632q0 18 -13 31t-31 13t-31 -13t-13 -31t13 -31t31 -13t31 13t13 31zM253 594q0 18 -13 31t-31 13t-31 -13t-13 -31t13 -31t31 -13t31 13t13 31zM631 90q0 18 -13.5 31t-31.5 13t-31 -13t-13 -31t13.5 -31t31.5 -13t31 13
t13 31zM180 528q0 19 -13 32t-31 13t-31 -13t-13 -31t13 -31.5t31 -13.5t31 13t13 31zM540 51q0 18 -13 31t-31 13t-31 -13t-13 -31t13 -31t31 -13t31 13t13 31zM134 441q0 18 -13 31.5t-31 13.5t-31 -13t-13 -31t13 -31.5t31 -13.5t31 13t13 31zM442 37q0 18 -13 31t-31 13
t-31 -13t-13 -31t13 -31t31 -13t31 13t13 31zM124 342q0 18 -13 31.5t-31 13.5t-31.5 -13t-13.5 -31t13 -31.5t31 -13.5t31.5 13t13.5 31zM345 51q0 18 -13 31t-31 13t-31.5 -13t-13.5 -31t13 -31t31 -13t31.5 13t13.5 31zM136 243q0 18 -13 31.5t-31 13.5t-31 -13t-13 -31
t13 -31.5t31 -13.5t31 13t13 31zM371 -26q0 13 -9.5 22t-21.5 9q-13 0 -22 -9t-9 -22q0 -12 9 -21.5t22 -9.5q12 0 21.5 9.5t9.5 21.5zM418 -79q0 12 -9 21.5t-21 9.5q-13 0 -22 -9.5t-9 -21.5q0 -13 9 -22t22 -9q12 0 21 9t9 22zM254 90q0 18 -13 31t-31 13t-31 -13
t-13 -31t13 -31t31 -13t31 13t13 31zM182 155q0 18 -13 31.5t-31 13.5t-31.5 -13t-13.5 -31t13 -31.5t31 -13.5t31.5 13t13.5 31zM382 -141q0 12 -9 21.5t-22 9.5q-12 0 -21.5 -9.5t-9.5 -21.5q0 -13 9.5 -22t21.5 -9q13 0 22 9t9 22zM311 -144q0 13 -9.5 22t-21.5 9
q-13 0 -22 -9t-9 -22q0 -12 9 -21.5t22 -9.5q12 0 21.5 9.5t9.5 21.5z" />
    <glyph glyph-name="Eacute" unicode="&#xc9;" horiz-adv-x="500" 
d="M468 280h-297v-172h296v-128h-434v722h435v-128h-297v-166h297v-128zM441 639q0 18 -13 31t-31 13t-31 -13t-13 -31t13 -31.5t31 -13.5t31 13.5t13 31.5zM342 639q0 18 -13 31t-31 13t-31 -13t-13 -31t13 -31.5t31 -13.5t31 13.5t13 31.5zM244 639q0 18 -13.5 31
t-31.5 13t-31 -13t-13 -31t13 -31.5t31 -13.5t31.5 13.5t13.5 31.5zM441 343q0 18 -13 31t-31 13t-31 -13t-13 -31t13 -31t31 -13t31 13t13 31zM145 639q0 18 -13 31t-31 13q-19 0 -32 -13t-13 -31t13 -31.5t32 -13.5q18 0 31 13.5t13 31.5zM342 343q0 18 -13 31t-31 13
t-31 -13t-13 -31t13 -31t31 -13t31 13t13 31zM145 540q0 18 -13 31t-31 13q-19 0 -32 -13t-13 -31t13 -31t32 -13q18 0 31 13t13 31zM244 343q0 18 -13.5 31t-31.5 13t-31 -13t-13 -31t13 -31t31 -13t31.5 13t13.5 31zM145 442q0 18 -13 31t-31 13q-19 0 -32 -13t-13 -31
t13 -31.5t32 -13.5q18 0 31 13.5t13 31.5zM441 48q0 18 -13 31t-31 13t-31 -13t-13 -31t13 -31.5t31 -13.5t31 13.5t13 31.5zM145 343q0 18 -13 31t-31 13q-19 0 -32 -13t-13 -31t13 -31t32 -13q18 0 31 13t13 31zM342 48q0 18 -13 31t-31 13t-31 -13t-13 -31t13 -31.5
t31 -13.5t31 13.5t13 31.5zM145 245q0 18 -13 31t-31 13q-19 0 -32 -13t-13 -31t13 -31.5t32 -13.5q18 0 31 13.5t13 31.5zM244 48q0 18 -13.5 31t-31.5 13t-31 -13t-13 -31t13 -31.5t31 -13.5t31.5 13.5t13.5 31.5zM145 146q0 18 -13 31t-31 13q-19 0 -32 -13t-13 -31
t13 -31t32 -13q18 0 31 13t13 31zM145 48q0 18 -13 31t-31 13q-19 0 -32 -13t-13 -31t13 -31.5t32 -13.5q18 0 31 13.5t13 31.5zM398 917l-154 -202h-112l92 202h174zM316 855q0 18 -13.5 31t-31.5 13t-31 -13t-13 -31t13 -31t31 -13t31.5 13t13.5 31zM261 777
q0 16 -11.5 27.5t-27.5 11.5t-28 -11.5t-12 -27.5t12 -28t28 -12t27.5 12t11.5 28z" />
    <glyph glyph-name="Ntilde" unicode="&#xd1;" horiz-adv-x="781" 
d="M729 -20h-114l-431 492v-492h-133v722h108l437 -495v495h133v-722zM706 637q0 18 -13 31.5t-31 13.5t-31 -13.5t-13 -31.5t13 -31t31 -13t31 13t13 31zM706 539q0 18 -13 31t-31 13t-31 -13t-13 -31t13 -31t31 -13t31 13t13 31zM706 440q0 18 -13 31.5t-31 13.5
t-31 -13.5t-13 -31.5t13 -31t31 -13t31 13t13 31zM706 342q0 18 -13 31t-31 13t-31 -13t-13 -31t13 -31t31 -13t31 13t13 31zM706 243q0 18 -13 31.5t-31 13.5t-31 -13.5t-13 -31.5t13 -31t31 -13t31 13t13 31zM706 145q0 15 -11 25.5t-26 10.5t-26 -10.5t-11 -25.5t11 -26
t26 -11t26 11t11 26zM228 566q0 15 -11 26t-26 11t-25.5 -11t-10.5 -26t10.5 -26t25.5 -11t26 11t11 26zM162 637q0 18 -13 31.5t-31 13.5t-31.5 -13.5t-13.5 -31.5t13.5 -31t31.5 -13t31 13t13 31zM298 490q0 18 -13 31t-31 13t-31.5 -13t-13.5 -31t13.5 -31.5t31.5 -13.5
t31 13.5t13 31.5zM366 416q0 18 -13 31t-31 13t-31 -13t-13 -31t13 -31t31 -13t31 13t13 31zM434 342q0 18 -13 31t-31 13t-31 -13t-13 -31t13 -31t31 -13t31 13t13 31zM502 268q0 18 -13 31t-31 13t-31 -13t-13 -31t13 -31t31 -13t31 13t13 31zM570 194q0 18 -13 31t-31 13
t-31 -13t-13 -31t13 -31t31 -13t31 13t13 31zM706 46q0 18 -13 31.5t-31 13.5t-31 -13.5t-13 -31.5t13 -31t31 -13t31 13t13 31zM625 118q0 15 -11 26t-26 11t-26 -11t-11 -26t11 -26t26 -11t26 11t11 26zM148 539q0 15 -11 26t-26 11t-26 -11t-11 -26t11 -26t26 -11t26 11
t11 26zM162 440q0 18 -13 31.5t-31 13.5t-31.5 -13.5t-13.5 -31.5t13.5 -31t31.5 -13t31 13t13 31zM162 342q0 18 -13 31t-31 13t-31.5 -13t-13.5 -31t13.5 -31t31.5 -13t31 13t13 31zM162 243q0 18 -13 31.5t-31 13.5t-31.5 -13.5t-13.5 -31.5t13.5 -31t31.5 -13t31 13
t13 31zM162 145q0 18 -13 31t-31 13t-31.5 -13t-13.5 -31t13.5 -31t31.5 -13t31 13t13 31zM162 46q0 18 -13 31.5t-31 13.5t-31.5 -13.5t-13.5 -31.5t13.5 -31t31.5 -13t31 13t13 31zM577 898q0 -64 -23 -106q-29 -52 -88 -52q-28 0 -80.5 17.5t-80.5 17.5q-18 0 -23 -35
h-86q12 155 112 155q29 0 82 -17.5t81 -17.5q19 0 25 38h81zM544 828q0 14 -11 23.5t-25 9.5t-24 -10.5t-10 -25.5q0 -14 11 -23.5t25 -9.5q15 0 24.5 11t9.5 25zM468 799q0 16 -12 27t-28 11q-17 0 -27.5 -12t-10.5 -29q0 -16 12 -26.5t29 -10.5q16 0 26.5 12t10.5 28z
M386 834q0 16 -12 27t-29 11q-16 0 -27 -12.5t-11 -28.5t12.5 -27t28.5 -11t27 12.5t11 28.5zM301 805q0 14 -10.5 24t-25.5 10q-14 0 -23.5 -11t-9.5 -26q0 -14 11 -23.5t25 -9.5t23.5 11t9.5 25z" />
    <glyph glyph-name="Odieresis" unicode="&#xd6;" horiz-adv-x="823" 
d="M807 344q0 -164 -116 -269q-111 -101 -277 -101q-163 0 -274 103q-114 105 -114 267q0 163 115 268q111 102 275 102q166 0 276 -101q115 -105 115 -269zM723 533q0 18 -13 31t-31 13t-31 -13.5t-13 -31.5t13 -31t31 -13t31 13.5t13 31.5zM650 598q0 18 -13 31t-31 13
t-31 -13t-13 -31t13 -31t31 -13t31 13t13 31zM770 446q0 18 -13.5 31t-31.5 13t-31 -13.5t-13 -31.5t13.5 -31t31.5 -13t31 13.5t13 31.5zM560 636q0 18 -13.5 31t-31.5 13t-31 -13t-13 -31t13 -31t31 -13q19 0 32 13t13 31zM780 347q0 18 -13 31t-32 13q-18 0 -31 -13.5
t-13 -31.5t13.5 -31t31.5 -13t31 13.5t13 31.5zM462 649q0 18 -13.5 31t-31.5 13t-31 -13t-13 -31t13.5 -31t31.5 -13t31 13t13 31zM767 248q0 18 -13 31t-31 13t-31 -13.5t-13 -31.5t13 -31t31 -13t31 13.5t13 31.5zM363 636q0 18 -13 31t-31 13t-31 -13t-13 -31t13 -31
t31 -13t31 13t13 31zM722 160q0 18 -13 31t-31 13t-31 -13.5t-13 -31.5t13 -31t31 -13t31 13.5t13 31.5zM272 598q0 18 -13 31t-31 13t-31 -13t-13 -31t13 -31t31 -13t31 13t13 31zM665 344q0 105 -71.5 172.5t-177.5 67.5t-177 -67.5t-71 -172.5t71 -172.5t177 -67.5
t177.5 67.5t71.5 172.5zM649 94q0 18 -13 31t-31 13t-31 -13t-13 -31t13 -31t31 -13t31 13t13 31zM199 532q0 18 -13 31.5t-31 13.5t-31 -13t-13 -31t13 -31.5t31 -13.5t31 13t13 31zM559 55q0 18 -13 31t-31 13t-31 -13t-13 -31t13 -31t31 -13t31 13t13 31zM153 445
q0 18 -13 31.5t-31 13.5t-31 -13t-13 -31t13 -31.5t31 -13.5t31 13t13 31zM461 41q0 18 -13 31t-31 13t-31 -13t-13 -31t13 -31t31 -13t31 13t13 31zM143 346q0 18 -13 31.5t-31 13.5t-31.5 -13t-13.5 -31t13 -31.5t31 -13.5t31.5 13t13.5 31zM364 55q0 18 -13 31t-31 13
t-31.5 -13t-13.5 -31t13 -31t31 -13t31.5 13t13.5 31zM155 247q0 18 -13 31.5t-31 13.5t-31 -13t-13 -31t13 -31.5t31 -13.5t31 13t13 31zM273 94q0 18 -13 31t-31 13t-31 -13t-13 -31t13 -31t31 -13t31 13t13 31zM201 159q0 18 -13 31.5t-31 13.5t-31.5 -13t-13.5 -31
t13 -31.5t31 -13.5t31.5 13t13.5 31zM577 805q0 -28 -19 -47.5t-47 -19.5q-27 0 -47 20t-20 47q0 28 19.5 47t47.5 19t47 -19t19 -47zM391 805q0 -28 -19 -47.5t-47 -19.5q-27 0 -47 20t-20 47q0 28 19.5 47t47.5 19t47 -19t19 -47zM551 806q0 16 -12 28t-28 12t-28 -12
t-12 -28t12 -28t28 -12t28 12t12 28zM364 806q0 16 -12 28t-28 12t-28 -12t-12 -28t12 -28t28 -12t28 12t12 28z" />
    <glyph glyph-name="Udieresis" unicode="&#xdc;" horiz-adv-x="708" 
d="M628 268q0 -146 -78 -221.5t-225 -75.5q-133 0 -208.5 77t-75.5 210v444h138v-423q0 -178 148 -178q95 0 131 45q32 40 32 139v417h138v-434zM606 638q0 18 -13.5 31t-31.5 13t-31 -13t-13 -31t13 -31t31 -13t31.5 13t13.5 31zM606 540q0 18 -13.5 31t-31.5 13t-31 -13
t-13 -31t13 -31.5t31 -13.5t31.5 13.5t13.5 31.5zM606 441q0 18 -13.5 31t-31.5 13t-31 -13t-13 -31t13 -31t31 -13t31.5 13t13.5 31zM606 343q0 18 -13.5 31t-31.5 13t-31 -13t-13 -31t13 -31t31 -13t31.5 13t13.5 31zM606 243q0 18 -13.5 31t-31.5 13t-31 -13t-13 -31
t13 -31t31 -13t31.5 13t13.5 31zM157 638q0 18 -13 31t-31 13t-31 -13t-13 -31t13 -31t31 -13t31 13t13 31zM591 147q0 18 -13 31t-31 13t-31 -13t-13 -31t13 -31.5t31 -13.5t31 13.5t13 31.5zM157 540q0 18 -13 31t-31 13t-31 -13t-13 -31t13 -31.5t31 -13.5t31 13.5
t13 31.5zM526 75q0 18 -13 31t-31 13t-31 -13t-13 -31t13 -31t31 -13t31 13t13 31zM157 441q0 18 -13 31t-31 13t-31 -13t-13 -31t13 -31t31 -13t31 13t13 31zM157 343q0 18 -13 31t-31 13t-31 -13t-13 -31t13 -31t31 -13t31 13t13 31zM431 45q0 18 -13.5 31.5t-31.5 13.5
t-31 -13.5t-13 -31.5t13 -31t31 -13t31.5 13t13.5 31zM157 243q0 18 -13 31t-31 13t-31 -13t-13 -31t13 -31t31 -13t31 13t13 31zM332 45q0 18 -13 31.5t-31 13.5t-31 -13.5t-13 -31.5t13 -31t31 -13t31 13t13 31zM172 147q0 18 -13 31t-32 13q-18 0 -31 -13t-13 -31
t13 -31.5t31 -13.5q19 0 32 13.5t13 31.5zM237 75q0 18 -13 31t-31 13t-31.5 -13t-13.5 -31t13.5 -31t31.5 -13t31 13t13 31zM498 805q0 -28 -19 -47.5t-47 -19.5q-27 0 -47 20t-20 47q0 28 19.5 47t47.5 19t47 -19t19 -47zM312 805q0 -28 -19 -47.5t-47 -19.5q-27 0 -47 20
t-20 47q0 28 19.5 47t47.5 19t47 -19t19 -47zM472 806q0 16 -12 28t-28 12t-28 -12t-12 -28t12 -28t28 -12t28 12t12 28zM285 806q0 16 -12 28t-28 12t-28 -12t-12 -28t12 -28t28 -12t28 12t12 28z" />
    <glyph glyph-name="aacute" unicode="&#xe1;" 
d="M723 -20h-144l-77 171h-291l-73 -171h-143l310 726h95zM401 643q0 18 -13 31t-31 13t-31.5 -13t-13.5 -31t13.5 -31t31.5 -13t31 13t13 31zM441 560q0 17 -11.5 29t-27.5 12q-17 0 -29 -11.5t-12 -28.5q0 -16 11.5 -28t28.5 -12q16 0 28 11.5t12 27.5zM479 476
q0 17 -12.5 29.5t-29.5 12.5t-30 -12t-13 -29t12.5 -30t29.5 -13t30 12t13 30zM352 561q0 17 -12 28.5t-28 11.5t-27.5 -12t-11.5 -29q0 -16 12 -27.5t28 -11.5t27.5 12t11.5 28zM516 389q0 17 -12.5 29.5t-29.5 12.5t-30 -12t-13 -29q0 -18 12.5 -30.5t29.5 -12.5t30 12
t13 30zM553 301q0 18 -12.5 30.5t-29.5 12.5t-30 -12t-13 -29t12 -30t29 -13q18 0 31 12t13 29zM590 214q0 17 -12.5 30t-29.5 13t-30 -12t-13 -29q0 -18 12 -30.5t30 -12.5q17 0 30 12t13 29zM319 477q0 17 -12.5 29t-30.5 12q-17 0 -29 -12.5t-12 -29.5q0 -18 12.5 -30
t30.5 -12q17 0 29 12.5t12 30.5zM444 279l-92 206l-86 -206h178zM625 128q0 17 -12 30t-30 13q-17 0 -29.5 -12.5t-12.5 -29.5t12 -30t29 -13t30 12.5t13 29.5zM496 216q0 18 -13 31t-30 13q-18 0 -31 -13t-13 -31q0 -17 13 -30t31 -13q17 0 30 13t13 30zM663 41
q0 17 -12 30t-29 13t-30 -12t-13 -30q0 -17 12 -30t30 -13q17 0 29.5 12.5t12.5 29.5zM282 389q0 18 -12.5 30t-30.5 12q-17 0 -29 -12.5t-12 -30.5q0 -17 12.5 -29t30.5 -12q17 0 29 12.5t12 29.5zM400 216q0 18 -12.5 31t-30.5 13t-30.5 -13t-12.5 -31q0 -17 12.5 -30
t30.5 -13t30.5 13t12.5 30zM245 303q0 17 -12.5 29t-30.5 12q-17 0 -29 -13t-12 -30t13 -29t30 -12t29 12.5t12 30.5zM305 216q0 18 -13 31t-31 13q-17 0 -30 -13t-13 -31q0 -17 13 -30t30 -13q18 0 31 13t13 30zM209 216q0 17 -13 29t-30 12q-18 0 -30 -13t-12 -30t13 -29
t30 -12t29.5 12.5t12.5 30.5zM173 129q0 17 -13 29.5t-30 12.5t-29.5 -13t-12.5 -30t13 -29.5t30 -12.5q18 0 30 13t12 30zM135 43q0 17 -13 29t-30 12t-29.5 -13t-12.5 -30t13 -29.5t30 -12.5t29.5 13t12.5 31zM511 917l-154 -202h-112l92 202h174zM429 855q0 18 -13.5 31
t-31.5 13t-31 -13t-13 -31t13 -31t31 -13t31.5 13t13.5 31zM374 777q0 16 -11.5 27.5t-27.5 11.5t-28 -11.5t-12 -27.5t12 -28t28 -12t27.5 12t11.5 28z" />
    <glyph glyph-name="agrave" unicode="&#xe0;" 
d="M723 -20h-144l-77 171h-291l-73 -171h-143l310 726h95zM401 643q0 18 -13 31t-31 13t-31.5 -13t-13.5 -31t13.5 -31t31.5 -13t31 13t13 31zM441 560q0 17 -11.5 29t-27.5 12q-17 0 -29 -11.5t-12 -28.5q0 -16 11.5 -28t28.5 -12q16 0 28 11.5t12 27.5zM479 476
q0 17 -12.5 29.5t-29.5 12.5t-30 -12t-13 -29t12.5 -30t29.5 -13t30 12t13 30zM352 561q0 17 -12 28.5t-28 11.5t-27.5 -12t-11.5 -29q0 -16 12 -27.5t28 -11.5t27.5 12t11.5 28zM516 389q0 17 -12.5 29.5t-29.5 12.5t-30 -12t-13 -29q0 -18 12.5 -30.5t29.5 -12.5t30 12
t13 30zM553 301q0 18 -12.5 30.5t-29.5 12.5t-30 -12t-13 -29t12 -30t29 -13q18 0 31 12t13 29zM590 214q0 17 -12.5 30t-29.5 13t-30 -12t-13 -29q0 -18 12 -30.5t30 -12.5q17 0 30 12t13 29zM319 477q0 17 -12.5 29t-30.5 12q-17 0 -29 -12.5t-12 -29.5q0 -18 12.5 -30
t30.5 -12q17 0 29 12.5t12 30.5zM444 279l-92 206l-86 -206h178zM625 128q0 17 -12 30t-30 13q-17 0 -29.5 -12.5t-12.5 -29.5t12 -30t29 -13t30 12.5t13 29.5zM496 216q0 18 -13 31t-30 13q-18 0 -31 -13t-13 -31q0 -17 13 -30t31 -13q17 0 30 13t13 30zM663 41
q0 17 -12 30t-29 13t-30 -12t-13 -30q0 -17 12 -30t30 -13q17 0 29.5 12.5t12.5 29.5zM282 389q0 18 -12.5 30t-30.5 12q-17 0 -29 -12.5t-12 -30.5q0 -17 12.5 -29t30.5 -12q17 0 29 12.5t12 29.5zM400 216q0 18 -12.5 31t-30.5 13t-30.5 -13t-12.5 -31q0 -17 12.5 -30
t30.5 -13t30.5 13t12.5 30zM245 303q0 17 -12.5 29t-30.5 12q-17 0 -29 -13t-12 -30t13 -29t30 -12t29 12.5t12 30.5zM305 216q0 18 -13 31t-31 13q-17 0 -30 -13t-13 -31q0 -17 13 -30t30 -13q18 0 31 13t13 30zM209 216q0 17 -13 29t-30 12q-18 0 -30 -13t-12 -30t13 -29
t30 -12t29.5 12.5t12.5 30.5zM173 129q0 17 -13 29.5t-30 12.5t-29.5 -13t-12.5 -30t13 -29.5t30 -12.5q18 0 30 13t12 30zM135 43q0 17 -13 29t-30 12t-29.5 -13t-12.5 -30t13 -29.5t30 -12.5t29.5 13t12.5 31zM203 917l154 -202h112l-93 202h-173zM285 855q0 18 13 31
t31 13t31.5 -13t13.5 -31t-13.5 -31t-31.5 -13t-31 13t-13 31zM340 777q0 16 11.5 27.5t27.5 11.5t28 -11.5t12 -27.5t-12 -28t-28 -12t-27.5 12t-11.5 28z" />
    <glyph glyph-name="acircumflex" unicode="&#xe2;" 
d="M723 -20h-144l-77 171h-291l-73 -171h-143l310 726h95zM401 643q0 18 -13 31t-31 13t-31.5 -13t-13.5 -31t13.5 -31t31.5 -13t31 13t13 31zM441 560q0 17 -11.5 29t-27.5 12q-17 0 -29 -11.5t-12 -28.5q0 -16 11.5 -28t28.5 -12q16 0 28 11.5t12 27.5zM479 476
q0 17 -12.5 29.5t-29.5 12.5t-30 -12t-13 -29t12.5 -30t29.5 -13t30 12t13 30zM352 561q0 17 -12 28.5t-28 11.5t-27.5 -12t-11.5 -29q0 -16 12 -27.5t28 -11.5t27.5 12t11.5 28zM516 389q0 17 -12.5 29.5t-29.5 12.5t-30 -12t-13 -29q0 -18 12.5 -30.5t29.5 -12.5t30 12
t13 30zM553 301q0 18 -12.5 30.5t-29.5 12.5t-30 -12t-13 -29t12 -30t29 -13q18 0 31 12t13 29zM590 214q0 17 -12.5 30t-29.5 13t-30 -12t-13 -29q0 -18 12 -30.5t30 -12.5q17 0 30 12t13 29zM319 477q0 17 -12.5 29t-30.5 12q-17 0 -29 -12.5t-12 -29.5q0 -18 12.5 -30
t30.5 -12q17 0 29 12.5t12 30.5zM444 279l-92 206l-86 -206h178zM625 128q0 17 -12 30t-30 13q-17 0 -29.5 -12.5t-12.5 -29.5t12 -30t29 -13t30 12.5t13 29.5zM496 216q0 18 -13 31t-30 13q-18 0 -31 -13t-13 -31q0 -17 13 -30t31 -13q17 0 30 13t13 30zM663 41
q0 17 -12 30t-29 13t-30 -12t-13 -30q0 -17 12 -30t30 -13q17 0 29.5 12.5t12.5 29.5zM282 389q0 18 -12.5 30t-30.5 12q-17 0 -29 -12.5t-12 -30.5q0 -17 12.5 -29t30.5 -12q17 0 29 12.5t12 29.5zM400 216q0 18 -12.5 31t-30.5 13t-30.5 -13t-12.5 -31q0 -17 12.5 -30
t30.5 -13t30.5 13t12.5 30zM245 303q0 17 -12.5 29t-30.5 12q-17 0 -29 -13t-12 -30t13 -29t30 -12t29 12.5t12 30.5zM305 216q0 18 -13 31t-31 13q-17 0 -30 -13t-13 -31q0 -17 13 -30t30 -13q18 0 31 13t13 30zM209 216q0 17 -13 29t-30 12q-18 0 -30 -13t-12 -30t13 -29
t30 -12t29.5 12.5t12.5 30.5zM173 129q0 17 -13 29.5t-30 12.5t-29.5 -13t-12.5 -30t13 -29.5t30 -12.5q18 0 30 13t12 30zM135 43q0 17 -13 29t-30 12t-29.5 -13t-12.5 -30t13 -29.5t30 -12.5t29.5 13t12.5 31zM548 716h-141l-51 50l-46 -50h-140l133 181h108zM470 778
q0 16 -12 28t-28 12t-27.5 -12t-11.5 -28t11.5 -27.5t27.5 -11.5t28 11.5t12 27.5zM401 835q0 18 -13 31t-31 13t-31 -13t-13 -31t13 -31t31 -13t31 13t13 31zM323 778q0 16 -12 28t-28 12t-27.5 -12t-11.5 -28t11.5 -27.5t27.5 -11.5t28 11.5t12 27.5z" />
    <glyph glyph-name="adieresis" unicode="&#xe4;" 
d="M723 -20h-144l-77 171h-291l-73 -171h-143l310 726h95zM401 643q0 18 -13 31t-31 13t-31.5 -13t-13.5 -31t13.5 -31t31.5 -13t31 13t13 31zM441 560q0 17 -11.5 29t-27.5 12q-17 0 -29 -11.5t-12 -28.5q0 -16 11.5 -28t28.5 -12q16 0 28 11.5t12 27.5zM479 476
q0 17 -12.5 29.5t-29.5 12.5t-30 -12t-13 -29t12.5 -30t29.5 -13t30 12t13 30zM352 561q0 17 -12 28.5t-28 11.5t-27.5 -12t-11.5 -29q0 -16 12 -27.5t28 -11.5t27.5 12t11.5 28zM516 389q0 17 -12.5 29.5t-29.5 12.5t-30 -12t-13 -29q0 -18 12.5 -30.5t29.5 -12.5t30 12
t13 30zM553 301q0 18 -12.5 30.5t-29.5 12.5t-30 -12t-13 -29t12 -30t29 -13q18 0 31 12t13 29zM590 214q0 17 -12.5 30t-29.5 13t-30 -12t-13 -29q0 -18 12 -30.5t30 -12.5q17 0 30 12t13 29zM319 477q0 17 -12.5 29t-30.5 12q-17 0 -29 -12.5t-12 -29.5q0 -18 12.5 -30
t30.5 -12q17 0 29 12.5t12 30.5zM444 279l-92 206l-86 -206h178zM625 128q0 17 -12 30t-30 13q-17 0 -29.5 -12.5t-12.5 -29.5t12 -30t29 -13t30 12.5t13 29.5zM496 216q0 18 -13 31t-30 13q-18 0 -31 -13t-13 -31q0 -17 13 -30t31 -13q17 0 30 13t13 30zM663 41
q0 17 -12 30t-29 13t-30 -12t-13 -30q0 -17 12 -30t30 -13q17 0 29.5 12.5t12.5 29.5zM282 389q0 18 -12.5 30t-30.5 12q-17 0 -29 -12.5t-12 -30.5q0 -17 12.5 -29t30.5 -12q17 0 29 12.5t12 29.5zM400 216q0 18 -12.5 31t-30.5 13t-30.5 -13t-12.5 -31q0 -17 12.5 -30
t30.5 -13t30.5 13t12.5 30zM245 303q0 17 -12.5 29t-30.5 12q-17 0 -29 -13t-12 -30t13 -29t30 -12t29 12.5t12 30.5zM305 216q0 18 -13 31t-31 13q-17 0 -30 -13t-13 -31q0 -17 13 -30t30 -13q18 0 31 13t13 30zM209 216q0 17 -13 29t-30 12q-18 0 -30 -13t-12 -30t13 -29
t30 -12t29.5 12.5t12.5 30.5zM173 129q0 17 -13 29.5t-30 12.5t-29.5 -13t-12.5 -30t13 -29.5t30 -12.5q18 0 30 13t12 30zM135 43q0 17 -13 29t-30 12t-29.5 -13t-12.5 -30t13 -29.5t30 -12.5t29.5 13t12.5 31zM517 805q0 -28 -19 -47.5t-47 -19.5q-27 0 -47 20t-20 47
q0 28 19.5 47t47.5 19t47 -19t19 -47zM331 805q0 -28 -19 -47.5t-47 -19.5q-27 0 -47 20t-20 47q0 28 19.5 47t47.5 19t47 -19t19 -47zM491 806q0 16 -12 28t-28 12t-28 -12t-12 -28t12 -28t28 -12t28 12t12 28zM304 806q0 16 -12 28t-28 12t-28 -12t-12 -28t12 -28t28 -12
t28 12t12 28z" />
    <glyph glyph-name="atilde" unicode="&#xe3;" 
d="M723 -20h-144l-77 171h-291l-73 -171h-143l310 726h95zM401 643q0 18 -13 31t-31 13t-31.5 -13t-13.5 -31t13.5 -31t31.5 -13t31 13t13 31zM441 560q0 17 -11.5 29t-27.5 12q-17 0 -29 -11.5t-12 -28.5q0 -16 11.5 -28t28.5 -12q16 0 28 11.5t12 27.5zM479 476
q0 17 -12.5 29.5t-29.5 12.5t-30 -12t-13 -29t12.5 -30t29.5 -13t30 12t13 30zM352 561q0 17 -12 28.5t-28 11.5t-27.5 -12t-11.5 -29q0 -16 12 -27.5t28 -11.5t27.5 12t11.5 28zM516 389q0 17 -12.5 29.5t-29.5 12.5t-30 -12t-13 -29q0 -18 12.5 -30.5t29.5 -12.5t30 12
t13 30zM553 301q0 18 -12.5 30.5t-29.5 12.5t-30 -12t-13 -29t12 -30t29 -13q18 0 31 12t13 29zM590 214q0 17 -12.5 30t-29.5 13t-30 -12t-13 -29q0 -18 12 -30.5t30 -12.5q17 0 30 12t13 29zM319 477q0 17 -12.5 29t-30.5 12q-17 0 -29 -12.5t-12 -29.5q0 -18 12.5 -30
t30.5 -12q17 0 29 12.5t12 30.5zM444 279l-92 206l-86 -206h178zM625 128q0 17 -12 30t-30 13q-17 0 -29.5 -12.5t-12.5 -29.5t12 -30t29 -13t30 12.5t13 29.5zM496 216q0 18 -13 31t-30 13q-18 0 -31 -13t-13 -31q0 -17 13 -30t31 -13q17 0 30 13t13 30zM663 41
q0 17 -12 30t-29 13t-30 -12t-13 -30q0 -17 12 -30t30 -13q17 0 29.5 12.5t12.5 29.5zM282 389q0 18 -12.5 30t-30.5 12q-17 0 -29 -12.5t-12 -30.5q0 -17 12.5 -29t30.5 -12q17 0 29 12.5t12 29.5zM400 216q0 18 -12.5 31t-30.5 13t-30.5 -13t-12.5 -31q0 -17 12.5 -30
t30.5 -13t30.5 13t12.5 30zM245 303q0 17 -12.5 29t-30.5 12q-17 0 -29 -13t-12 -30t13 -29t30 -12t29 12.5t12 30.5zM305 216q0 18 -13 31t-31 13q-17 0 -30 -13t-13 -31q0 -17 13 -30t30 -13q18 0 31 13t13 30zM209 216q0 17 -13 29t-30 12q-18 0 -30 -13t-12 -30t13 -29
t30 -12t29.5 12.5t12.5 30.5zM173 129q0 17 -13 29.5t-30 12.5t-29.5 -13t-12.5 -30t13 -29.5t30 -12.5q18 0 30 13t12 30zM135 43q0 17 -13 29t-30 12t-29.5 -13t-12.5 -30t13 -29.5t30 -12.5t29.5 13t12.5 31zM540 898q0 -64 -23 -106q-29 -52 -88 -52q-28 0 -80.5 17.5
t-80.5 17.5q-18 0 -23 -35h-86q12 155 112 155q29 0 82 -17.5t81 -17.5q19 0 25 38h81zM507 828q0 14 -11 23.5t-25 9.5t-24 -10.5t-10 -25.5q0 -14 11 -23.5t25 -9.5q15 0 24.5 11t9.5 25zM431 799q0 16 -12 27t-28 11q-17 0 -27.5 -12t-10.5 -29q0 -16 12 -26.5t29 -10.5
q16 0 26.5 12t10.5 28zM349 834q0 16 -12 27t-29 11q-16 0 -27 -12.5t-11 -28.5t12.5 -27t28.5 -11t27 12.5t11 28.5zM264 805q0 14 -10.5 24t-25.5 10q-14 0 -23.5 -11t-9.5 -26q0 -14 11 -23.5t25 -9.5t23.5 11t9.5 25z" />
    <glyph glyph-name="aring" unicode="&#xe5;" horiz-adv-x="667" 
d="M723 -20h-144l-77 171h-291l-73 -171h-143l296 694q-70 38 -70 117q0 55 39 94t94 39t94 -39t39 -94q0 -81 -72 -118zM429 860q0 14 -10 24.5t-24 10.5t-24 -10t-10 -24t10 -24.5t24 -10.5t24 10t10 24zM469 792q0 14 -10.5 24.5t-24.5 10.5t-24 -10.5t-10 -24.5t10 -24
t24 -10t24.5 10t10.5 24zM351 861q0 14 -10.5 24t-24.5 10t-24 -10.5t-10 -24.5t10 -24t24 -10t24.5 10.5t10.5 24.5zM378 791q0 24 -24 24t-24 -24t24 -24t24 24zM429 724q0 14 -10 24t-24 10t-24 -10t-10 -24t10 -24t24 -10t24 10t10 24zM311 792q0 14 -10 24.5t-24 10.5
t-24.5 -10.5t-10.5 -24.5t10.5 -24t24.5 -10t24 10t10 24zM351 724q0 14 -10.5 24t-24.5 10t-24 -10t-10 -24t10 -24t24 -10t24.5 10t10.5 24zM401 643q0 18 -13 31t-31 13t-31.5 -13t-13.5 -31t13.5 -31t31.5 -13t31 13t13 31zM441 560q0 17 -11.5 29t-27.5 12
q-17 0 -29 -11.5t-12 -28.5q0 -16 11.5 -28t28.5 -12q16 0 28 11.5t12 27.5zM479 476q0 17 -12.5 29.5t-29.5 12.5t-30 -12t-13 -29t12.5 -30t29.5 -13t30 12t13 30zM352 561q0 17 -12 28.5t-28 11.5t-27.5 -12t-11.5 -29q0 -16 12 -27.5t28 -11.5t27.5 12t11.5 28zM516 389
q0 17 -12.5 29.5t-29.5 12.5t-30 -12t-13 -29q0 -18 12 -30.5t30 -12.5q17 0 30 12t13 30zM553 301q0 18 -12.5 30.5t-29.5 12.5t-30 -12t-13 -29q0 -18 12 -30.5t29 -12.5q18 0 31 12t13 29zM590 214q0 17 -12.5 30t-29.5 13t-30 -12t-13 -29q0 -18 12 -30.5t30 -12.5
q17 0 30 12t13 29zM319 477q0 17 -12.5 29t-30.5 12q-17 0 -29 -12.5t-12 -29.5q0 -18 12.5 -30t30.5 -12q17 0 29 12.5t12 30.5zM444 279l-92 206l-86 -206h178zM625 128q0 17 -12 30t-30 13q-17 0 -29.5 -12.5t-12.5 -29.5t12 -30t29 -13t30 12.5t13 29.5zM496 216
q0 18 -13 31t-30 13q-18 0 -31 -13t-13 -31q0 -17 13 -30t31 -13q17 0 30 13t13 30zM663 41q0 17 -12 30t-29 13t-30 -12t-13 -30q0 -17 12 -30t30 -13q17 0 29.5 12.5t12.5 29.5zM282 389q0 18 -12.5 30t-30.5 12q-17 0 -29 -12.5t-12 -30.5q0 -17 13 -29t30 -12t29 12.5
t12 29.5zM400 216q0 18 -12.5 31t-30.5 13t-30.5 -13t-12.5 -31q0 -17 12.5 -30t30.5 -13t30.5 13t12.5 30zM245 302q0 18 -12.5 30t-30.5 12q-17 0 -29 -13t-12 -30t13 -29t30 -12t29 12.5t12 29.5zM305 216q0 18 -13 31t-31 13q-17 0 -30 -13t-13 -31q0 -17 13 -30t30 -13
q18 0 31 13t13 30zM209 216q0 17 -13 29t-30 12q-18 0 -30 -13t-12 -30t13 -29t30 -12t29.5 12.5t12.5 30.5zM173 129q0 17 -13 29.5t-30 12.5t-29.5 -13t-12.5 -30t13 -29.5t30 -12.5q18 0 30 13t12 30zM135 43q0 17 -13 29t-30 12t-29.5 -13t-12.5 -30t13 -29.5t30 -12.5
t29.5 13t12.5 31z" />
    <glyph glyph-name="ccedilla" unicode="&#xe7;" 
d="M660 44q-130 -68 -249 -73q30 -24 30 -61q0 -50 -33 -81.5t-84 -31.5q-55 0 -104 16l15 104q47 -15 70 -15q18 0 24 12q0 12 -35 14q-22 0 -44 1l37 55q-126 31 -204 125t-78 222q0 168 114 275q111 105 280 105q92 0 254 -68v-153q-156 91 -255 91q-107 0 -178 -67
q-74 -68 -74 -174q0 -110 74 -176q71 -63 182 -63q106 0 258 99v-156zM631 594q0 18 -13 31t-31 13t-31 -13t-13 -31t13 -31t31 -13t31 13t13 31zM541 632q0 18 -13.5 31t-31.5 13t-31 -13t-13 -31t13.5 -31t31.5 -13t31 13t13 31zM443 645q0 18 -13.5 31t-31.5 13t-31 -13
t-13 -31t13.5 -31t31.5 -13t31 13t13 31zM344 632q0 18 -13 31t-31 13t-31 -13t-13 -31t13 -31t31 -13t31 13t13 31zM253 594q0 18 -13 31t-31 13t-31 -13t-13 -31t13 -31t31 -13t31 13t13 31zM631 90q0 18 -13.5 31t-31.5 13t-31 -13t-13 -31t13.5 -31t31.5 -13t31 13
t13 31zM180 528q0 19 -13 32t-31 13t-31 -13t-13 -31t13 -31.5t31 -13.5t31 13t13 31zM540 51q0 18 -13 31t-31 13t-31 -13t-13 -31t13 -31t31 -13t31 13t13 31zM134 441q0 18 -13 31.5t-31 13.5t-31 -13t-13 -31t13 -31.5t31 -13.5t31 13t13 31zM442 37q0 18 -13 31t-31 13
t-31 -13t-13 -31t13 -31t31 -13t31 13t13 31zM124 342q0 18 -13 31.5t-31 13.5t-31.5 -13t-13.5 -31t13 -31.5t31 -13.5t31.5 13t13.5 31zM345 51q0 18 -13 31t-31 13t-31.5 -13t-13.5 -31t13 -31t31 -13t31.5 13t13.5 31zM136 243q0 18 -13 31.5t-31 13.5t-31 -13t-13 -31
t13 -31.5t31 -13.5t31 13t13 31zM371 -26q0 13 -9.5 22t-21.5 9q-13 0 -22 -9t-9 -22q0 -12 9 -21.5t22 -9.5q12 0 21.5 9.5t9.5 21.5zM418 -79q0 12 -9 21.5t-21 9.5q-13 0 -22 -9.5t-9 -21.5q0 -13 9 -22t22 -9q12 0 21 9t9 22zM254 90q0 18 -13 31t-31 13t-31 -13
t-13 -31t13 -31t31 -13t31 13t13 31zM182 155q0 18 -13 31.5t-31 13.5t-31.5 -13t-13.5 -31t13 -31.5t31 -13.5t31.5 13t13.5 31zM382 -141q0 12 -9 21.5t-22 9.5q-12 0 -21.5 -9.5t-9.5 -21.5q0 -13 9.5 -22t21.5 -9q13 0 22 9t9 22zM311 -144q0 13 -9.5 22t-21.5 9
q-13 0 -22 -9t-9 -22q0 -12 9 -21.5t22 -9.5q12 0 21.5 9.5t9.5 21.5z" />
    <glyph glyph-name="eacute" unicode="&#xe9;" 
d="M468 280h-297v-172h296v-128h-434v722h435v-128h-297v-166h297v-128zM441 639q0 18 -13 31t-31 13t-31 -13t-13 -31t13 -31.5t31 -13.5t31 13.5t13 31.5zM342 639q0 18 -13 31t-31 13t-31 -13t-13 -31t13 -31.5t31 -13.5t31 13.5t13 31.5zM244 639q0 18 -13.5 31
t-31.5 13t-31 -13t-13 -31t13 -31.5t31 -13.5t31.5 13.5t13.5 31.5zM441 343q0 18 -13 31t-31 13t-31 -13t-13 -31t13 -31t31 -13t31 13t13 31zM145 639q0 18 -13 31t-31 13q-19 0 -32 -13t-13 -31t13 -31.5t32 -13.5q18 0 31 13.5t13 31.5zM342 343q0 18 -13 31t-31 13
t-31 -13t-13 -31t13 -31t31 -13t31 13t13 31zM145 540q0 18 -13 31t-31 13q-19 0 -32 -13t-13 -31t13 -31t32 -13q18 0 31 13t13 31zM244 343q0 18 -13.5 31t-31.5 13t-31 -13t-13 -31t13 -31t31 -13t31.5 13t13.5 31zM145 442q0 18 -13 31t-31 13q-19 0 -32 -13t-13 -31
t13 -31.5t32 -13.5q18 0 31 13.5t13 31.5zM441 48q0 18 -13 31t-31 13t-31 -13t-13 -31t13 -31.5t31 -13.5t31 13.5t13 31.5zM145 343q0 18 -13 31t-31 13q-19 0 -32 -13t-13 -31t13 -31t32 -13q18 0 31 13t13 31zM342 48q0 18 -13 31t-31 13t-31 -13t-13 -31t13 -31.5
t31 -13.5t31 13.5t13 31.5zM145 245q0 18 -13 31t-31 13q-19 0 -32 -13t-13 -31t13 -31.5t32 -13.5q18 0 31 13.5t13 31.5zM244 48q0 18 -13.5 31t-31.5 13t-31 -13t-13 -31t13 -31.5t31 -13.5t31.5 13.5t13.5 31.5zM145 146q0 18 -13 31t-31 13q-19 0 -32 -13t-13 -31
t13 -31t32 -13q18 0 31 13t13 31zM145 48q0 18 -13 31t-31 13q-19 0 -32 -13t-13 -31t13 -31.5t32 -13.5q18 0 31 13.5t13 31.5zM398 917l-154 -202h-112l92 202h174zM316 855q0 18 -13.5 31t-31.5 13t-31 -13t-13 -31t13 -31t31 -13t31.5 13t13.5 31zM261 777
q0 16 -11.5 27.5t-27.5 11.5t-28 -11.5t-12 -27.5t12 -28t28 -12t27.5 12t11.5 28z" />
    <glyph glyph-name="egrave" unicode="&#xe8;" 
d="M468 280h-297v-172h296v-128h-434v722h435v-128h-297v-166h297v-128zM441 639q0 18 -13 31t-31 13t-31 -13t-13 -31t13 -31.5t31 -13.5t31 13.5t13 31.5zM342 639q0 18 -13 31t-31 13t-31 -13t-13 -31t13 -31.5t31 -13.5t31 13.5t13 31.5zM244 639q0 18 -13.5 31
t-31.5 13t-31 -13t-13 -31t13 -31.5t31 -13.5t31.5 13.5t13.5 31.5zM441 343q0 18 -13 31t-31 13t-31 -13t-13 -31t13 -31t31 -13t31 13t13 31zM145 639q0 18 -13 31t-31 13q-19 0 -32 -13t-13 -31t13 -31.5t32 -13.5q18 0 31 13.5t13 31.5zM342 343q0 18 -13 31t-31 13
t-31 -13t-13 -31t13 -31t31 -13t31 13t13 31zM145 540q0 18 -13 31t-31 13q-19 0 -32 -13t-13 -31t13 -31t32 -13q18 0 31 13t13 31zM244 343q0 18 -13.5 31t-31.5 13t-31 -13t-13 -31t13 -31t31 -13t31.5 13t13.5 31zM145 442q0 18 -13 31t-31 13q-19 0 -32 -13t-13 -31
t13 -31.5t32 -13.5q18 0 31 13.5t13 31.5zM441 48q0 18 -13 31t-31 13t-31 -13t-13 -31t13 -31.5t31 -13.5t31 13.5t13 31.5zM145 343q0 18 -13 31t-31 13q-19 0 -32 -13t-13 -31t13 -31t32 -13q18 0 31 13t13 31zM342 48q0 18 -13 31t-31 13t-31 -13t-13 -31t13 -31.5
t31 -13.5t31 13.5t13 31.5zM145 245q0 18 -13 31t-31 13q-19 0 -32 -13t-13 -31t13 -31.5t32 -13.5q18 0 31 13.5t13 31.5zM244 48q0 18 -13.5 31t-31.5 13t-31 -13t-13 -31t13 -31.5t31 -13.5t31.5 13.5t13.5 31.5zM145 146q0 18 -13 31t-31 13q-19 0 -32 -13t-13 -31
t13 -31t32 -13q18 0 31 13t13 31zM145 48q0 18 -13 31t-31 13q-19 0 -32 -13t-13 -31t13 -31.5t32 -13.5q18 0 31 13.5t13 31.5zM90 917l154 -202h112l-93 202h-173zM172 855q0 18 13 31t31 13t31.5 -13t13.5 -31t-13.5 -31t-31.5 -13t-31 13t-13 31zM227 777
q0 16 11.5 27.5t27.5 11.5t28 -11.5t12 -27.5t-12 -28t-28 -12t-27.5 12t-11.5 28z" />
    <glyph glyph-name="ecircumflex" unicode="&#xea;" 
d="M468 280h-297v-172h296v-128h-434v722h435v-128h-297v-166h297v-128zM441 639q0 18 -13 31t-31 13t-31 -13t-13 -31t13 -31.5t31 -13.5t31 13.5t13 31.5zM342 639q0 18 -13 31t-31 13t-31 -13t-13 -31t13 -31.5t31 -13.5t31 13.5t13 31.5zM244 639q0 18 -13.5 31
t-31.5 13t-31 -13t-13 -31t13 -31.5t31 -13.5t31.5 13.5t13.5 31.5zM441 343q0 18 -13 31t-31 13t-31 -13t-13 -31t13 -31t31 -13t31 13t13 31zM145 639q0 18 -13 31t-31 13q-19 0 -32 -13t-13 -31t13 -31.5t32 -13.5q18 0 31 13.5t13 31.5zM342 343q0 18 -13 31t-31 13
t-31 -13t-13 -31t13 -31t31 -13t31 13t13 31zM145 540q0 18 -13 31t-31 13q-19 0 -32 -13t-13 -31t13 -31t32 -13q18 0 31 13t13 31zM244 343q0 18 -13.5 31t-31.5 13t-31 -13t-13 -31t13 -31t31 -13t31.5 13t13.5 31zM145 442q0 18 -13 31t-31 13q-19 0 -32 -13t-13 -31
t13 -31.5t32 -13.5q18 0 31 13.5t13 31.5zM441 48q0 18 -13 31t-31 13t-31 -13t-13 -31t13 -31.5t31 -13.5t31 13.5t13 31.5zM145 343q0 18 -13 31t-31 13q-19 0 -32 -13t-13 -31t13 -31t32 -13q18 0 31 13t13 31zM342 48q0 18 -13 31t-31 13t-31 -13t-13 -31t13 -31.5
t31 -13.5t31 13.5t13 31.5zM145 245q0 18 -13 31t-31 13q-19 0 -32 -13t-13 -31t13 -31.5t32 -13.5q18 0 31 13.5t13 31.5zM244 48q0 18 -13.5 31t-31.5 13t-31 -13t-13 -31t13 -31.5t31 -13.5t31.5 13.5t13.5 31.5zM145 146q0 18 -13 31t-31 13q-19 0 -32 -13t-13 -31
t13 -31t32 -13q18 0 31 13t13 31zM145 48q0 18 -13 31t-31 13q-19 0 -32 -13t-13 -31t13 -31.5t32 -13.5q18 0 31 13.5t13 31.5zM435 716h-141l-51 50l-46 -50h-140l133 181h108zM357 778q0 16 -12 28t-28 12t-27.5 -12t-11.5 -28t11.5 -27.5t27.5 -11.5t28 11.5t12 27.5z
M288 835q0 18 -13 31t-31 13t-31 -13t-13 -31t13 -31t31 -13t31 13t13 31zM210 778q0 16 -12 28t-28 12t-27.5 -12t-11.5 -28t11.5 -27.5t27.5 -11.5t28 11.5t12 27.5z" />
    <glyph glyph-name="edieresis" unicode="&#xeb;" 
d="M468 280h-297v-172h296v-128h-434v722h435v-128h-297v-166h297v-128zM441 639q0 18 -13 31t-31 13t-31 -13t-13 -31t13 -31.5t31 -13.5t31 13.5t13 31.5zM342 639q0 18 -13 31t-31 13t-31 -13t-13 -31t13 -31.5t31 -13.5t31 13.5t13 31.5zM244 639q0 18 -13.5 31
t-31.5 13t-31 -13t-13 -31t13 -31.5t31 -13.5t31.5 13.5t13.5 31.5zM441 343q0 18 -13 31t-31 13t-31 -13t-13 -31t13 -31t31 -13t31 13t13 31zM145 639q0 18 -13 31t-31 13q-19 0 -32 -13t-13 -31t13 -31.5t32 -13.5q18 0 31 13.5t13 31.5zM342 343q0 18 -13 31t-31 13
t-31 -13t-13 -31t13 -31t31 -13t31 13t13 31zM145 540q0 18 -13 31t-31 13q-19 0 -32 -13t-13 -31t13 -31t32 -13q18 0 31 13t13 31zM244 343q0 18 -13.5 31t-31.5 13t-31 -13t-13 -31t13 -31t31 -13t31.5 13t13.5 31zM145 442q0 18 -13 31t-31 13q-19 0 -32 -13t-13 -31
t13 -31.5t32 -13.5q18 0 31 13.5t13 31.5zM441 48q0 18 -13 31t-31 13t-31 -13t-13 -31t13 -31.5t31 -13.5t31 13.5t13 31.5zM145 343q0 18 -13 31t-31 13q-19 0 -32 -13t-13 -31t13 -31t32 -13q18 0 31 13t13 31zM342 48q0 18 -13 31t-31 13t-31 -13t-13 -31t13 -31.5
t31 -13.5t31 13.5t13 31.5zM145 245q0 18 -13 31t-31 13q-19 0 -32 -13t-13 -31t13 -31.5t32 -13.5q18 0 31 13.5t13 31.5zM244 48q0 18 -13.5 31t-31.5 13t-31 -13t-13 -31t13 -31.5t31 -13.5t31.5 13.5t13.5 31.5zM145 146q0 18 -13 31t-31 13q-19 0 -32 -13t-13 -31
t13 -31t32 -13q18 0 31 13t13 31zM145 48q0 18 -13 31t-31 13q-19 0 -32 -13t-13 -31t13 -31.5t32 -13.5q18 0 31 13.5t13 31.5zM414 805q0 -28 -19 -47.5t-47 -19.5q-27 0 -47 20t-20 47q0 28 19.5 47t47.5 19t47 -19t19 -47zM228 805q0 -28 -19 -47.5t-47 -19.5
q-27 0 -47 20t-20 47q0 28 19.5 47t47.5 19t47 -19t19 -47zM388 806q0 16 -12 28t-28 12t-28 -12t-12 -28t12 -28t28 -12t28 12t12 28zM201 806q0 16 -12 28t-28 12t-28 -12t-12 -28t12 -28t28 -12t28 12t12 28z" />
    <glyph glyph-name="iacute" unicode="&#xed;" 
d="M186 -20h-138v722h138v-722zM162 639q0 18 -13.5 31t-31.5 13t-31 -13t-13 -31t13 -31.5t31 -13.5t31.5 13.5t13.5 31.5zM162 540q0 18 -13.5 31t-31.5 13t-31 -13t-13 -31t13 -31t31 -13t31.5 13t13.5 31zM162 442q0 18 -13.5 31t-31.5 13t-31 -13t-13 -31t13 -31.5
t31 -13.5t31.5 13.5t13.5 31.5zM162 343q0 18 -13.5 31t-31.5 13t-31 -13t-13 -31t13 -31t31 -13t31.5 13t13.5 31zM162 245q0 18 -13.5 31t-31.5 13t-31 -13t-13 -31t13 -31.5t31 -13.5t31.5 13.5t13.5 31.5zM162 146q0 18 -13.5 31t-31.5 13t-31 -13t-13 -31t13 -31
t31 -13t31.5 13t13.5 31zM162 48q0 18 -13.5 31t-31.5 13t-31 -13t-13 -31t13 -31.5t31 -13.5t31.5 13.5t13.5 31.5zM263 917l-154 -202h-112l92 202h174zM181 855q0 18 -13.5 31t-31.5 13t-31 -13t-13 -31t13 -31t31 -13t31.5 13t13.5 31zM126 777q0 16 -11.5 27.5
t-27.5 11.5t-28 -11.5t-12 -27.5t12 -28t28 -12t27.5 12t11.5 28z" />
    <glyph glyph-name="igrave" unicode="&#xec;" 
d="M186 -20h-138v722h138v-722zM162 639q0 18 -13.5 31t-31.5 13t-31 -13t-13 -31t13 -31.5t31 -13.5t31.5 13.5t13.5 31.5zM162 540q0 18 -13.5 31t-31.5 13t-31 -13t-13 -31t13 -31t31 -13t31.5 13t13.5 31zM162 442q0 18 -13.5 31t-31.5 13t-31 -13t-13 -31t13 -31.5
t31 -13.5t31.5 13.5t13.5 31.5zM162 343q0 18 -13.5 31t-31.5 13t-31 -13t-13 -31t13 -31t31 -13t31.5 13t13.5 31zM162 245q0 18 -13.5 31t-31.5 13t-31 -13t-13 -31t13 -31.5t31 -13.5t31.5 13.5t13.5 31.5zM162 146q0 18 -13.5 31t-31.5 13t-31 -13t-13 -31t13 -31
t31 -13t31.5 13t13.5 31zM162 48q0 18 -13.5 31t-31.5 13t-31 -13t-13 -31t13 -31.5t31 -13.5t31.5 13.5t13.5 31.5zM-45 917l154 -202h112l-93 202h-173zM37 855q0 18 13 31t31 13t31.5 -13t13.5 -31t-13.5 -31t-31.5 -13t-31 13t-13 31zM92 777q0 16 11.5 27.5t27.5 11.5
t28 -11.5t12 -27.5t-12 -28t-28 -12t-27.5 12t-11.5 28z" />
    <glyph glyph-name="icircumflex" unicode="&#xee;" 
d="M186 -20h-138v722h138v-722zM162 639q0 18 -13.5 31t-31.5 13t-31 -13t-13 -31t13 -31.5t31 -13.5t31.5 13.5t13.5 31.5zM162 540q0 18 -13.5 31t-31.5 13t-31 -13t-13 -31t13 -31t31 -13t31.5 13t13.5 31zM162 442q0 18 -13.5 31t-31.5 13t-31 -13t-13 -31t13 -31.5
t31 -13.5t31.5 13.5t13.5 31.5zM162 343q0 18 -13.5 31t-31.5 13t-31 -13t-13 -31t13 -31t31 -13t31.5 13t13.5 31zM162 245q0 18 -13.5 31t-31.5 13t-31 -13t-13 -31t13 -31.5t31 -13.5t31.5 13.5t13.5 31.5zM162 146q0 18 -13.5 31t-31.5 13t-31 -13t-13 -31t13 -31
t31 -13t31.5 13t13.5 31zM162 48q0 18 -13.5 31t-31.5 13t-31 -13t-13 -31t13 -31.5t31 -13.5t31.5 13.5t13.5 31.5zM309 716h-141l-51 50l-46 -50h-140l133 181h108zM231 778q0 16 -12 28t-28 12t-27.5 -12t-11.5 -28t11.5 -27.5t27.5 -11.5t28 11.5t12 27.5zM162 835
q0 18 -13 31t-31 13t-31 -13t-13 -31t13 -31t31 -13t31 13t13 31zM84 778q0 16 -12 28t-28 12t-27.5 -12t-11.5 -28t11.5 -27.5t27.5 -11.5t28 11.5t12 27.5z" />
    <glyph glyph-name="idieresis" unicode="&#xef;" 
d="M186 -20h-138v722h138v-722zM162 639q0 18 -13.5 31t-31.5 13t-31 -13t-13 -31t13 -31.5t31 -13.5t31.5 13.5t13.5 31.5zM162 540q0 18 -13.5 31t-31.5 13t-31 -13t-13 -31t13 -31t31 -13t31.5 13t13.5 31zM162 442q0 18 -13.5 31t-31.5 13t-31 -13t-13 -31t13 -31.5
t31 -13.5t31.5 13.5t13.5 31.5zM162 343q0 18 -13.5 31t-31.5 13t-31 -13t-13 -31t13 -31t31 -13t31.5 13t13.5 31zM162 245q0 18 -13.5 31t-31.5 13t-31 -13t-13 -31t13 -31.5t31 -13.5t31.5 13.5t13.5 31.5zM162 146q0 18 -13.5 31t-31.5 13t-31 -13t-13 -31t13 -31
t31 -13t31.5 13t13.5 31zM162 48q0 18 -13.5 31t-31.5 13t-31 -13t-13 -31t13 -31.5t31 -13.5t31.5 13.5t13.5 31.5zM279 805q0 -28 -19 -47.5t-47 -19.5q-27 0 -47 20t-20 47q0 28 19.5 47t47.5 19t47 -19t19 -47zM93 805q0 -28 -19 -47.5t-47 -19.5q-27 0 -47 20t-20 47
q0 28 19.5 47t47.5 19t47 -19t19 -47zM253 806q0 16 -12 28t-28 12t-28 -12t-12 -28t12 -28t28 -12t28 12t12 28zM66 806q0 16 -12 28t-28 12t-28 -12t-12 -28t12 -28t28 -12t28 12t12 28z" />
    <glyph glyph-name="ntilde" unicode="&#xf1;" 
d="M729 -20h-114l-431 492v-492h-133v722h108l437 -495v495h133v-722zM706 637q0 18 -13 31.5t-31 13.5t-31 -13.5t-13 -31.5t13 -31t31 -13t31 13t13 31zM706 539q0 18 -13 31t-31 13t-31 -13t-13 -31t13 -31t31 -13t31 13t13 31zM706 440q0 18 -13 31.5t-31 13.5
t-31 -13.5t-13 -31.5t13 -31t31 -13t31 13t13 31zM706 342q0 18 -13 31t-31 13t-31 -13t-13 -31t13 -31t31 -13t31 13t13 31zM706 243q0 18 -13 31.5t-31 13.5t-31 -13.5t-13 -31.5t13 -31t31 -13t31 13t13 31zM706 145q0 15 -11 25.5t-26 10.5t-26 -10.5t-11 -25.5t11 -26
t26 -11t26 11t11 26zM228 566q0 15 -11 26t-26 11t-25.5 -11t-10.5 -26t10.5 -26t25.5 -11t26 11t11 26zM162 637q0 18 -13 31.5t-31 13.5t-31.5 -13.5t-13.5 -31.5t13.5 -31t31.5 -13t31 13t13 31zM298 490q0 18 -13 31t-31 13t-31.5 -13t-13.5 -31t13.5 -31.5t31.5 -13.5
t31 13.5t13 31.5zM366 416q0 18 -13 31t-31 13t-31 -13t-13 -31t13 -31t31 -13t31 13t13 31zM434 342q0 18 -13 31t-31 13t-31 -13t-13 -31t13 -31t31 -13t31 13t13 31zM502 268q0 18 -13 31t-31 13t-31 -13t-13 -31t13 -31t31 -13t31 13t13 31zM570 194q0 18 -13 31t-31 13
t-31 -13t-13 -31t13 -31t31 -13t31 13t13 31zM706 46q0 18 -13 31.5t-31 13.5t-31 -13.5t-13 -31.5t13 -31t31 -13t31 13t13 31zM625 118q0 15 -11 26t-26 11t-26 -11t-11 -26t11 -26t26 -11t26 11t11 26zM148 539q0 15 -11 26t-26 11t-26 -11t-11 -26t11 -26t26 -11t26 11
t11 26zM162 440q0 18 -13 31.5t-31 13.5t-31.5 -13.5t-13.5 -31.5t13.5 -31t31.5 -13t31 13t13 31zM162 342q0 18 -13 31t-31 13t-31.5 -13t-13.5 -31t13.5 -31t31.5 -13t31 13t13 31zM162 243q0 18 -13 31.5t-31 13.5t-31.5 -13.5t-13.5 -31.5t13.5 -31t31.5 -13t31 13
t13 31zM162 145q0 18 -13 31t-31 13t-31.5 -13t-13.5 -31t13.5 -31t31.5 -13t31 13t13 31zM162 46q0 18 -13 31.5t-31 13.5t-31.5 -13.5t-13.5 -31.5t13.5 -31t31.5 -13t31 13t13 31zM577 898q0 -64 -23 -106q-29 -52 -88 -52q-28 0 -80.5 17.5t-80.5 17.5q-18 0 -23 -35
h-86q12 155 112 155q29 0 82 -17.5t81 -17.5q19 0 25 38h81zM544 828q0 14 -11 23.5t-25 9.5t-24 -10.5t-10 -25.5q0 -14 11 -23.5t25 -9.5q15 0 24.5 11t9.5 25zM468 799q0 16 -12 27t-28 11q-17 0 -27.5 -12t-10.5 -29q0 -16 12 -26.5t29 -10.5q16 0 26.5 12t10.5 28z
M386 834q0 16 -12 27t-29 11q-16 0 -27 -12.5t-11 -28.5t12.5 -27t28.5 -11t27 12.5t11 28.5zM301 805q0 14 -10.5 24t-25.5 10q-14 0 -23.5 -11t-9.5 -26q0 -14 11 -23.5t25 -9.5t23.5 11t9.5 25z" />
    <glyph glyph-name="oacute" unicode="&#xf3;" 
d="M807 344q0 -164 -116 -269q-111 -101 -277 -101q-163 0 -274 103q-114 105 -114 267q0 163 115 268q111 102 275 102q166 0 276 -101q115 -105 115 -269zM723 533q0 18 -13 31t-31 13t-31 -13.5t-13 -31.5t13 -31t31 -13t31 13.5t13 31.5zM650 598q0 18 -13 31t-31 13
t-31 -13t-13 -31t13 -31t31 -13t31 13t13 31zM770 446q0 18 -13.5 31t-31.5 13t-31 -13.5t-13 -31.5t13.5 -31t31.5 -13t31 13.5t13 31.5zM560 636q0 18 -13.5 31t-31.5 13t-31 -13t-13 -31t13 -31t31 -13q19 0 32 13t13 31zM780 347q0 18 -13 31t-32 13q-18 0 -31 -13.5
t-13 -31.5t13.5 -31t31.5 -13t31 13.5t13 31.5zM462 649q0 18 -13.5 31t-31.5 13t-31 -13t-13 -31t13.5 -31t31.5 -13t31 13t13 31zM767 248q0 18 -13 31t-31 13t-31 -13.5t-13 -31.5t13 -31t31 -13t31 13.5t13 31.5zM363 636q0 18 -13 31t-31 13t-31 -13t-13 -31t13 -31
t31 -13t31 13t13 31zM722 160q0 18 -13 31t-31 13t-31 -13.5t-13 -31.5t13 -31t31 -13t31 13.5t13 31.5zM272 598q0 18 -13 31t-31 13t-31 -13t-13 -31t13 -31t31 -13t31 13t13 31zM665 344q0 105 -71.5 172.5t-177.5 67.5t-177 -67.5t-71 -172.5t71 -172.5t177 -67.5
t177.5 67.5t71.5 172.5zM649 94q0 18 -13 31t-31 13t-31 -13t-13 -31t13 -31t31 -13t31 13t13 31zM199 532q0 18 -13 31.5t-31 13.5t-31 -13t-13 -31t13 -31.5t31 -13.5t31 13t13 31zM559 55q0 18 -13 31t-31 13t-31 -13t-13 -31t13 -31t31 -13t31 13t13 31zM153 445
q0 18 -13 31.5t-31 13.5t-31 -13t-13 -31t13 -31.5t31 -13.5t31 13t13 31zM461 41q0 18 -13 31t-31 13t-31 -13t-13 -31t13 -31t31 -13t31 13t13 31zM143 346q0 18 -13 31.5t-31 13.5t-31.5 -13t-13.5 -31t13 -31.5t31 -13.5t31.5 13t13.5 31zM364 55q0 18 -13 31t-31 13
t-31.5 -13t-13.5 -31t13 -31t31 -13t31.5 13t13.5 31zM155 247q0 18 -13 31.5t-31 13.5t-31 -13t-13 -31t13 -31.5t31 -13.5t31 13t13 31zM273 94q0 18 -13 31t-31 13t-31 -13t-13 -31t13 -31t31 -13t31 13t13 31zM201 159q0 18 -13 31.5t-31 13.5t-31.5 -13t-13.5 -31
t13 -31.5t31 -13.5t31.5 13t13.5 31zM559 917l-154 -202h-112l92 202h174zM477 855q0 18 -13.5 31t-31.5 13t-31 -13t-13 -31t13 -31t31 -13t31.5 13t13.5 31zM422 777q0 16 -11.5 27.5t-27.5 11.5t-28 -11.5t-12 -27.5t12 -28t28 -12t27.5 12t11.5 28z" />
    <glyph glyph-name="ograve" unicode="&#xf2;" 
d="M807 344q0 -164 -116 -269q-111 -101 -277 -101q-163 0 -274 103q-114 105 -114 267q0 163 115 268q111 102 275 102q166 0 276 -101q115 -105 115 -269zM723 533q0 18 -13 31t-31 13t-31 -13.5t-13 -31.5t13 -31t31 -13t31 13.5t13 31.5zM650 598q0 18 -13 31t-31 13
t-31 -13t-13 -31t13 -31t31 -13t31 13t13 31zM770 446q0 18 -13.5 31t-31.5 13t-31 -13.5t-13 -31.5t13.5 -31t31.5 -13t31 13.5t13 31.5zM560 636q0 18 -13.5 31t-31.5 13t-31 -13t-13 -31t13 -31t31 -13q19 0 32 13t13 31zM780 347q0 18 -13 31t-32 13q-18 0 -31 -13.5
t-13 -31.5t13.5 -31t31.5 -13t31 13.5t13 31.5zM462 649q0 18 -13.5 31t-31.5 13t-31 -13t-13 -31t13.5 -31t31.5 -13t31 13t13 31zM767 248q0 18 -13 31t-31 13t-31 -13.5t-13 -31.5t13 -31t31 -13t31 13.5t13 31.5zM363 636q0 18 -13 31t-31 13t-31 -13t-13 -31t13 -31
t31 -13t31 13t13 31zM722 160q0 18 -13 31t-31 13t-31 -13.5t-13 -31.5t13 -31t31 -13t31 13.5t13 31.5zM272 598q0 18 -13 31t-31 13t-31 -13t-13 -31t13 -31t31 -13t31 13t13 31zM665 344q0 105 -71.5 172.5t-177.5 67.5t-177 -67.5t-71 -172.5t71 -172.5t177 -67.5
t177.5 67.5t71.5 172.5zM649 94q0 18 -13 31t-31 13t-31 -13t-13 -31t13 -31t31 -13t31 13t13 31zM199 532q0 18 -13 31.5t-31 13.5t-31 -13t-13 -31t13 -31.5t31 -13.5t31 13t13 31zM559 55q0 18 -13 31t-31 13t-31 -13t-13 -31t13 -31t31 -13t31 13t13 31zM153 445
q0 18 -13 31.5t-31 13.5t-31 -13t-13 -31t13 -31.5t31 -13.5t31 13t13 31zM461 41q0 18 -13 31t-31 13t-31 -13t-13 -31t13 -31t31 -13t31 13t13 31zM143 346q0 18 -13 31.5t-31 13.5t-31.5 -13t-13.5 -31t13 -31.5t31 -13.5t31.5 13t13.5 31zM364 55q0 18 -13 31t-31 13
t-31.5 -13t-13.5 -31t13 -31t31 -13t31.5 13t13.5 31zM155 247q0 18 -13 31.5t-31 13.5t-31 -13t-13 -31t13 -31.5t31 -13.5t31 13t13 31zM273 94q0 18 -13 31t-31 13t-31 -13t-13 -31t13 -31t31 -13t31 13t13 31zM201 159q0 18 -13 31.5t-31 13.5t-31.5 -13t-13.5 -31
t13 -31.5t31 -13.5t31.5 13t13.5 31zM251 917l154 -202h112l-93 202h-173zM333 855q0 18 13 31t31 13t31.5 -13t13.5 -31t-13.5 -31t-31.5 -13t-31 13t-13 31zM388 777q0 16 11.5 27.5t27.5 11.5t28 -11.5t12 -27.5t-12 -28t-28 -12t-27.5 12t-11.5 28z" />
    <glyph glyph-name="ocircumflex" unicode="&#xf4;" 
d="M807 344q0 -164 -116 -269q-111 -101 -277 -101q-163 0 -274 103q-114 105 -114 267q0 163 115 268q111 102 275 102q166 0 276 -101q115 -105 115 -269zM723 533q0 18 -13 31t-31 13t-31 -13.5t-13 -31.5t13 -31t31 -13t31 13.5t13 31.5zM650 598q0 18 -13 31t-31 13
t-31 -13t-13 -31t13 -31t31 -13t31 13t13 31zM770 446q0 18 -13.5 31t-31.5 13t-31 -13.5t-13 -31.5t13.5 -31t31.5 -13t31 13.5t13 31.5zM560 636q0 18 -13.5 31t-31.5 13t-31 -13t-13 -31t13 -31t31 -13q19 0 32 13t13 31zM780 347q0 18 -13 31t-32 13q-18 0 -31 -13.5
t-13 -31.5t13.5 -31t31.5 -13t31 13.5t13 31.5zM462 649q0 18 -13.5 31t-31.5 13t-31 -13t-13 -31t13.5 -31t31.5 -13t31 13t13 31zM767 248q0 18 -13 31t-31 13t-31 -13.5t-13 -31.5t13 -31t31 -13t31 13.5t13 31.5zM363 636q0 18 -13 31t-31 13t-31 -13t-13 -31t13 -31
t31 -13t31 13t13 31zM722 160q0 18 -13 31t-31 13t-31 -13.5t-13 -31.5t13 -31t31 -13t31 13.5t13 31.5zM272 598q0 18 -13 31t-31 13t-31 -13t-13 -31t13 -31t31 -13t31 13t13 31zM665 344q0 105 -71.5 172.5t-177.5 67.5t-177 -67.5t-71 -172.5t71 -172.5t177 -67.5
t177.5 67.5t71.5 172.5zM649 94q0 18 -13 31t-31 13t-31 -13t-13 -31t13 -31t31 -13t31 13t13 31zM199 532q0 18 -13 31.5t-31 13.5t-31 -13t-13 -31t13 -31.5t31 -13.5t31 13t13 31zM559 55q0 18 -13 31t-31 13t-31 -13t-13 -31t13 -31t31 -13t31 13t13 31zM153 445
q0 18 -13 31.5t-31 13.5t-31 -13t-13 -31t13 -31.5t31 -13.5t31 13t13 31zM461 41q0 18 -13 31t-31 13t-31 -13t-13 -31t13 -31t31 -13t31 13t13 31zM143 346q0 18 -13 31.5t-31 13.5t-31.5 -13t-13.5 -31t13 -31.5t31 -13.5t31.5 13t13.5 31zM364 55q0 18 -13 31t-31 13
t-31.5 -13t-13.5 -31t13 -31t31 -13t31.5 13t13.5 31zM155 247q0 18 -13 31.5t-31 13.5t-31 -13t-13 -31t13 -31.5t31 -13.5t31 13t13 31zM273 94q0 18 -13 31t-31 13t-31 -13t-13 -31t13 -31t31 -13t31 13t13 31zM201 159q0 18 -13 31.5t-31 13.5t-31.5 -13t-13.5 -31
t13 -31.5t31 -13.5t31.5 13t13.5 31zM608 716h-141l-51 50l-46 -50h-140l133 181h108zM530 778q0 16 -12 28t-28 12t-27.5 -12t-11.5 -28t11.5 -27.5t27.5 -11.5t28 11.5t12 27.5zM461 835q0 18 -13 31t-31 13t-31 -13t-13 -31t13 -31t31 -13t31 13t13 31zM383 778
q0 16 -12 28t-28 12t-27.5 -12t-11.5 -28t11.5 -27.5t27.5 -11.5t28 11.5t12 27.5z" />
    <glyph glyph-name="odieresis" unicode="&#xf6;" 
d="M807 344q0 -164 -116 -269q-111 -101 -277 -101q-163 0 -274 103q-114 105 -114 267q0 163 115 268q111 102 275 102q166 0 276 -101q115 -105 115 -269zM723 533q0 18 -13 31t-31 13t-31 -13.5t-13 -31.5t13 -31t31 -13t31 13.5t13 31.5zM650 598q0 18 -13 31t-31 13
t-31 -13t-13 -31t13 -31t31 -13t31 13t13 31zM770 446q0 18 -13.5 31t-31.5 13t-31 -13.5t-13 -31.5t13.5 -31t31.5 -13t31 13.5t13 31.5zM560 636q0 18 -13.5 31t-31.5 13t-31 -13t-13 -31t13 -31t31 -13q19 0 32 13t13 31zM780 347q0 18 -13 31t-32 13q-18 0 -31 -13.5
t-13 -31.5t13.5 -31t31.5 -13t31 13.5t13 31.5zM462 649q0 18 -13.5 31t-31.5 13t-31 -13t-13 -31t13.5 -31t31.5 -13t31 13t13 31zM767 248q0 18 -13 31t-31 13t-31 -13.5t-13 -31.5t13 -31t31 -13t31 13.5t13 31.5zM363 636q0 18 -13 31t-31 13t-31 -13t-13 -31t13 -31
t31 -13t31 13t13 31zM722 160q0 18 -13 31t-31 13t-31 -13.5t-13 -31.5t13 -31t31 -13t31 13.5t13 31.5zM272 598q0 18 -13 31t-31 13t-31 -13t-13 -31t13 -31t31 -13t31 13t13 31zM665 344q0 105 -71.5 172.5t-177.5 67.5t-177 -67.5t-71 -172.5t71 -172.5t177 -67.5
t177.5 67.5t71.5 172.5zM649 94q0 18 -13 31t-31 13t-31 -13t-13 -31t13 -31t31 -13t31 13t13 31zM199 532q0 18 -13 31.5t-31 13.5t-31 -13t-13 -31t13 -31.5t31 -13.5t31 13t13 31zM559 55q0 18 -13 31t-31 13t-31 -13t-13 -31t13 -31t31 -13t31 13t13 31zM153 445
q0 18 -13 31.5t-31 13.5t-31 -13t-13 -31t13 -31.5t31 -13.5t31 13t13 31zM461 41q0 18 -13 31t-31 13t-31 -13t-13 -31t13 -31t31 -13t31 13t13 31zM143 346q0 18 -13 31.5t-31 13.5t-31.5 -13t-13.5 -31t13 -31.5t31 -13.5t31.5 13t13.5 31zM364 55q0 18 -13 31t-31 13
t-31.5 -13t-13.5 -31t13 -31t31 -13t31.5 13t13.5 31zM155 247q0 18 -13 31.5t-31 13.5t-31 -13t-13 -31t13 -31.5t31 -13.5t31 13t13 31zM273 94q0 18 -13 31t-31 13t-31 -13t-13 -31t13 -31t31 -13t31 13t13 31zM201 159q0 18 -13 31.5t-31 13.5t-31.5 -13t-13.5 -31
t13 -31.5t31 -13.5t31.5 13t13.5 31zM577 805q0 -28 -19 -47.5t-47 -19.5q-27 0 -47 20t-20 47q0 28 19.5 47t47.5 19t47 -19t19 -47zM391 805q0 -28 -19 -47.5t-47 -19.5q-27 0 -47 20t-20 47q0 28 19.5 47t47.5 19t47 -19t19 -47zM551 806q0 16 -12 28t-28 12t-28 -12
t-12 -28t12 -28t28 -12t28 12t12 28zM364 806q0 16 -12 28t-28 12t-28 -12t-12 -28t12 -28t28 -12t28 12t12 28z" />
    </font>
</defs>
</svg>
